<?xml version="1.0" encoding="utf-8" standalone="no"?>
<!DOCTYPE svg PUBLIC "-//W3C//DTD SVG 1.1//EN"
  "http://www.w3.org/Graphics/SVG/1.1/DTD/svg11.dtd">
<svg xmlns:xlink="http://www.w3.org/1999/xlink" width="460.8pt" height="345.6pt" viewBox="0 0 460.8 345.6" xmlns="http://www.w3.org/2000/svg" version="1.1">
 <metadata>
  <rdf:RDF xmlns:dc="http://purl.org/dc/elements/1.1/" xmlns:cc="http://creativecommons.org/ns#" xmlns:rdf="http://www.w3.org/1999/02/22-rdf-syntax-ns#">
   <cc:Work>
    <dc:type rdf:resource="http://purl.org/dc/dcmitype/StillImage"/>
    <dc:date>2024-01-04T09:25:06.650231</dc:date>
    <dc:format>image/svg+xml</dc:format>
    <dc:creator>
     <cc:Agent>
      <dc:title>Matplotlib v3.7.2, https://matplotlib.org/</dc:title>
     </cc:Agent>
    </dc:creator>
   </cc:Work>
  </rdf:RDF>
 </metadata>
 <defs>
  <style type="text/css">*{stroke-linejoin: round; stroke-linecap: butt}</style>
 </defs>
 <g id="figure_1">
  <g id="patch_1">
   <path d="M 0 345.6 
L 460.8 345.6 
L 460.8 0 
L 0 0 
z
" style="fill: #ffffff"/>
  </g>
  <g id="patch_2">
   <path d="M 147.456 286.848 
L 430.848 286.848 
L 430.848 3.456 
L 147.456 3.456 
z
" style="fill: #ffffff"/>
  </g>
  <g id="pane3d_1">
   <g id="patch_3">
    <path d="M 181.543926 232.614309 
L 268.74371 157.498635 
L 267.422729 13.777033 
L 174.933887 80.649802 
" style="fill: #f2f2f2; opacity: 0.5; stroke: #f2f2f2; stroke-linejoin: miter"/>
   </g>
  </g>
  <g id="pane3d_2">
   <g id="patch_4">
    <path d="M 268.74371 157.498635 
L 400.291902 196.476264 
L 406.407929 48.401339 
L 267.422729 13.777033 
" style="fill: #e6e6e6; opacity: 0.5; stroke: #e6e6e6; stroke-linejoin: miter"/>
   </g>
  </g>
  <g id="pane3d_3">
   <g id="patch_5">
    <path d="M 181.543926 232.614309 
L 320.47692 278.53088 
L 400.291902 196.476264 
L 268.74371 157.498635 
" style="fill: #ececec; opacity: 0.5; stroke: #ececec; stroke-linejoin: miter"/>
   </g>
  </g>
  <g id="axis3d_1">
   <g id="line2d_1">
    <path d="M 181.543926 232.614309 
L 320.47692 278.53088 
" style="fill: none; stroke: #000000; stroke-width: 0.8; stroke-linecap: square"/>
   </g>
   <g id="text_1">
    <!-- X-axis -->
    <g transform="translate(219.271712 292.209464) rotate(-341.711571) scale(0.1 -0.1)">
     <defs>
      <path id="DejaVuSans-58" d="M 403 4666 
L 1081 4666 
L 2241 2931 
L 3406 4666 
L 4084 4666 
L 2584 2425 
L 4184 0 
L 3506 0 
L 2194 1984 
L 872 0 
L 191 0 
L 1856 2491 
L 403 4666 
z
" transform="scale(0.015625)"/>
      <path id="DejaVuSans-2d" d="M 313 2009 
L 1997 2009 
L 1997 1497 
L 313 1497 
L 313 2009 
z
" transform="scale(0.015625)"/>
      <path id="DejaVuSans-61" d="M 2194 1759 
Q 1497 1759 1228 1600 
Q 959 1441 959 1056 
Q 959 750 1161 570 
Q 1363 391 1709 391 
Q 2188 391 2477 730 
Q 2766 1069 2766 1631 
L 2766 1759 
L 2194 1759 
z
M 3341 1997 
L 3341 0 
L 2766 0 
L 2766 531 
Q 2569 213 2275 61 
Q 1981 -91 1556 -91 
Q 1019 -91 701 211 
Q 384 513 384 1019 
Q 384 1609 779 1909 
Q 1175 2209 1959 2209 
L 2766 2209 
L 2766 2266 
Q 2766 2663 2505 2880 
Q 2244 3097 1772 3097 
Q 1472 3097 1187 3025 
Q 903 2953 641 2809 
L 641 3341 
Q 956 3463 1253 3523 
Q 1550 3584 1831 3584 
Q 2591 3584 2966 3190 
Q 3341 2797 3341 1997 
z
" transform="scale(0.015625)"/>
      <path id="DejaVuSans-78" d="M 3513 3500 
L 2247 1797 
L 3578 0 
L 2900 0 
L 1881 1375 
L 863 0 
L 184 0 
L 1544 1831 
L 300 3500 
L 978 3500 
L 1906 2253 
L 2834 3500 
L 3513 3500 
z
" transform="scale(0.015625)"/>
      <path id="DejaVuSans-69" d="M 603 3500 
L 1178 3500 
L 1178 0 
L 603 0 
L 603 3500 
z
M 603 4863 
L 1178 4863 
L 1178 4134 
L 603 4134 
L 603 4863 
z
" transform="scale(0.015625)"/>
      <path id="DejaVuSans-73" d="M 2834 3397 
L 2834 2853 
Q 2591 2978 2328 3040 
Q 2066 3103 1784 3103 
Q 1356 3103 1142 2972 
Q 928 2841 928 2578 
Q 928 2378 1081 2264 
Q 1234 2150 1697 2047 
L 1894 2003 
Q 2506 1872 2764 1633 
Q 3022 1394 3022 966 
Q 3022 478 2636 193 
Q 2250 -91 1575 -91 
Q 1294 -91 989 -36 
Q 684 19 347 128 
L 347 722 
Q 666 556 975 473 
Q 1284 391 1588 391 
Q 1994 391 2212 530 
Q 2431 669 2431 922 
Q 2431 1156 2273 1281 
Q 2116 1406 1581 1522 
L 1381 1569 
Q 847 1681 609 1914 
Q 372 2147 372 2553 
Q 372 3047 722 3315 
Q 1072 3584 1716 3584 
Q 2034 3584 2315 3537 
Q 2597 3491 2834 3397 
z
" transform="scale(0.015625)"/>
     </defs>
     <use xlink:href="#DejaVuSans-58"/>
     <use xlink:href="#DejaVuSans-2d" x="63.505859"/>
     <use xlink:href="#DejaVuSans-61" x="99.589844"/>
     <use xlink:href="#DejaVuSans-78" x="160.869141"/>
     <use xlink:href="#DejaVuSans-69" x="220.048828"/>
     <use xlink:href="#DejaVuSans-73" x="247.832031"/>
    </g>
   </g>
   <g id="Line3DCollection_1">
    <path d="M 194.226291 236.805759 
L 280.791482 161.068381 
L 280.124334 16.941286 
" style="fill: none; stroke: #b0b0b0; stroke-width: 0.8"/>
    <path d="M 213.07444 243.034966 
L 298.681807 166.36927 
L 298.995699 21.642563 
" style="fill: none; stroke: #b0b0b0; stroke-width: 0.8"/>
    <path d="M 232.163757 249.343878 
L 316.783143 171.732682 
L 318.101979 26.402362 
" style="fill: none; stroke: #b0b0b0; stroke-width: 0.8"/>
    <path d="M 251.498902 255.734034 
L 335.099246 177.159729 
L 337.447589 31.221784 
" style="fill: none; stroke: #b0b0b0; stroke-width: 0.8"/>
    <path d="M 271.084653 262.207014 
L 353.633961 182.651551 
L 357.037054 36.101956 
" style="fill: none; stroke: #b0b0b0; stroke-width: 0.8"/>
    <path d="M 290.925915 268.764439 
L 372.391224 188.209314 
L 376.875013 41.044033 
" style="fill: none; stroke: #b0b0b0; stroke-width: 0.8"/>
    <path d="M 311.02772 275.407973 
L 391.375069 193.834213 
L 396.966226 46.049201 
" style="fill: none; stroke: #b0b0b0; stroke-width: 0.8"/>
   </g>
   <g id="xtick_1">
    <g id="line2d_2">
     <path d="M 194.976319 236.149546 
L 192.723215 238.120826 
" style="fill: none; stroke: #000000; stroke-width: 0.8; stroke-linecap: square"/>
    </g>
    <g id="text_2">
     <!-- 0.00 -->
     <g transform="translate(176.201848 262.044) scale(0.1 -0.1)">
      <defs>
       <path id="DejaVuSans-30" d="M 2034 4250 
Q 1547 4250 1301 3770 
Q 1056 3291 1056 2328 
Q 1056 1369 1301 889 
Q 1547 409 2034 409 
Q 2525 409 2770 889 
Q 3016 1369 3016 2328 
Q 3016 3291 2770 3770 
Q 2525 4250 2034 4250 
z
M 2034 4750 
Q 2819 4750 3233 4129 
Q 3647 3509 3647 2328 
Q 3647 1150 3233 529 
Q 2819 -91 2034 -91 
Q 1250 -91 836 529 
Q 422 1150 422 2328 
Q 422 3509 836 4129 
Q 1250 4750 2034 4750 
z
" transform="scale(0.015625)"/>
       <path id="DejaVuSans-2e" d="M 684 794 
L 1344 794 
L 1344 0 
L 684 0 
L 684 794 
z
" transform="scale(0.015625)"/>
      </defs>
      <use xlink:href="#DejaVuSans-30"/>
      <use xlink:href="#DejaVuSans-2e" x="63.623047"/>
      <use xlink:href="#DejaVuSans-30" x="95.410156"/>
      <use xlink:href="#DejaVuSans-30" x="159.033203"/>
     </g>
    </g>
   </g>
   <g id="xtick_2">
    <g id="line2d_3">
     <path d="M 213.816531 242.370386 
L 211.587252 244.366817 
" style="fill: none; stroke: #000000; stroke-width: 0.8; stroke-linecap: square"/>
    </g>
    <g id="text_3">
     <!-- 0.05 -->
     <g transform="translate(195.046866 268.399062) scale(0.1 -0.1)">
      <defs>
       <path id="DejaVuSans-35" d="M 691 4666 
L 3169 4666 
L 3169 4134 
L 1269 4134 
L 1269 2991 
Q 1406 3038 1543 3061 
Q 1681 3084 1819 3084 
Q 2600 3084 3056 2656 
Q 3513 2228 3513 1497 
Q 3513 744 3044 326 
Q 2575 -91 1722 -91 
Q 1428 -91 1123 -41 
Q 819 9 494 109 
L 494 744 
Q 775 591 1075 516 
Q 1375 441 1709 441 
Q 2250 441 2565 725 
Q 2881 1009 2881 1497 
Q 2881 1984 2565 2268 
Q 2250 2553 1709 2553 
Q 1456 2553 1204 2497 
Q 953 2441 691 2322 
L 691 4666 
z
" transform="scale(0.015625)"/>
      </defs>
      <use xlink:href="#DejaVuSans-30"/>
      <use xlink:href="#DejaVuSans-2e" x="63.623047"/>
      <use xlink:href="#DejaVuSans-30" x="95.410156"/>
      <use xlink:href="#DejaVuSans-35" x="159.033203"/>
     </g>
    </g>
   </g>
   <g id="xtick_3">
    <g id="line2d_4">
     <path d="M 232.897645 248.67077 
L 230.692989 250.692837 
" style="fill: none; stroke: #000000; stroke-width: 0.8; stroke-linecap: square"/>
    </g>
    <g id="text_4">
     <!-- 0.10 -->
     <g transform="translate(214.133538 274.835616) scale(0.1 -0.1)">
      <defs>
       <path id="DejaVuSans-31" d="M 794 531 
L 1825 531 
L 1825 4091 
L 703 3866 
L 703 4441 
L 1819 4666 
L 2450 4666 
L 2450 531 
L 3481 531 
L 3481 0 
L 794 0 
L 794 531 
z
" transform="scale(0.015625)"/>
      </defs>
      <use xlink:href="#DejaVuSans-30"/>
      <use xlink:href="#DejaVuSans-2e" x="63.623047"/>
      <use xlink:href="#DejaVuSans-31" x="95.410156"/>
      <use xlink:href="#DejaVuSans-30" x="159.033203"/>
     </g>
    </g>
   </g>
   <g id="xtick_4">
    <g id="line2d_5">
     <path d="M 252.224314 255.052234 
L 250.045101 257.100433 
" style="fill: none; stroke: #000000; stroke-width: 0.8; stroke-linecap: square"/>
    </g>
    <g id="text_5">
     <!-- 0.15 -->
     <g transform="translate(233.466541 281.355239) scale(0.1 -0.1)">
      <use xlink:href="#DejaVuSans-30"/>
      <use xlink:href="#DejaVuSans-2e" x="63.623047"/>
      <use xlink:href="#DejaVuSans-31" x="95.410156"/>
      <use xlink:href="#DejaVuSans-35" x="159.033203"/>
     </g>
    </g>
   </g>
   <g id="xtick_5">
    <g id="line2d_6">
     <path d="M 271.801307 261.516351 
L 269.648385 263.591193 
" style="fill: none; stroke: #000000; stroke-width: 0.8; stroke-linecap: square"/>
    </g>
    <g id="text_6">
     <!-- 0.20 -->
     <g transform="translate(253.050675 287.959551) scale(0.1 -0.1)">
      <defs>
       <path id="DejaVuSans-32" d="M 1228 531 
L 3431 531 
L 3431 0 
L 469 0 
L 469 531 
Q 828 903 1448 1529 
Q 2069 2156 2228 2338 
Q 2531 2678 2651 2914 
Q 2772 3150 2772 3378 
Q 2772 3750 2511 3984 
Q 2250 4219 1831 4219 
Q 1534 4219 1204 4116 
Q 875 4013 500 3803 
L 500 4441 
Q 881 4594 1212 4672 
Q 1544 4750 1819 4750 
Q 2544 4750 2975 4387 
Q 3406 4025 3406 3419 
Q 3406 3131 3298 2873 
Q 3191 2616 2906 2266 
Q 2828 2175 2409 1742 
Q 1991 1309 1228 531 
z
" transform="scale(0.015625)"/>
      </defs>
      <use xlink:href="#DejaVuSans-30"/>
      <use xlink:href="#DejaVuSans-2e" x="63.623047"/>
      <use xlink:href="#DejaVuSans-32" x="95.410156"/>
      <use xlink:href="#DejaVuSans-30" x="159.033203"/>
     </g>
    </g>
   </g>
   <g id="xtick_6">
    <g id="line2d_7">
     <path d="M 291.63352 268.06474 
L 289.507762 270.166747 
" style="fill: none; stroke: #000000; stroke-width: 0.8; stroke-linecap: square"/>
    </g>
    <g id="text_7">
     <!-- 0.25 -->
     <g transform="translate(272.890866 294.650212) scale(0.1 -0.1)">
      <use xlink:href="#DejaVuSans-30"/>
      <use xlink:href="#DejaVuSans-2e" x="63.623047"/>
      <use xlink:href="#DejaVuSans-32" x="95.410156"/>
      <use xlink:href="#DejaVuSans-35" x="159.033203"/>
     </g>
    </g>
   </g>
   <g id="xtick_7">
    <g id="line2d_8">
     <path d="M 311.725976 274.699058 
L 309.628285 276.828768 
" style="fill: none; stroke: #000000; stroke-width: 0.8; stroke-linecap: square"/>
    </g>
    <g id="text_8">
     <!-- 0.30 -->
     <g transform="translate(292.992169 301.428928) scale(0.1 -0.1)">
      <defs>
       <path id="DejaVuSans-33" d="M 2597 2516 
Q 3050 2419 3304 2112 
Q 3559 1806 3559 1356 
Q 3559 666 3084 287 
Q 2609 -91 1734 -91 
Q 1441 -91 1130 -33 
Q 819 25 488 141 
L 488 750 
Q 750 597 1062 519 
Q 1375 441 1716 441 
Q 2309 441 2620 675 
Q 2931 909 2931 1356 
Q 2931 1769 2642 2001 
Q 2353 2234 1838 2234 
L 1294 2234 
L 1294 2753 
L 1863 2753 
Q 2328 2753 2575 2939 
Q 2822 3125 2822 3475 
Q 2822 3834 2567 4026 
Q 2313 4219 1838 4219 
Q 1578 4219 1281 4162 
Q 984 4106 628 3988 
L 628 4550 
Q 988 4650 1302 4700 
Q 1616 4750 1894 4750 
Q 2613 4750 3031 4423 
Q 3450 4097 3450 3541 
Q 3450 3153 3228 2886 
Q 3006 2619 2597 2516 
z
" transform="scale(0.015625)"/>
      </defs>
      <use xlink:href="#DejaVuSans-30"/>
      <use xlink:href="#DejaVuSans-2e" x="63.623047"/>
      <use xlink:href="#DejaVuSans-33" x="95.410156"/>
      <use xlink:href="#DejaVuSans-30" x="159.033203"/>
     </g>
    </g>
   </g>
  </g>
  <g id="axis3d_2">
   <g id="line2d_9">
    <path d="M 400.291902 196.476264 
L 320.47692 278.53088 
" style="fill: none; stroke: #000000; stroke-width: 0.8; stroke-linecap: square"/>
   </g>
   <g id="text_9">
    <!-- Y-axis -->
    <g transform="translate(377.29963 279.711327) rotate(-45.792696) scale(0.1 -0.1)">
     <defs>
      <path id="DejaVuSans-59" d="M -13 4666 
L 666 4666 
L 1959 2747 
L 3244 4666 
L 3922 4666 
L 2272 2222 
L 2272 0 
L 1638 0 
L 1638 2222 
L -13 4666 
z
" transform="scale(0.015625)"/>
     </defs>
     <use xlink:href="#DejaVuSans-59"/>
     <use xlink:href="#DejaVuSans-2d" x="49.208984"/>
     <use xlink:href="#DejaVuSans-61" x="85.292969"/>
     <use xlink:href="#DejaVuSans-78" x="146.572266"/>
     <use xlink:href="#DejaVuSans-69" x="205.751953"/>
     <use xlink:href="#DejaVuSans-73" x="233.535156"/>
    </g>
   </g>
   <g id="Line3DCollection_2">
    <path d="M 181.571909 75.850272 
L 187.775931 227.245932 
L 326.200332 272.646868 
" style="fill: none; stroke: #b0b0b0; stroke-width: 0.8"/>
    <path d="M 194.41961 66.560921 
L 199.84936 216.845634 
L 337.280022 261.256278 
" style="fill: none; stroke: #b0b0b0; stroke-width: 0.8"/>
    <path d="M 206.979114 57.479947 
L 211.666722 206.665917 
L 348.11397 250.118325 
" style="fill: none; stroke: #b0b0b0; stroke-width: 0.8"/>
    <path d="M 219.260011 48.600415 
L 223.236078 196.699838 
L 358.710263 239.224697 
" style="fill: none; stroke: #b0b0b0; stroke-width: 0.8"/>
    <path d="M 231.271469 39.915698 
L 234.565154 186.940741 
L 369.076635 228.567442 
" style="fill: none; stroke: #b0b0b0; stroke-width: 0.8"/>
    <path d="M 243.022259 31.419453 
L 245.661359 177.382244 
L 379.220489 218.138948 
" style="fill: none; stroke: #b0b0b0; stroke-width: 0.8"/>
    <path d="M 254.520776 23.105611 
L 256.531799 168.018225 
L 389.148913 207.931928 
" style="fill: none; stroke: #b0b0b0; stroke-width: 0.8"/>
   </g>
   <g id="xtick_8">
    <g id="line2d_10">
     <path d="M 325.041556 272.266809 
L 328.520486 273.407841 
" style="fill: none; stroke: #000000; stroke-width: 0.8; stroke-linecap: square"/>
    </g>
    <g id="text_10">
     <!-- −0.25 -->
     <g transform="translate(322.006552 295.388422) scale(0.1 -0.1)">
      <defs>
       <path id="DejaVuSans-2212" d="M 678 2272 
L 4684 2272 
L 4684 1741 
L 678 1741 
L 678 2272 
z
" transform="scale(0.015625)"/>
      </defs>
      <use xlink:href="#DejaVuSans-2212"/>
      <use xlink:href="#DejaVuSans-30" x="83.789062"/>
      <use xlink:href="#DejaVuSans-2e" x="147.412109"/>
      <use xlink:href="#DejaVuSans-32" x="179.199219"/>
      <use xlink:href="#DejaVuSans-35" x="242.822266"/>
     </g>
    </g>
   </g>
   <g id="xtick_9">
    <g id="line2d_11">
     <path d="M 336.130137 260.884693 
L 339.582347 262.000273 
" style="fill: none; stroke: #000000; stroke-width: 0.8; stroke-linecap: square"/>
    </g>
    <g id="text_11">
     <!-- −0.20 -->
     <g transform="translate(332.951742 283.838251) scale(0.1 -0.1)">
      <use xlink:href="#DejaVuSans-2212"/>
      <use xlink:href="#DejaVuSans-30" x="83.789062"/>
      <use xlink:href="#DejaVuSans-2e" x="147.412109"/>
      <use xlink:href="#DejaVuSans-32" x="179.199219"/>
      <use xlink:href="#DejaVuSans-30" x="242.822266"/>
     </g>
    </g>
   </g>
   <g id="xtick_10">
    <g id="line2d_12">
     <path d="M 346.972869 249.754935 
L 350.398681 250.845904 
" style="fill: none; stroke: #000000; stroke-width: 0.8; stroke-linecap: square"/>
    </g>
    <g id="text_12">
     <!-- −0.15 -->
     <g transform="translate(343.654387 272.544033) scale(0.1 -0.1)">
      <use xlink:href="#DejaVuSans-2212"/>
      <use xlink:href="#DejaVuSans-30" x="83.789062"/>
      <use xlink:href="#DejaVuSans-2e" x="147.412109"/>
      <use xlink:href="#DejaVuSans-31" x="179.199219"/>
      <use xlink:href="#DejaVuSans-35" x="242.822266"/>
     </g>
    </g>
   </g>
   <g id="xtick_11">
    <g id="line2d_13">
     <path d="M 357.577839 238.869233 
L 360.977573 239.936398 
" style="fill: none; stroke: #000000; stroke-width: 0.8; stroke-linecap: square"/>
    </g>
    <g id="text_13">
     <!-- −0.10 -->
     <g transform="translate(354.122458 261.497353) scale(0.1 -0.1)">
      <use xlink:href="#DejaVuSans-2212"/>
      <use xlink:href="#DejaVuSans-30" x="83.789062"/>
      <use xlink:href="#DejaVuSans-2e" x="147.412109"/>
      <use xlink:href="#DejaVuSans-31" x="179.199219"/>
      <use xlink:href="#DejaVuSans-30" x="242.822266"/>
     </g>
    </g>
   </g>
   <g id="xtick_12">
    <g id="line2d_14">
     <path d="M 367.952781 228.219647 
L 371.326758 229.263778 
" style="fill: none; stroke: #000000; stroke-width: 0.8; stroke-linecap: square"/>
    </g>
    <g id="text_14">
     <!-- −0.05 -->
     <g transform="translate(364.363586 250.69016) scale(0.1 -0.1)">
      <use xlink:href="#DejaVuSans-2212"/>
      <use xlink:href="#DejaVuSans-30" x="83.789062"/>
      <use xlink:href="#DejaVuSans-2e" x="147.412109"/>
      <use xlink:href="#DejaVuSans-30" x="179.199219"/>
      <use xlink:href="#DejaVuSans-35" x="242.822266"/>
     </g>
    </g>
   </g>
   <g id="xtick_13">
    <g id="line2d_15">
     <path d="M 378.105101 217.798578 
L 381.453637 218.820412 
" style="fill: none; stroke: #000000; stroke-width: 0.8; stroke-linecap: square"/>
    </g>
    <g id="text_15">
     <!-- 0.00 -->
     <g transform="translate(378.574915 240.114752) scale(0.1 -0.1)">
      <use xlink:href="#DejaVuSans-30"/>
      <use xlink:href="#DejaVuSans-2e" x="63.623047"/>
      <use xlink:href="#DejaVuSans-30" x="95.410156"/>
      <use xlink:href="#DejaVuSans-30" x="159.033203"/>
     </g>
    </g>
   </g>
   <g id="xtick_14">
    <g id="line2d_16">
     <path d="M 388.041887 207.598747 
L 391.365295 208.598991 
" style="fill: none; stroke: #000000; stroke-width: 0.8; stroke-linecap: square"/>
    </g>
    <g id="text_16">
     <!-- 0.05 -->
     <g transform="translate(388.383747 229.763749) scale(0.1 -0.1)">
      <use xlink:href="#DejaVuSans-30"/>
      <use xlink:href="#DejaVuSans-2e" x="63.623047"/>
      <use xlink:href="#DejaVuSans-30" x="95.410156"/>
      <use xlink:href="#DejaVuSans-35" x="159.033203"/>
     </g>
    </g>
   </g>
  </g>
  <g id="axis3d_3">
   <g id="line2d_17">
    <path d="M 400.291902 196.476264 
L 406.407929 48.401339 
" style="fill: none; stroke: #000000; stroke-width: 0.8; stroke-linecap: square"/>
   </g>
   <g id="text_17">
    <!-- Z-axis -->
    <g transform="translate(441.809791 134.192126) rotate(-87.634823) scale(0.1 -0.1)">
     <defs>
      <path id="DejaVuSans-5a" d="M 359 4666 
L 4025 4666 
L 4025 4184 
L 1075 531 
L 4097 531 
L 4097 0 
L 288 0 
L 288 481 
L 3238 4134 
L 359 4134 
L 359 4666 
z
" transform="scale(0.015625)"/>
     </defs>
     <use xlink:href="#DejaVuSans-5a"/>
     <use xlink:href="#DejaVuSans-2d" x="66.755859"/>
     <use xlink:href="#DejaVuSans-61" x="102.839844"/>
     <use xlink:href="#DejaVuSans-78" x="164.119141"/>
     <use xlink:href="#DejaVuSans-69" x="223.298828"/>
     <use xlink:href="#DejaVuSans-73" x="251.082031"/>
    </g>
   </g>
   <g id="Line3DCollection_3">
    <path d="M 400.664435 187.456879 
L 268.663069 148.724981 
L 181.142131 223.377063 
" style="fill: none; stroke: #b0b0b0; stroke-width: 0.8"/>
    <path d="M 401.42551 169.030514 
L 268.498394 130.808488 
L 180.320941 204.497944 
" style="fill: none; stroke: #b0b0b0; stroke-width: 0.8"/>
    <path d="M 402.19742 150.34183 
L 268.331474 112.647696 
L 179.487603 185.339532 
" style="fill: none; stroke: #b0b0b0; stroke-width: 0.8"/>
    <path d="M 402.980398 131.385184 
L 268.162262 94.237572 
L 178.641844 165.895583 
" style="fill: none; stroke: #b0b0b0; stroke-width: 0.8"/>
    <path d="M 403.774683 112.154772 
L 267.990711 75.572947 
L 177.783386 146.159664 
" style="fill: none; stroke: #b0b0b0; stroke-width: 0.8"/>
    <path d="M 404.580522 92.644619 
L 267.816771 56.648507 
L 176.91194 126.125151 
" style="fill: none; stroke: #b0b0b0; stroke-width: 0.8"/>
    <path d="M 405.39817 72.848578 
L 267.640394 37.458789 
L 176.027208 105.785216 
" style="fill: none; stroke: #b0b0b0; stroke-width: 0.8"/>
    <path d="M 406.227887 52.760318 
L 267.461526 17.998174 
L 175.128886 85.132819 
" style="fill: none; stroke: #b0b0b0; stroke-width: 0.8"/>
   </g>
   <g id="xtick_15">
    <g id="line2d_18">
     <path d="M 399.562944 187.133679 
L 402.869715 188.103953 
" style="fill: none; stroke: #000000; stroke-width: 0.8; stroke-linecap: square"/>
    </g>
    <g id="text_18">
     <!-- −0.20 -->
     <g transform="translate(401.762248 192.368454) scale(0.1 -0.1)">
      <use xlink:href="#DejaVuSans-2212"/>
      <use xlink:href="#DejaVuSans-30" x="83.789062"/>
      <use xlink:href="#DejaVuSans-2e" x="147.412109"/>
      <use xlink:href="#DejaVuSans-32" x="179.199219"/>
      <use xlink:href="#DejaVuSans-30" x="242.822266"/>
     </g>
    </g>
   </g>
   <g id="xtick_16">
    <g id="line2d_19">
     <path d="M 400.31597 168.711476 
L 403.646921 169.669261 
" style="fill: none; stroke: #000000; stroke-width: 0.8; stroke-linecap: square"/>
    </g>
    <g id="text_19">
     <!-- −0.15 -->
     <g transform="translate(402.636828 173.976733) scale(0.1 -0.1)">
      <use xlink:href="#DejaVuSans-2212"/>
      <use xlink:href="#DejaVuSans-30" x="83.789062"/>
      <use xlink:href="#DejaVuSans-2e" x="147.412109"/>
      <use xlink:href="#DejaVuSans-31" x="179.199219"/>
      <use xlink:href="#DejaVuSans-35" x="242.822266"/>
     </g>
    </g>
   </g>
   <g id="xtick_17">
    <g id="line2d_20">
     <path d="M 401.079713 150.027105 
L 404.435198 150.971946 
" style="fill: none; stroke: #000000; stroke-width: 0.8; stroke-linecap: square"/>
    </g>
    <g id="text_20">
     <!-- −0.10 -->
     <g transform="translate(403.523822 155.323953) scale(0.1 -0.1)">
      <use xlink:href="#DejaVuSans-2212"/>
      <use xlink:href="#DejaVuSans-30" x="83.789062"/>
      <use xlink:href="#DejaVuSans-2e" x="147.412109"/>
      <use xlink:href="#DejaVuSans-31" x="179.199219"/>
      <use xlink:href="#DejaVuSans-30" x="242.822266"/>
     </g>
    </g>
   </g>
   <g id="xtick_18">
    <g id="line2d_21">
     <path d="M 401.854403 131.074929 
L 405.234786 132.006355 
" style="fill: none; stroke: #000000; stroke-width: 0.8; stroke-linecap: square"/>
    </g>
    <g id="text_21">
     <!-- −0.05 -->
     <g transform="translate(404.423497 136.404515) scale(0.1 -0.1)">
      <use xlink:href="#DejaVuSans-2212"/>
      <use xlink:href="#DejaVuSans-30" x="83.789062"/>
      <use xlink:href="#DejaVuSans-2e" x="147.412109"/>
      <use xlink:href="#DejaVuSans-30" x="179.199219"/>
      <use xlink:href="#DejaVuSans-35" x="242.822266"/>
     </g>
    </g>
   </g>
   <g id="xtick_19">
    <g id="line2d_22">
     <path d="M 402.640277 111.849149 
L 406.04593 112.766673 
" style="fill: none; stroke: #000000; stroke-width: 0.8; stroke-linecap: square"/>
    </g>
    <g id="text_22">
     <!-- 0.00 -->
     <g transform="translate(409.52597 117.21266) scale(0.1 -0.1)">
      <use xlink:href="#DejaVuSans-30"/>
      <use xlink:href="#DejaVuSans-2e" x="63.623047"/>
      <use xlink:href="#DejaVuSans-30" x="95.410156"/>
      <use xlink:href="#DejaVuSans-30" x="159.033203"/>
     </g>
    </g>
   </g>
   <g id="xtick_20">
    <g id="line2d_23">
     <path d="M 403.437578 92.343797 
L 406.868881 93.246914 
" style="fill: none; stroke: #000000; stroke-width: 0.8; stroke-linecap: square"/>
    </g>
    <g id="text_23">
     <!-- 0.05 -->
     <g transform="translate(410.451835 97.742461) scale(0.1 -0.1)">
      <use xlink:href="#DejaVuSans-30"/>
      <use xlink:href="#DejaVuSans-2e" x="63.623047"/>
      <use xlink:href="#DejaVuSans-30" x="95.410156"/>
      <use xlink:href="#DejaVuSans-35" x="159.033203"/>
     </g>
    </g>
   </g>
   <g id="xtick_21">
    <g id="line2d_24">
     <path d="M 404.246558 72.552731 
L 407.703901 73.440917 
" style="fill: none; stroke: #000000; stroke-width: 0.8; stroke-linecap: square"/>
    </g>
    <g id="text_24">
     <!-- 0.10 -->
     <g transform="translate(411.391227 77.987818) scale(0.1 -0.1)">
      <use xlink:href="#DejaVuSans-30"/>
      <use xlink:href="#DejaVuSans-2e" x="63.623047"/>
      <use xlink:href="#DejaVuSans-31" x="95.410156"/>
      <use xlink:href="#DejaVuSans-30" x="159.033203"/>
     </g>
    </g>
   </g>
   <g id="xtick_22">
    <g id="line2d_25">
     <path d="M 405.067476 52.469626 
L 408.551255 53.342342 
" style="fill: none; stroke: #000000; stroke-width: 0.8; stroke-linecap: square"/>
    </g>
    <g id="text_25">
     <!-- 0.15 -->
     <g transform="translate(412.344443 57.942453) scale(0.1 -0.1)">
      <use xlink:href="#DejaVuSans-30"/>
      <use xlink:href="#DejaVuSans-2e" x="63.623047"/>
      <use xlink:href="#DejaVuSans-31" x="95.410156"/>
      <use xlink:href="#DejaVuSans-35" x="159.033203"/>
     </g>
    </g>
   </g>
  </g>
  <g id="axes_1">
   <g id="line2d_26">
    <path d="M 256.76276 97.722838 
L 261.825546 91.000637 
L 267.165986 84.272171 
L 272.780893 77.569909 
L 277.996261 71.681174 
L 283.412108 65.923456 
L 288.301999 61.064205 
L 292.592002 57.095837 
L 296.957526 53.376031 
L 300.639493 50.520627 
L 304.347174 47.940977 
L 307.32123 46.113203 
L 310.292381 44.528375 
L 313.250453 43.218722 
L 316.184413 42.217351 
L 318.361997 41.688665 
L 320.514214 41.36594 
L 322.635737 41.262559 
L 324.721159 41.391214 
L 326.765054 41.763662 
L 328.762044 42.390461 
L 330.706864 43.280725 
L 332.594433 44.441892 
L 334.419913 45.879512 
L 336.178774 47.597076 
L 337.86684 49.595884 
L 339.480327 51.874967 
L 341.015869 54.431062 
L 342.470525 57.258641 
L 343.841774 60.350002 
L 345.127493 63.69541 
L 346.705729 68.530891 
L 348.125432 73.765447 
L 349.383913 79.363277 
L 350.478851 85.285741 
L 351.407958 91.492512 
L 352.168656 97.942654 
L 352.757786 104.595543 
L 353.171371 111.411604 
L 353.404454 118.352834 
L 353.451018 125.383114 
L 353.303989 132.468322 
L 352.955336 139.576274 
L 352.396255 146.676533 
L 351.617433 153.740128 
L 350.60938 160.739218 
L 349.362828 167.64675 
L 347.869168 174.436142 
L 346.120918 181.08102 
L 344.639049 185.953997 
L 343.008894 190.719739 
L 341.229487 195.367098 
L 339.300724 199.884936 
L 337.223453 204.262167 
L 334.999544 208.487816 
L 332.631953 212.551097 
L 330.124758 216.441508 
L 327.483177 220.148936 
L 324.713571 223.663763 
L 321.823416 226.976989 
L 318.821258 230.080347 
L 315.716645 232.966414 
L 312.520039 235.628718 
L 309.242706 238.061835 
L 305.896599 240.261465 
L 302.494215 242.224499 
L 299.048455 243.949058 
L 295.57247 245.434521 
L 292.079507 246.681527 
L 288.582761 247.69195 
L 285.095225 248.468867 
L 281.629555 249.0165 
L 278.197942 249.340137 
L 274.812002 249.446046 
L 271.482674 249.341379 
L 268.220144 249.034059 
L 265.033782 248.532666 
L 261.932089 247.846327 
L 258.922676 246.984589 
L 256.012242 245.957316 
L 253.206581 244.774569 
L 250.510593 243.446511 
L 247.928307 241.983305 
L 244.667539 239.839534 
L 241.619909 237.496812 
L 238.78854 234.97776 
L 236.174492 232.303982 
L 233.777015 229.495895 
L 231.593786 226.572603 
L 229.621157 223.551814 
L 227.854383 220.449805 
L 226.287835 217.281405 
L 224.915201 214.06002 
L 223.729661 210.797669 
L 222.499893 206.67828 
L 221.536809 202.529607 
L 220.825805 198.366923 
L 220.352396 194.202901 
L 220.102439 190.047872 
L 220.062304 185.910072 
L 220.219003 181.79588 
L 220.649652 176.896597 
L 221.326439 172.043606 
L 222.231372 167.239947 
L 223.348177 162.486579 
L 224.662274 157.782734 
L 226.427567 152.354535 
L 228.425984 146.985339 
L 230.642383 141.66814 
L 233.064143 136.394761 
L 236.0702 130.410196 
L 239.319023 124.457215 
L 242.801714 118.521963 
L 246.991692 111.849979 
L 251.464504 105.168813 
L 256.217425 98.468634 
L 256.76276 97.722838 
L 256.76276 97.722838 
" clip-path="url(#pd1bde8dc32)" style="fill: none; stroke: #1f77b4; stroke-width: 1.5; stroke-linecap: square"/>
   </g>
   <g id="line2d_27">
    <path d="M 278.600006 35.290315 
L 259.022687 228.839766 
" clip-path="url(#pd1bde8dc32)" style="fill: none; stroke: #000000; stroke-width: 1.5; stroke-linecap: square"/>
    <defs>
     <path id="m86c070c737" d="M 0 1.5 
C 0.397805 1.5 0.77937 1.341951 1.06066 1.06066 
C 1.341951 0.77937 1.5 0.397805 1.5 0 
C 1.5 -0.397805 1.341951 -0.77937 1.06066 -1.06066 
C 0.77937 -1.341951 0.397805 -1.5 0 -1.5 
C -0.397805 -1.5 -0.77937 -1.341951 -1.06066 -1.06066 
C -1.341951 -0.77937 -1.5 -0.397805 -1.5 0 
C -1.5 0.397805 -1.341951 0.77937 -1.06066 1.06066 
C -0.77937 1.341951 -0.397805 1.5 0 1.5 
z
" style="stroke: #000000"/>
    </defs>
    <g clip-path="url(#pd1bde8dc32)">
     <use xlink:href="#m86c070c737" x="278.600006" y="35.290315" style="stroke: #000000"/>
     <use xlink:href="#m86c070c737" x="259.022687" y="228.839766" style="stroke: #000000"/>
    </g>
   </g>
   <g id="line2d_28">
    <path d="M 259.022687 228.839766 
L 259.030317 228.837689 
" clip-path="url(#pd1bde8dc32)" style="fill: none; stroke-dasharray: 9.6,2.4,1.5,2.4; stroke-dashoffset: 0; stroke: #000000; stroke-width: 1.5"/>
    <g clip-path="url(#pd1bde8dc32)">
     <use xlink:href="#m86c070c737" x="259.022687" y="228.839766" style="stroke: #000000"/>
     <use xlink:href="#m86c070c737" x="259.030317" y="228.837689" style="stroke: #000000"/>
    </g>
   </g>
   <g id="line2d_29">
    <path d="M 259.030317 228.837689 
L 209.604799 133.212307 
" clip-path="url(#pd1bde8dc32)" style="fill: none; stroke: #000000; stroke-width: 1.5; stroke-linecap: square"/>
    <g clip-path="url(#pd1bde8dc32)">
     <use xlink:href="#m86c070c737" x="259.030317" y="228.837689" style="stroke: #000000"/>
     <use xlink:href="#m86c070c737" x="209.604799" y="133.212307" style="stroke: #000000"/>
    </g>
   </g>
   <g id="line2d_30">
    <path d="M 209.604799 133.212307 
L 209.577566 133.229889 
" clip-path="url(#pd1bde8dc32)" style="fill: none; stroke-dasharray: 9.6,2.4,1.5,2.4; stroke-dashoffset: 0; stroke: #000000; stroke-width: 1.5"/>
    <g clip-path="url(#pd1bde8dc32)">
     <use xlink:href="#m86c070c737" x="209.604799" y="133.212307" style="stroke: #000000"/>
     <use xlink:href="#m86c070c737" x="209.577566" y="133.229889" style="stroke: #000000"/>
    </g>
   </g>
   <g id="line2d_31">
    <path d="M 209.577566 133.229889 
L 307.553677 60.727172 
" clip-path="url(#pd1bde8dc32)" style="fill: none; stroke: #000000; stroke-width: 1.5; stroke-linecap: square"/>
    <g clip-path="url(#pd1bde8dc32)">
     <use xlink:href="#m86c070c737" x="209.577566" y="133.229889" style="stroke: #000000"/>
     <use xlink:href="#m86c070c737" x="307.553677" y="60.727172" style="stroke: #000000"/>
    </g>
   </g>
   <g id="line2d_32">
    <path d="M 307.553677 60.727172 
L 307.52847 60.694142 
" clip-path="url(#pd1bde8dc32)" style="fill: none; stroke-dasharray: 9.6,2.4,1.5,2.4; stroke-dashoffset: 0; stroke: #000000; stroke-width: 1.5"/>
    <g clip-path="url(#pd1bde8dc32)">
     <use xlink:href="#m86c070c737" x="307.553677" y="60.727172" style="stroke: #000000"/>
     <use xlink:href="#m86c070c737" x="307.52847" y="60.694142" style="stroke: #000000"/>
    </g>
   </g>
   <g id="line2d_33">
    <path d="M 307.52847 60.694142 
L 278.557641 35.276728 
" clip-path="url(#pd1bde8dc32)" style="fill: none; stroke: #000000; stroke-width: 1.5; stroke-linecap: square"/>
    <g clip-path="url(#pd1bde8dc32)">
     <use xlink:href="#m86c070c737" x="307.52847" y="60.694142" style="stroke: #000000"/>
     <use xlink:href="#m86c070c737" x="278.557641" y="35.276728" style="stroke: #000000"/>
    </g>
   </g>
   <g id="line2d_34">
    <path d="M 278.557641 35.276728 
L 278.600006 35.290315 
" clip-path="url(#pd1bde8dc32)" style="fill: none; stroke-dasharray: 9.6,2.4,1.5,2.4; stroke-dashoffset: 0; stroke: #000000; stroke-width: 1.5"/>
    <g clip-path="url(#pd1bde8dc32)">
     <use xlink:href="#m86c070c737" x="278.557641" y="35.276728" style="stroke: #000000"/>
     <use xlink:href="#m86c070c737" x="278.600006" y="35.290315" style="stroke: #000000"/>
    </g>
   </g>
   <g id="line2d_35">
    <path d="M 209.577566 133.229889 
L 256.76276 97.722838 
L 307.553677 60.727172 
" clip-path="url(#pd1bde8dc32)" style="fill: none; stroke: #000000; stroke-width: 1.5; stroke-linecap: square"/>
   </g>
   <g id="Line3DCollection_4">
    <path d="M 267.904397 88.863763 
L 256.76276 97.722838 
" clip-path="url(#pd1bde8dc32)" style="fill: none; stroke: #008000; stroke-width: 1.5"/>
    <path d="M 267.904397 88.863763 
L 264.715496 92.88966 
" clip-path="url(#pd1bde8dc32)" style="fill: none; stroke: #008000; stroke-width: 1.5"/>
    <path d="M 267.904397 88.863763 
L 264.684552 89.932035 
" clip-path="url(#pd1bde8dc32)" style="fill: none; stroke: #008000; stroke-width: 1.5"/>
   </g>
   <g id="Line3DCollection_5">
    <path d="M 275.490589 102.924069 
L 256.76276 97.722838 
" clip-path="url(#pd1bde8dc32)" style="fill: none; stroke: #ff0000; stroke-width: 1.5"/>
    <path d="M 275.490589 102.924069 
L 270.052575 102.900429 
" clip-path="url(#pd1bde8dc32)" style="fill: none; stroke: #ff0000; stroke-width: 1.5"/>
    <path d="M 275.490589 102.924069 
L 270.027173 99.918437 
" clip-path="url(#pd1bde8dc32)" style="fill: none; stroke: #ff0000; stroke-width: 1.5"/>
   </g>
   <g id="Line3DCollection_6">
    <path d="M 256.503804 78.441081 
L 256.76276 97.722838 
" clip-path="url(#pd1bde8dc32)" style="fill: none; stroke: #0000ff; stroke-width: 1.5"/>
    <path d="M 256.503804 78.441081 
L 257.237623 84.78266 
" clip-path="url(#pd1bde8dc32)" style="fill: none; stroke: #0000ff; stroke-width: 1.5"/>
    <path d="M 256.503804 78.441081 
L 255.921978 83.33225 
" clip-path="url(#pd1bde8dc32)" style="fill: none; stroke: #0000ff; stroke-width: 1.5"/>
   </g>
   <g id="legend_1">
    <g id="patch_6">
     <path d="M 325.637063 26.134125 
L 423.848 26.134125 
Q 425.848 26.134125 425.848 24.134125 
L 425.848 10.456 
Q 425.848 8.456 423.848 8.456 
L 325.637063 8.456 
Q 323.637063 8.456 323.637063 10.456 
L 323.637063 24.134125 
Q 323.637063 26.134125 325.637063 26.134125 
z
" style="fill: #ffffff; opacity: 0.8; stroke: #cccccc; stroke-linejoin: miter"/>
    </g>
    <g id="line2d_36">
     <path d="M 327.637063 16.554438 
L 337.637063 16.554438 
L 347.637063 16.554438 
" style="fill: none; stroke: #1f77b4; stroke-width: 1.5; stroke-linecap: square"/>
    </g>
    <g id="text_26">
     <!-- motion curve -->
     <g transform="translate(355.637063 20.054438) scale(0.1 -0.1)">
      <defs>
       <path id="DejaVuSans-6d" d="M 3328 2828 
Q 3544 3216 3844 3400 
Q 4144 3584 4550 3584 
Q 5097 3584 5394 3201 
Q 5691 2819 5691 2113 
L 5691 0 
L 5113 0 
L 5113 2094 
Q 5113 2597 4934 2840 
Q 4756 3084 4391 3084 
Q 3944 3084 3684 2787 
Q 3425 2491 3425 1978 
L 3425 0 
L 2847 0 
L 2847 2094 
Q 2847 2600 2669 2842 
Q 2491 3084 2119 3084 
Q 1678 3084 1418 2786 
Q 1159 2488 1159 1978 
L 1159 0 
L 581 0 
L 581 3500 
L 1159 3500 
L 1159 2956 
Q 1356 3278 1631 3431 
Q 1906 3584 2284 3584 
Q 2666 3584 2933 3390 
Q 3200 3197 3328 2828 
z
" transform="scale(0.015625)"/>
       <path id="DejaVuSans-6f" d="M 1959 3097 
Q 1497 3097 1228 2736 
Q 959 2375 959 1747 
Q 959 1119 1226 758 
Q 1494 397 1959 397 
Q 2419 397 2687 759 
Q 2956 1122 2956 1747 
Q 2956 2369 2687 2733 
Q 2419 3097 1959 3097 
z
M 1959 3584 
Q 2709 3584 3137 3096 
Q 3566 2609 3566 1747 
Q 3566 888 3137 398 
Q 2709 -91 1959 -91 
Q 1206 -91 779 398 
Q 353 888 353 1747 
Q 353 2609 779 3096 
Q 1206 3584 1959 3584 
z
" transform="scale(0.015625)"/>
       <path id="DejaVuSans-74" d="M 1172 4494 
L 1172 3500 
L 2356 3500 
L 2356 3053 
L 1172 3053 
L 1172 1153 
Q 1172 725 1289 603 
Q 1406 481 1766 481 
L 2356 481 
L 2356 0 
L 1766 0 
Q 1100 0 847 248 
Q 594 497 594 1153 
L 594 3053 
L 172 3053 
L 172 3500 
L 594 3500 
L 594 4494 
L 1172 4494 
z
" transform="scale(0.015625)"/>
       <path id="DejaVuSans-6e" d="M 3513 2113 
L 3513 0 
L 2938 0 
L 2938 2094 
Q 2938 2591 2744 2837 
Q 2550 3084 2163 3084 
Q 1697 3084 1428 2787 
Q 1159 2491 1159 1978 
L 1159 0 
L 581 0 
L 581 3500 
L 1159 3500 
L 1159 2956 
Q 1366 3272 1645 3428 
Q 1925 3584 2291 3584 
Q 2894 3584 3203 3211 
Q 3513 2838 3513 2113 
z
" transform="scale(0.015625)"/>
       <path id="DejaVuSans-20" transform="scale(0.015625)"/>
       <path id="DejaVuSans-63" d="M 3122 3366 
L 3122 2828 
Q 2878 2963 2633 3030 
Q 2388 3097 2138 3097 
Q 1578 3097 1268 2742 
Q 959 2388 959 1747 
Q 959 1106 1268 751 
Q 1578 397 2138 397 
Q 2388 397 2633 464 
Q 2878 531 3122 666 
L 3122 134 
Q 2881 22 2623 -34 
Q 2366 -91 2075 -91 
Q 1284 -91 818 406 
Q 353 903 353 1747 
Q 353 2603 823 3093 
Q 1294 3584 2113 3584 
Q 2378 3584 2631 3529 
Q 2884 3475 3122 3366 
z
" transform="scale(0.015625)"/>
       <path id="DejaVuSans-75" d="M 544 1381 
L 544 3500 
L 1119 3500 
L 1119 1403 
Q 1119 906 1312 657 
Q 1506 409 1894 409 
Q 2359 409 2629 706 
Q 2900 1003 2900 1516 
L 2900 3500 
L 3475 3500 
L 3475 0 
L 2900 0 
L 2900 538 
Q 2691 219 2414 64 
Q 2138 -91 1772 -91 
Q 1169 -91 856 284 
Q 544 659 544 1381 
z
M 1991 3584 
L 1991 3584 
z
" transform="scale(0.015625)"/>
       <path id="DejaVuSans-72" d="M 2631 2963 
Q 2534 3019 2420 3045 
Q 2306 3072 2169 3072 
Q 1681 3072 1420 2755 
Q 1159 2438 1159 1844 
L 1159 0 
L 581 0 
L 581 3500 
L 1159 3500 
L 1159 2956 
Q 1341 3275 1631 3429 
Q 1922 3584 2338 3584 
Q 2397 3584 2469 3576 
Q 2541 3569 2628 3553 
L 2631 2963 
z
" transform="scale(0.015625)"/>
       <path id="DejaVuSans-76" d="M 191 3500 
L 800 3500 
L 1894 563 
L 2988 3500 
L 3597 3500 
L 2284 0 
L 1503 0 
L 191 3500 
z
" transform="scale(0.015625)"/>
       <path id="DejaVuSans-65" d="M 3597 1894 
L 3597 1613 
L 953 1613 
Q 991 1019 1311 708 
Q 1631 397 2203 397 
Q 2534 397 2845 478 
Q 3156 559 3463 722 
L 3463 178 
Q 3153 47 2828 -22 
Q 2503 -91 2169 -91 
Q 1331 -91 842 396 
Q 353 884 353 1716 
Q 353 2575 817 3079 
Q 1281 3584 2069 3584 
Q 2775 3584 3186 3129 
Q 3597 2675 3597 1894 
z
M 3022 2063 
Q 3016 2534 2758 2815 
Q 2500 3097 2075 3097 
Q 1594 3097 1305 2825 
Q 1016 2553 972 2059 
L 3022 2063 
z
" transform="scale(0.015625)"/>
      </defs>
      <use xlink:href="#DejaVuSans-6d"/>
      <use xlink:href="#DejaVuSans-6f" x="97.412109"/>
      <use xlink:href="#DejaVuSans-74" x="158.59375"/>
      <use xlink:href="#DejaVuSans-69" x="197.802734"/>
      <use xlink:href="#DejaVuSans-6f" x="225.585938"/>
      <use xlink:href="#DejaVuSans-6e" x="286.767578"/>
      <use xlink:href="#DejaVuSans-20" x="350.146484"/>
      <use xlink:href="#DejaVuSans-63" x="381.933594"/>
      <use xlink:href="#DejaVuSans-75" x="436.914062"/>
      <use xlink:href="#DejaVuSans-72" x="500.292969"/>
      <use xlink:href="#DejaVuSans-76" x="541.40625"/>
      <use xlink:href="#DejaVuSans-65" x="600.585938"/>
     </g>
    </g>
   </g>
  </g>
  <g id="axes_2">
   <g id="patch_7">
    <path d="M 138.24 337.824 
L 368.64 337.824 
L 368.64 329.184 
L 138.24 329.184 
z
" clip-path="url(#p4e2a9aef96)" style="fill: #d3d3d3"/>
   </g>
   <g id="patch_8">
    <path d="M 138.24 337.824 
L 138.24 329.184 
L 138.24 329.184 
z
" clip-path="url(#p4e2a9aef96)" style="fill: #1f77b4"/>
   </g>
   <g id="line2d_37">
    <path d="M 138.24 342.144 
L 138.24 324.864 
" clip-path="url(#p6d6a13ee12)" style="fill: none; stroke: #ff0000; stroke-linecap: square"/>
   </g>
   <g id="line2d_38">
    <defs>
     <path id="mfa58b8b346" d="M 0 5 
C 1.326016 5 2.597899 4.473168 3.535534 3.535534 
C 4.473168 2.597899 5 1.326016 5 0 
C 5 -1.326016 4.473168 -2.597899 3.535534 -3.535534 
C 2.597899 -4.473168 1.326016 -5 0 -5 
C -1.326016 -5 -2.597899 -4.473168 -3.535534 -3.535534 
C -4.473168 -2.597899 -5 -1.326016 -5 0 
C -5 1.326016 -4.473168 2.597899 -3.535534 3.535534 
C -2.597899 4.473168 -1.326016 5 0 5 
z
" style="stroke: #bfbfbf"/>
    </defs>
    <g>
     <use xlink:href="#mfa58b8b346" x="138.24" y="333.504" style="fill: #ffffff; stroke: #bfbfbf"/>
    </g>
   </g>
   <g id="text_27">
    <!-- Joint angle [rad]:  -->
    <g transform="translate(46.48825 336.263375) scale(0.1 -0.1)">
     <defs>
      <path id="DejaVuSans-4a" d="M 628 4666 
L 1259 4666 
L 1259 325 
Q 1259 -519 939 -900 
Q 619 -1281 -91 -1281 
L -331 -1281 
L -331 -750 
L -134 -750 
Q 284 -750 456 -515 
Q 628 -281 628 325 
L 628 4666 
z
" transform="scale(0.015625)"/>
      <path id="DejaVuSans-67" d="M 2906 1791 
Q 2906 2416 2648 2759 
Q 2391 3103 1925 3103 
Q 1463 3103 1205 2759 
Q 947 2416 947 1791 
Q 947 1169 1205 825 
Q 1463 481 1925 481 
Q 2391 481 2648 825 
Q 2906 1169 2906 1791 
z
M 3481 434 
Q 3481 -459 3084 -895 
Q 2688 -1331 1869 -1331 
Q 1566 -1331 1297 -1286 
Q 1028 -1241 775 -1147 
L 775 -588 
Q 1028 -725 1275 -790 
Q 1522 -856 1778 -856 
Q 2344 -856 2625 -561 
Q 2906 -266 2906 331 
L 2906 616 
Q 2728 306 2450 153 
Q 2172 0 1784 0 
Q 1141 0 747 490 
Q 353 981 353 1791 
Q 353 2603 747 3093 
Q 1141 3584 1784 3584 
Q 2172 3584 2450 3431 
Q 2728 3278 2906 2969 
L 2906 3500 
L 3481 3500 
L 3481 434 
z
" transform="scale(0.015625)"/>
      <path id="DejaVuSans-6c" d="M 603 4863 
L 1178 4863 
L 1178 0 
L 603 0 
L 603 4863 
z
" transform="scale(0.015625)"/>
      <path id="DejaVuSans-5b" d="M 550 4863 
L 1875 4863 
L 1875 4416 
L 1125 4416 
L 1125 -397 
L 1875 -397 
L 1875 -844 
L 550 -844 
L 550 4863 
z
" transform="scale(0.015625)"/>
      <path id="DejaVuSans-64" d="M 2906 2969 
L 2906 4863 
L 3481 4863 
L 3481 0 
L 2906 0 
L 2906 525 
Q 2725 213 2448 61 
Q 2172 -91 1784 -91 
Q 1150 -91 751 415 
Q 353 922 353 1747 
Q 353 2572 751 3078 
Q 1150 3584 1784 3584 
Q 2172 3584 2448 3432 
Q 2725 3281 2906 2969 
z
M 947 1747 
Q 947 1113 1208 752 
Q 1469 391 1925 391 
Q 2381 391 2643 752 
Q 2906 1113 2906 1747 
Q 2906 2381 2643 2742 
Q 2381 3103 1925 3103 
Q 1469 3103 1208 2742 
Q 947 2381 947 1747 
z
" transform="scale(0.015625)"/>
      <path id="DejaVuSans-5d" d="M 1947 4863 
L 1947 -844 
L 622 -844 
L 622 -397 
L 1369 -397 
L 1369 4416 
L 622 4416 
L 622 4863 
L 1947 4863 
z
" transform="scale(0.015625)"/>
      <path id="DejaVuSans-3a" d="M 750 794 
L 1409 794 
L 1409 0 
L 750 0 
L 750 794 
z
M 750 3309 
L 1409 3309 
L 1409 2516 
L 750 2516 
L 750 3309 
z
" transform="scale(0.015625)"/>
     </defs>
     <use xlink:href="#DejaVuSans-4a"/>
     <use xlink:href="#DejaVuSans-6f" x="29.492188"/>
     <use xlink:href="#DejaVuSans-69" x="90.673828"/>
     <use xlink:href="#DejaVuSans-6e" x="118.457031"/>
     <use xlink:href="#DejaVuSans-74" x="181.835938"/>
     <use xlink:href="#DejaVuSans-20" x="221.044922"/>
     <use xlink:href="#DejaVuSans-61" x="252.832031"/>
     <use xlink:href="#DejaVuSans-6e" x="314.111328"/>
     <use xlink:href="#DejaVuSans-67" x="377.490234"/>
     <use xlink:href="#DejaVuSans-6c" x="440.966797"/>
     <use xlink:href="#DejaVuSans-65" x="468.75"/>
     <use xlink:href="#DejaVuSans-20" x="530.273438"/>
     <use xlink:href="#DejaVuSans-5b" x="562.060547"/>
     <use xlink:href="#DejaVuSans-72" x="601.074219"/>
     <use xlink:href="#DejaVuSans-61" x="642.1875"/>
     <use xlink:href="#DejaVuSans-64" x="703.466797"/>
     <use xlink:href="#DejaVuSans-5d" x="766.943359"/>
     <use xlink:href="#DejaVuSans-3a" x="805.957031"/>
     <use xlink:href="#DejaVuSans-20" x="839.648438"/>
    </g>
   </g>
   <g id="text_28">
    <!-- $\mathdefault{0.000}$ -->
    <g transform="translate(373.248 336.263375) scale(0.1 -0.1)">
     <use xlink:href="#DejaVuSans-30" transform="translate(0 0.78125)"/>
     <use xlink:href="#DejaVuSans-2e" transform="translate(63.623047 0.78125)"/>
     <use xlink:href="#DejaVuSans-30" transform="translate(95.410156 0.78125)"/>
     <use xlink:href="#DejaVuSans-30" transform="translate(159.033203 0.78125)"/>
     <use xlink:href="#DejaVuSans-30" transform="translate(222.65625 0.78125)"/>
    </g>
   </g>
  </g>
  <g id="axes_3">
   <g id="patch_9">
    <path d="M 138.24 326.592 
L 207.36 326.592 
L 207.36 309.312 
L 138.24 309.312 
z
" style="fill: #f2f2f2"/>
   </g>
   <g id="matplotlib.axis_1"/>
   <g id="matplotlib.axis_2"/>
   <g id="patch_10">
    <path d="M 138.24 326.592 
L 138.24 309.312 
" style="fill: none; stroke: #000000; stroke-width: 0.8; stroke-linejoin: miter; stroke-linecap: square"/>
   </g>
   <g id="patch_11">
    <path d="M 207.36 326.592 
L 207.36 309.312 
" style="fill: none; stroke: #000000; stroke-width: 0.8; stroke-linejoin: miter; stroke-linecap: square"/>
   </g>
   <g id="patch_12">
    <path d="M 138.24 326.592 
L 207.36 326.592 
" style="fill: none; stroke: #000000; stroke-width: 0.8; stroke-linejoin: miter; stroke-linecap: square"/>
   </g>
   <g id="patch_13">
    <path d="M 138.24 309.312 
L 207.36 309.312 
" style="fill: none; stroke: #000000; stroke-width: 0.8; stroke-linejoin: miter; stroke-linecap: square"/>
   </g>
   <g id="text_29">
    <!-- Set angle [rad]:  -->
    <g transform="translate(56.087862 320.711375) scale(0.1 -0.1)">
     <defs>
      <path id="DejaVuSans-53" d="M 3425 4513 
L 3425 3897 
Q 3066 4069 2747 4153 
Q 2428 4238 2131 4238 
Q 1616 4238 1336 4038 
Q 1056 3838 1056 3469 
Q 1056 3159 1242 3001 
Q 1428 2844 1947 2747 
L 2328 2669 
Q 3034 2534 3370 2195 
Q 3706 1856 3706 1288 
Q 3706 609 3251 259 
Q 2797 -91 1919 -91 
Q 1588 -91 1214 -16 
Q 841 59 441 206 
L 441 856 
Q 825 641 1194 531 
Q 1563 422 1919 422 
Q 2459 422 2753 634 
Q 3047 847 3047 1241 
Q 3047 1584 2836 1778 
Q 2625 1972 2144 2069 
L 1759 2144 
Q 1053 2284 737 2584 
Q 422 2884 422 3419 
Q 422 4038 858 4394 
Q 1294 4750 2059 4750 
Q 2388 4750 2728 4690 
Q 3069 4631 3425 4513 
z
" transform="scale(0.015625)"/>
     </defs>
     <use xlink:href="#DejaVuSans-53"/>
     <use xlink:href="#DejaVuSans-65" x="63.476562"/>
     <use xlink:href="#DejaVuSans-74" x="125"/>
     <use xlink:href="#DejaVuSans-20" x="164.208984"/>
     <use xlink:href="#DejaVuSans-61" x="195.996094"/>
     <use xlink:href="#DejaVuSans-6e" x="257.275391"/>
     <use xlink:href="#DejaVuSans-67" x="320.654297"/>
     <use xlink:href="#DejaVuSans-6c" x="384.130859"/>
     <use xlink:href="#DejaVuSans-65" x="411.914062"/>
     <use xlink:href="#DejaVuSans-20" x="473.4375"/>
     <use xlink:href="#DejaVuSans-5b" x="505.224609"/>
     <use xlink:href="#DejaVuSans-72" x="544.238281"/>
     <use xlink:href="#DejaVuSans-61" x="585.351562"/>
     <use xlink:href="#DejaVuSans-64" x="646.630859"/>
     <use xlink:href="#DejaVuSans-5d" x="710.107422"/>
     <use xlink:href="#DejaVuSans-3a" x="749.121094"/>
     <use xlink:href="#DejaVuSans-20" x="782.8125"/>
    </g>
   </g>
  </g>
  <g id="axes_4">
   <g id="patch_14">
    <path d="M 138.24 307.584 
L 207.36 307.584 
L 207.36 290.304 
L 138.24 290.304 
z
" style="fill: #f2f2f2"/>
   </g>
   <g id="matplotlib.axis_3"/>
   <g id="matplotlib.axis_4"/>
   <g id="patch_15">
    <path d="M 138.24 307.584 
L 138.24 290.304 
" style="fill: none; stroke: #000000; stroke-width: 0.8; stroke-linejoin: miter; stroke-linecap: square"/>
   </g>
   <g id="patch_16">
    <path d="M 207.36 307.584 
L 207.36 290.304 
" style="fill: none; stroke: #000000; stroke-width: 0.8; stroke-linejoin: miter; stroke-linecap: square"/>
   </g>
   <g id="patch_17">
    <path d="M 138.24 307.584 
L 207.36 307.584 
" style="fill: none; stroke: #000000; stroke-width: 0.8; stroke-linejoin: miter; stroke-linecap: square"/>
   </g>
   <g id="patch_18">
    <path d="M 138.24 290.304 
L 207.36 290.304 
" style="fill: none; stroke: #000000; stroke-width: 0.8; stroke-linejoin: miter; stroke-linecap: square"/>
   </g>
   <g id="text_30">
    <!-- Set param t [-]:  -->
    <g transform="translate(57.258175 301.703375) scale(0.1 -0.1)">
     <defs>
      <path id="DejaVuSans-70" d="M 1159 525 
L 1159 -1331 
L 581 -1331 
L 581 3500 
L 1159 3500 
L 1159 2969 
Q 1341 3281 1617 3432 
Q 1894 3584 2278 3584 
Q 2916 3584 3314 3078 
Q 3713 2572 3713 1747 
Q 3713 922 3314 415 
Q 2916 -91 2278 -91 
Q 1894 -91 1617 61 
Q 1341 213 1159 525 
z
M 3116 1747 
Q 3116 2381 2855 2742 
Q 2594 3103 2138 3103 
Q 1681 3103 1420 2742 
Q 1159 2381 1159 1747 
Q 1159 1113 1420 752 
Q 1681 391 2138 391 
Q 2594 391 2855 752 
Q 3116 1113 3116 1747 
z
" transform="scale(0.015625)"/>
     </defs>
     <use xlink:href="#DejaVuSans-53"/>
     <use xlink:href="#DejaVuSans-65" x="63.476562"/>
     <use xlink:href="#DejaVuSans-74" x="125"/>
     <use xlink:href="#DejaVuSans-20" x="164.208984"/>
     <use xlink:href="#DejaVuSans-70" x="195.996094"/>
     <use xlink:href="#DejaVuSans-61" x="259.472656"/>
     <use xlink:href="#DejaVuSans-72" x="320.751953"/>
     <use xlink:href="#DejaVuSans-61" x="361.865234"/>
     <use xlink:href="#DejaVuSans-6d" x="423.144531"/>
     <use xlink:href="#DejaVuSans-20" x="520.556641"/>
     <use xlink:href="#DejaVuSans-74" x="552.34375"/>
     <use xlink:href="#DejaVuSans-20" x="591.552734"/>
     <use xlink:href="#DejaVuSans-5b" x="623.339844"/>
     <use xlink:href="#DejaVuSans-2d" x="662.353516"/>
     <use xlink:href="#DejaVuSans-5d" x="698.4375"/>
     <use xlink:href="#DejaVuSans-3a" x="737.451172"/>
     <use xlink:href="#DejaVuSans-20" x="771.142578"/>
    </g>
   </g>
  </g>
  <g id="axes_5">
   <g id="patch_19">
    <path d="M 138.24 288.576 
L 207.36 288.576 
L 207.36 271.296 
L 138.24 271.296 
z
" style="fill: #f2f2f2"/>
   </g>
   <g id="matplotlib.axis_5"/>
   <g id="matplotlib.axis_6"/>
   <g id="patch_20">
    <path d="M 138.24 288.576 
L 138.24 271.296 
" style="fill: none; stroke: #000000; stroke-width: 0.8; stroke-linejoin: miter; stroke-linecap: square"/>
   </g>
   <g id="patch_21">
    <path d="M 207.36 288.576 
L 207.36 271.296 
" style="fill: none; stroke: #000000; stroke-width: 0.8; stroke-linejoin: miter; stroke-linecap: square"/>
   </g>
   <g id="patch_22">
    <path d="M 138.24 288.576 
L 207.36 288.576 
" style="fill: none; stroke: #000000; stroke-width: 0.8; stroke-linejoin: miter; stroke-linecap: square"/>
   </g>
   <g id="patch_23">
    <path d="M 138.24 271.296 
L 207.36 271.296 
" style="fill: none; stroke: #000000; stroke-width: 0.8; stroke-linejoin: miter; stroke-linecap: square"/>
   </g>
   <g id="text_31">
    <!-- Save with filename:  -->
    <g transform="translate(35.294112 282.695375) scale(0.1 -0.1)">
     <defs>
      <path id="DejaVuSans-77" d="M 269 3500 
L 844 3500 
L 1563 769 
L 2278 3500 
L 2956 3500 
L 3675 769 
L 4391 3500 
L 4966 3500 
L 4050 0 
L 3372 0 
L 2619 2869 
L 1863 0 
L 1184 0 
L 269 3500 
z
" transform="scale(0.015625)"/>
      <path id="DejaVuSans-68" d="M 3513 2113 
L 3513 0 
L 2938 0 
L 2938 2094 
Q 2938 2591 2744 2837 
Q 2550 3084 2163 3084 
Q 1697 3084 1428 2787 
Q 1159 2491 1159 1978 
L 1159 0 
L 581 0 
L 581 4863 
L 1159 4863 
L 1159 2956 
Q 1366 3272 1645 3428 
Q 1925 3584 2291 3584 
Q 2894 3584 3203 3211 
Q 3513 2838 3513 2113 
z
" transform="scale(0.015625)"/>
      <path id="DejaVuSans-66" d="M 2375 4863 
L 2375 4384 
L 1825 4384 
Q 1516 4384 1395 4259 
Q 1275 4134 1275 3809 
L 1275 3500 
L 2222 3500 
L 2222 3053 
L 1275 3053 
L 1275 0 
L 697 0 
L 697 3053 
L 147 3053 
L 147 3500 
L 697 3500 
L 697 3744 
Q 697 4328 969 4595 
Q 1241 4863 1831 4863 
L 2375 4863 
z
" transform="scale(0.015625)"/>
     </defs>
     <use xlink:href="#DejaVuSans-53"/>
     <use xlink:href="#DejaVuSans-61" x="63.476562"/>
     <use xlink:href="#DejaVuSans-76" x="124.755859"/>
     <use xlink:href="#DejaVuSans-65" x="183.935547"/>
     <use xlink:href="#DejaVuSans-20" x="245.458984"/>
     <use xlink:href="#DejaVuSans-77" x="277.246094"/>
     <use xlink:href="#DejaVuSans-69" x="359.033203"/>
     <use xlink:href="#DejaVuSans-74" x="386.816406"/>
     <use xlink:href="#DejaVuSans-68" x="426.025391"/>
     <use xlink:href="#DejaVuSans-20" x="489.404297"/>
     <use xlink:href="#DejaVuSans-66" x="521.191406"/>
     <use xlink:href="#DejaVuSans-69" x="556.396484"/>
     <use xlink:href="#DejaVuSans-6c" x="584.179688"/>
     <use xlink:href="#DejaVuSans-65" x="611.962891"/>
     <use xlink:href="#DejaVuSans-6e" x="673.486328"/>
     <use xlink:href="#DejaVuSans-61" x="736.865234"/>
     <use xlink:href="#DejaVuSans-6d" x="798.144531"/>
     <use xlink:href="#DejaVuSans-65" x="895.556641"/>
     <use xlink:href="#DejaVuSans-3a" x="957.080078"/>
     <use xlink:href="#DejaVuSans-20" x="990.771484"/>
    </g>
   </g>
  </g>
  <g id="axes_6">
   <g id="patch_24">
    <path d="M 16.416 259.2 
L 21.6 259.2 
L 21.6 41.472 
L 16.416 41.472 
z
" clip-path="url(#pf46c1f72cd)" style="fill: #d3d3d3"/>
   </g>
   <g id="patch_25">
    <path d="M 16.416 259.2 
L 16.416 150.341443 
L 21.6 150.341443 
L 21.6 259.2 
z
" clip-path="url(#pf46c1f72cd)" style="fill: #1f77b4"/>
   </g>
   <g id="line2d_39">
    <path d="M 13.824 150.336 
L 24.192 150.336 
" clip-path="url(#p880067c704)" style="fill: none; stroke: #ff0000; stroke-linecap: square"/>
   </g>
   <g id="line2d_40">
    <g>
     <use xlink:href="#mfa58b8b346" x="19.008" y="150.341443" style="fill: #ffffff; stroke: #bfbfbf"/>
    </g>
   </g>
   <g id="text_32">
    <!-- j0 -->
    <g transform="translate(14.437687 35.037753) scale(0.1 -0.1)">
     <defs>
      <path id="DejaVuSans-6a" d="M 603 3500 
L 1178 3500 
L 1178 -63 
Q 1178 -731 923 -1031 
Q 669 -1331 103 -1331 
L -116 -1331 
L -116 -844 
L 38 -844 
Q 366 -844 484 -692 
Q 603 -541 603 -63 
L 603 3500 
z
M 603 4863 
L 1178 4863 
L 1178 4134 
L 603 4134 
L 603 4863 
z
" transform="scale(0.015625)"/>
     </defs>
     <use xlink:href="#DejaVuSans-6a"/>
     <use xlink:href="#DejaVuSans-30" x="27.783203"/>
    </g>
   </g>
   <g id="text_33">
    <!-- $\mathdefault{−0}$ -->
    <g transform="translate(11.608 271.152997) scale(0.1 -0.1)">
     <use xlink:href="#DejaVuSans-2212" transform="translate(0 0.78125)"/>
     <use xlink:href="#DejaVuSans-30" transform="translate(83.789062 0.78125)"/>
    </g>
   </g>
  </g>
  <g id="axes_7">
   <g id="patch_26">
    <path d="M 23.328 259.2 
L 28.512 259.2 
L 28.512 41.472 
L 23.328 41.472 
z
" clip-path="url(#p7ebcdab8dd)" style="fill: #d3d3d3"/>
   </g>
   <g id="patch_27">
    <path d="M 23.328 259.2 
L 23.328 150.336 
L 28.512 150.336 
L 28.512 259.2 
z
" clip-path="url(#p7ebcdab8dd)" style="fill: #1f77b4"/>
   </g>
   <g id="line2d_41">
    <path d="M 20.736 150.336 
L 31.104 150.336 
" clip-path="url(#p83f8da6606)" style="fill: none; stroke: #ff0000; stroke-linecap: square"/>
   </g>
   <g id="line2d_42">
    <g>
     <use xlink:href="#mfa58b8b346" x="25.92" y="150.336" style="fill: #ffffff; stroke: #bfbfbf"/>
    </g>
   </g>
   <g id="text_34">
    <!-- $\mathdefault{0}$ -->
    <g transform="translate(22.72 271.152997) scale(0.1 -0.1)">
     <use xlink:href="#DejaVuSans-30" transform="translate(0 0.78125)"/>
    </g>
   </g>
  </g>
  <g id="axes_8">
   <g id="patch_28">
    <path d="M 34.848 259.2 
L 40.032 259.2 
L 40.032 41.472 
L 34.848 41.472 
z
" clip-path="url(#p245c29df67)" style="fill: #d3d3d3"/>
   </g>
   <g id="patch_29">
    <path d="M 34.848 259.2 
L 34.848 150.341443 
L 40.032 150.341443 
L 40.032 259.2 
z
" clip-path="url(#p245c29df67)" style="fill: #1f77b4"/>
   </g>
   <g id="line2d_43">
    <path d="M 32.256 150.336 
L 42.624 150.336 
" clip-path="url(#p790b3d0ccb)" style="fill: none; stroke: #ff0000; stroke-linecap: square"/>
   </g>
   <g id="line2d_44">
    <g>
     <use xlink:href="#mfa58b8b346" x="37.44" y="150.341443" style="fill: #ffffff; stroke: #bfbfbf"/>
    </g>
   </g>
   <g id="text_35">
    <!-- j1 -->
    <g transform="translate(32.869688 35.037753) scale(0.1 -0.1)">
     <use xlink:href="#DejaVuSans-6a"/>
     <use xlink:href="#DejaVuSans-31" x="27.783203"/>
    </g>
   </g>
   <g id="text_36">
    <!-- $\mathdefault{−0}$ -->
    <g transform="translate(30.04 271.152997) scale(0.1 -0.1)">
     <use xlink:href="#DejaVuSans-2212" transform="translate(0 0.78125)"/>
     <use xlink:href="#DejaVuSans-30" transform="translate(83.789062 0.78125)"/>
    </g>
   </g>
  </g>
  <g id="axes_9">
   <g id="patch_30">
    <path d="M 41.76 259.2 
L 46.944 259.2 
L 46.944 41.472 
L 41.76 41.472 
z
" clip-path="url(#p8abe7cee6e)" style="fill: #d3d3d3"/>
   </g>
   <g id="patch_31">
    <path d="M 41.76 259.2 
L 41.76 150.336 
L 46.944 150.336 
L 46.944 259.2 
z
" clip-path="url(#p8abe7cee6e)" style="fill: #1f77b4"/>
   </g>
   <g id="line2d_45">
    <path d="M 39.168 150.336 
L 49.536 150.336 
" clip-path="url(#p56cd65e273)" style="fill: none; stroke: #ff0000; stroke-linecap: square"/>
   </g>
   <g id="line2d_46">
    <g>
     <use xlink:href="#mfa58b8b346" x="44.352" y="150.336" style="fill: #ffffff; stroke: #bfbfbf"/>
    </g>
   </g>
   <g id="text_37">
    <!-- $\mathdefault{0}$ -->
    <g transform="translate(41.152 271.152997) scale(0.1 -0.1)">
     <use xlink:href="#DejaVuSans-30" transform="translate(0 0.78125)"/>
    </g>
   </g>
  </g>
  <g id="axes_10">
   <g id="patch_32">
    <path d="M 53.28 259.2 
L 58.464 259.2 
L 58.464 41.472 
L 53.28 41.472 
z
" clip-path="url(#p146e382cf8)" style="fill: #d3d3d3"/>
   </g>
   <g id="patch_33">
    <path d="M 53.28 259.2 
L 53.28 150.341443 
L 58.464 150.341443 
L 58.464 259.2 
z
" clip-path="url(#p146e382cf8)" style="fill: #1f77b4"/>
   </g>
   <g id="line2d_47">
    <path d="M 50.688 150.336 
L 61.056 150.336 
" clip-path="url(#pf30138239b)" style="fill: none; stroke: #ff0000; stroke-linecap: square"/>
   </g>
   <g id="line2d_48">
    <g>
     <use xlink:href="#mfa58b8b346" x="55.872" y="150.341443" style="fill: #ffffff; stroke: #bfbfbf"/>
    </g>
   </g>
   <g id="text_38">
    <!-- j2 -->
    <g transform="translate(51.301687 35.037753) scale(0.1 -0.1)">
     <use xlink:href="#DejaVuSans-6a"/>
     <use xlink:href="#DejaVuSans-32" x="27.783203"/>
    </g>
   </g>
   <g id="text_39">
    <!-- $\mathdefault{−0}$ -->
    <g transform="translate(48.472 271.152997) scale(0.1 -0.1)">
     <use xlink:href="#DejaVuSans-2212" transform="translate(0 0.78125)"/>
     <use xlink:href="#DejaVuSans-30" transform="translate(83.789062 0.78125)"/>
    </g>
   </g>
  </g>
  <g id="axes_11">
   <g id="patch_34">
    <path d="M 60.192 259.2 
L 65.376 259.2 
L 65.376 41.472 
L 60.192 41.472 
z
" clip-path="url(#pccf96545c9)" style="fill: #d3d3d3"/>
   </g>
   <g id="patch_35">
    <path d="M 60.192 259.2 
L 60.192 150.336 
L 65.376 150.336 
L 65.376 259.2 
z
" clip-path="url(#pccf96545c9)" style="fill: #1f77b4"/>
   </g>
   <g id="line2d_49">
    <path d="M 57.6 150.336 
L 67.968 150.336 
" clip-path="url(#pf0fc28e35f)" style="fill: none; stroke: #ff0000; stroke-linecap: square"/>
   </g>
   <g id="line2d_50">
    <g>
     <use xlink:href="#mfa58b8b346" x="62.784" y="150.336" style="fill: #ffffff; stroke: #bfbfbf"/>
    </g>
   </g>
   <g id="text_40">
    <!-- $\mathdefault{0}$ -->
    <g transform="translate(59.584 271.152997) scale(0.1 -0.1)">
     <use xlink:href="#DejaVuSans-30" transform="translate(0 0.78125)"/>
    </g>
   </g>
  </g>
  <g id="axes_12">
   <g id="patch_36">
    <path d="M 71.712 259.2 
L 76.896 259.2 
L 76.896 41.472 
L 71.712 41.472 
z
" clip-path="url(#p302115fe8a)" style="fill: #d3d3d3"/>
   </g>
   <g id="patch_37">
    <path d="M 71.712 259.2 
L 71.712 150.341443 
L 76.896 150.341443 
L 76.896 259.2 
z
" clip-path="url(#p302115fe8a)" style="fill: #1f77b4"/>
   </g>
   <g id="line2d_51">
    <path d="M 69.12 150.336 
L 79.488 150.336 
" clip-path="url(#pc3895a182b)" style="fill: none; stroke: #ff0000; stroke-linecap: square"/>
   </g>
   <g id="line2d_52">
    <g>
     <use xlink:href="#mfa58b8b346" x="74.304" y="150.341443" style="fill: #ffffff; stroke: #bfbfbf"/>
    </g>
   </g>
   <g id="text_41">
    <!-- j3 -->
    <g transform="translate(69.733688 35.037753) scale(0.1 -0.1)">
     <use xlink:href="#DejaVuSans-6a"/>
     <use xlink:href="#DejaVuSans-33" x="27.783203"/>
    </g>
   </g>
   <g id="text_42">
    <!-- $\mathdefault{−0}$ -->
    <g transform="translate(66.904 271.152997) scale(0.1 -0.1)">
     <use xlink:href="#DejaVuSans-2212" transform="translate(0 0.78125)"/>
     <use xlink:href="#DejaVuSans-30" transform="translate(83.789062 0.78125)"/>
    </g>
   </g>
  </g>
  <g id="axes_13">
   <g id="patch_38">
    <path d="M 78.624 259.2 
L 83.808 259.2 
L 83.808 41.472 
L 78.624 41.472 
z
" clip-path="url(#pa813640a73)" style="fill: #d3d3d3"/>
   </g>
   <g id="patch_39">
    <path d="M 78.624 259.2 
L 78.624 150.336 
L 83.808 150.336 
L 83.808 259.2 
z
" clip-path="url(#pa813640a73)" style="fill: #1f77b4"/>
   </g>
   <g id="line2d_53">
    <path d="M 76.032 150.336 
L 86.4 150.336 
" clip-path="url(#p3777106791)" style="fill: none; stroke: #ff0000; stroke-linecap: square"/>
   </g>
   <g id="line2d_54">
    <g>
     <use xlink:href="#mfa58b8b346" x="81.216" y="150.336" style="fill: #ffffff; stroke: #bfbfbf"/>
    </g>
   </g>
   <g id="text_43">
    <!-- $\mathdefault{0}$ -->
    <g transform="translate(78.016 271.152997) scale(0.1 -0.1)">
     <use xlink:href="#DejaVuSans-30" transform="translate(0 0.78125)"/>
    </g>
   </g>
  </g>
 </g>
 <defs>
  <clipPath id="pd1bde8dc32">
   <rect x="147.456" y="3.456" width="283.392" height="283.392"/>
  </clipPath>
  <clipPath id="p4e2a9aef96">
   <rect x="138.24" y="324.864" width="230.4" height="17.28"/>
  </clipPath>
  <clipPath id="p6d6a13ee12">
   <path d="M 138.24 337.824 
L 368.64 337.824 
L 368.64 329.184 
L 138.24 329.184 
z
"/>
  </clipPath>
  <clipPath id="pf46c1f72cd">
   <rect x="13.824" y="41.472" width="10.368" height="217.728"/>
  </clipPath>
  <clipPath id="p880067c704">
   <path d="M 16.416 259.2 
L 21.6 259.2 
L 21.6 41.472 
L 16.416 41.472 
z
"/>
  </clipPath>
  <clipPath id="p7ebcdab8dd">
   <rect x="20.736" y="41.472" width="10.368" height="217.728"/>
  </clipPath>
  <clipPath id="p83f8da6606">
   <path d="M 23.328 259.2 
L 28.512 259.2 
L 28.512 41.472 
L 23.328 41.472 
z
"/>
  </clipPath>
  <clipPath id="p245c29df67">
   <rect x="32.256" y="41.472" width="10.368" height="217.728"/>
  </clipPath>
  <clipPath id="p790b3d0ccb">
   <path d="M 34.848 259.2 
L 40.032 259.2 
L 40.032 41.472 
L 34.848 41.472 
z
"/>
  </clipPath>
  <clipPath id="p8abe7cee6e">
   <rect x="39.168" y="41.472" width="10.368" height="217.728"/>
  </clipPath>
  <clipPath id="p56cd65e273">
   <path d="M 41.76 259.2 
L 46.944 259.2 
L 46.944 41.472 
L 41.76 41.472 
z
"/>
  </clipPath>
  <clipPath id="p146e382cf8">
   <rect x="50.688" y="41.472" width="10.368" height="217.728"/>
  </clipPath>
  <clipPath id="pf30138239b">
   <path d="M 53.28 259.2 
L 58.464 259.2 
L 58.464 41.472 
L 53.28 41.472 
z
"/>
  </clipPath>
  <clipPath id="pccf96545c9">
   <rect x="57.6" y="41.472" width="10.368" height="217.728"/>
  </clipPath>
  <clipPath id="pf0fc28e35f">
   <path d="M 60.192 259.2 
L 65.376 259.2 
L 65.376 41.472 
L 60.192 41.472 
z
"/>
  </clipPath>
  <clipPath id="p302115fe8a">
   <rect x="69.12" y="41.472" width="10.368" height="217.728"/>
  </clipPath>
  <clipPath id="pc3895a182b">
   <path d="M 71.712 259.2 
L 76.896 259.2 
L 76.896 41.472 
L 71.712 41.472 
z
"/>
  </clipPath>
  <clipPath id="pa813640a73">
   <rect x="76.032" y="41.472" width="10.368" height="217.728"/>
  </clipPath>
  <clipPath id="p3777106791">
   <path d="M 78.624 259.2 
L 83.808 259.2 
L 83.808 41.472 
L 78.624 41.472 
z
"/>
  </clipPath>
 </defs>
</svg>
