<?xml version="1.0" encoding="utf-8" standalone="no"?>
<!DOCTYPE svg PUBLIC "-//W3C//DTD SVG 1.1//EN"
  "http://www.w3.org/Graphics/SVG/1.1/DTD/svg11.dtd">
<svg xmlns:xlink="http://www.w3.org/1999/xlink" width="460.8pt" height="345.6pt" viewBox="0 0 460.8 345.6" xmlns="http://www.w3.org/2000/svg" version="1.1">
 <metadata>
  <rdf:RDF xmlns:dc="http://purl.org/dc/elements/1.1/" xmlns:cc="http://creativecommons.org/ns#" xmlns:rdf="http://www.w3.org/1999/02/22-rdf-syntax-ns#">
   <cc:Work>
    <dc:type rdf:resource="http://purl.org/dc/dcmitype/StillImage"/>
    <dc:date>2024-03-06T16:56:21.266165</dc:date>
    <dc:format>image/svg+xml</dc:format>
    <dc:creator>
     <cc:Agent>
      <dc:title>Matplotlib v3.8.2, https://matplotlib.org/</dc:title>
     </cc:Agent>
    </dc:creator>
   </cc:Work>
  </rdf:RDF>
 </metadata>
 <defs>
  <style type="text/css">*{stroke-linejoin: round; stroke-linecap: butt}</style>
 </defs>
 <g id="figure_1">
  <g id="patch_1">
   <path d="M 0 345.6 
L 460.8 345.6 
L 460.8 0 
L 0 0 
z
" style="fill: #ffffff"/>
  </g>
  <g id="patch_2">
   <path d="M 147.456 286.848 
L 430.848 286.848 
L 430.848 3.456 
L 147.456 3.456 
z
" style="fill: #ffffff"/>
  </g>
  <g id="pane3d_1">
   <g id="patch_3">
    <path d="M 415.121333 211.674789 
L 304.769799 154.579309 
L 305.256979 24.657725 
L 420.567026 74.056861 
" style="fill: #f2f2f2; opacity: 0.5; stroke: #f2f2f2; stroke-linejoin: miter"/>
   </g>
  </g>
  <g id="pane3d_2">
   <g id="patch_4">
    <path d="M 171.813142 205.204768 
L 304.769799 154.579309 
L 305.256979 24.657725 
L 166.455609 68.44346 
" style="fill: #e6e6e6; opacity: 0.5; stroke: #e6e6e6; stroke-linejoin: miter"/>
   </g>
  </g>
  <g id="pane3d_3">
   <g id="patch_5">
    <path d="M 279.386828 270.526912 
L 415.121333 211.674789 
L 304.769799 154.579309 
L 171.813142 205.204768 
" style="fill: #ececec; opacity: 0.5; stroke: #ececec; stroke-linejoin: miter"/>
   </g>
  </g>
  <g id="grid3d_1">
   <g id="Line3DCollection_1">
    <path d="M 288.399664 266.619103 
L 180.59989 201.859067 
L 175.652372 65.542286 
" style="fill: none; stroke: #b0b0b0; stroke-width: 0.8"/>
    <path d="M 306.670693 258.697102 
L 198.430691 195.069693 
L 194.304851 59.658248 
" style="fill: none; stroke: #b0b0b0; stroke-width: 0.8"/>
    <path d="M 324.611455 250.9183 
L 215.96281 188.394047 
L 212.63137 53.877036 
" style="fill: none; stroke: #b0b0b0; stroke-width: 0.8"/>
    <path d="M 342.230824 243.278847 
L 233.203689 181.829296 
L 230.640399 48.195978 
" style="fill: none; stroke: #b0b0b0; stroke-width: 0.8"/>
    <path d="M 359.53736 235.775034 
L 250.160526 175.372698 
L 248.340118 42.612494 
" style="fill: none; stroke: #b0b0b0; stroke-width: 0.8"/>
    <path d="M 376.539321 228.403279 
L 266.840283 169.021603 
L 265.738426 37.124092 
" style="fill: none; stroke: #b0b0b0; stroke-width: 0.8"/>
    <path d="M 393.244677 221.160127 
L 283.249696 162.773446 
L 282.842959 31.728363 
" style="fill: none; stroke: #b0b0b0; stroke-width: 0.8"/>
    <path d="M 409.661123 214.042241 
L 299.395285 156.625744 
L 299.661094 26.42298 
" style="fill: none; stroke: #b0b0b0; stroke-width: 0.8"/>
   </g>
  </g>
  <g id="grid3d_2">
   <g id="Line3DCollection_2">
    <path d="M 409.324052 69.24034 
L 404.392119 206.123533 
L 268.879797 264.14671 
" style="fill: none; stroke: #b0b0b0; stroke-width: 0.8"/>
    <path d="M 393.047727 62.267518 
L 388.84799 198.081057 
L 253.675931 254.914442 
" style="fill: none; stroke: #b0b0b0; stroke-width: 0.8"/>
    <path d="M 377.106092 55.438079 
L 373.61021 190.197086 
L 238.79277 245.876916 
" style="fill: none; stroke: #b0b0b0; stroke-width: 0.8"/>
    <path d="M 361.488927 48.747643 
L 358.669814 182.466979 
L 224.220274 237.028036 
" style="fill: none; stroke: #b0b0b0; stroke-width: 0.8"/>
    <path d="M 346.186427 42.192011 
L 344.018178 174.886276 
L 209.948815 228.361954 
" style="fill: none; stroke: #b0b0b0; stroke-width: 0.8"/>
    <path d="M 331.189176 35.767148 
L 329.647011 167.450687 
L 195.969161 219.873066 
" style="fill: none; stroke: #b0b0b0; stroke-width: 0.8"/>
    <path d="M 316.488131 29.46918 
L 315.548337 160.156084 
L 182.272452 211.555992 
" style="fill: none; stroke: #b0b0b0; stroke-width: 0.8"/>
   </g>
  </g>
  <g id="grid3d_3">
   <g id="Line3DCollection_3">
    <path d="M 171.573893 199.097497 
L 304.791613 148.762107 
L 415.364436 205.531346 
" style="fill: none; stroke: #b0b0b0; stroke-width: 0.8"/>
    <path d="M 170.790282 179.094311 
L 304.86302 129.719067 
L 416.160726 185.408321 
" style="fill: none; stroke: #b0b0b0; stroke-width: 0.8"/>
    <path d="M 169.99649 158.831232 
L 304.935297 110.444344 
L 416.967446 165.021718 
" style="fill: none; stroke: #b0b0b0; stroke-width: 0.8"/>
    <path d="M 169.192316 138.30316 
L 305.008458 90.933684 
L 417.784803 144.366325 
" style="fill: none; stroke: #b0b0b0; stroke-width: 0.8"/>
    <path d="M 168.377557 117.504864 
L 305.08252 71.182728 
L 418.613008 123.436789 
" style="fill: none; stroke: #b0b0b0; stroke-width: 0.8"/>
    <path d="M 167.552001 96.430973 
L 305.1575 51.187009 
L 419.452278 102.227618 
" style="fill: none; stroke: #b0b0b0; stroke-width: 0.8"/>
    <path d="M 166.715433 75.075973 
L 305.233415 30.941949 
L 420.302838 80.733168 
" style="fill: none; stroke: #b0b0b0; stroke-width: 0.8"/>
   </g>
  </g>
  <g id="axis3d_1">
   <g id="line2d_1">
    <path d="M 415.121333 211.674789 
L 279.386828 270.526912 
" style="fill: none; stroke: #000000; stroke-width: 0.8; stroke-linecap: square"/>
   </g>
   <g id="xtick_1">
    <g id="line2d_2">
     <path d="M 287.468388 266.059645 
L 290.265821 267.740185 
" style="fill: none; stroke: #000000; stroke-width: 0.8; stroke-linecap: square"/>
    </g>
    <g id="text_1">
     <!-- −2.5 -->
     <g transform="translate(285.375073 290.476736) scale(0.1 -0.1)">
      <defs>
       <path id="DejaVuSans-2212" d="M 678 2272 
L 4684 2272 
L 4684 1741 
L 678 1741 
L 678 2272 
z
" transform="scale(0.015625)"/>
       <path id="DejaVuSans-32" d="M 1228 531 
L 3431 531 
L 3431 0 
L 469 0 
L 469 531 
Q 828 903 1448 1529 
Q 2069 2156 2228 2338 
Q 2531 2678 2651 2914 
Q 2772 3150 2772 3378 
Q 2772 3750 2511 3984 
Q 2250 4219 1831 4219 
Q 1534 4219 1204 4116 
Q 875 4013 500 3803 
L 500 4441 
Q 881 4594 1212 4672 
Q 1544 4750 1819 4750 
Q 2544 4750 2975 4387 
Q 3406 4025 3406 3419 
Q 3406 3131 3298 2873 
Q 3191 2616 2906 2266 
Q 2828 2175 2409 1742 
Q 1991 1309 1228 531 
z
" transform="scale(0.015625)"/>
       <path id="DejaVuSans-2e" d="M 684 794 
L 1344 794 
L 1344 0 
L 684 0 
L 684 794 
z
" transform="scale(0.015625)"/>
       <path id="DejaVuSans-35" d="M 691 4666 
L 3169 4666 
L 3169 4134 
L 1269 4134 
L 1269 2991 
Q 1406 3038 1543 3061 
Q 1681 3084 1819 3084 
Q 2600 3084 3056 2656 
Q 3513 2228 3513 1497 
Q 3513 744 3044 326 
Q 2575 -91 1722 -91 
Q 1428 -91 1123 -41 
Q 819 9 494 109 
L 494 744 
Q 775 591 1075 516 
Q 1375 441 1709 441 
Q 2250 441 2565 725 
Q 2881 1009 2881 1497 
Q 2881 1984 2565 2268 
Q 2250 2553 1709 2553 
Q 1456 2553 1204 2497 
Q 953 2441 691 2322 
L 691 4666 
z
" transform="scale(0.015625)"/>
      </defs>
      <use xlink:href="#DejaVuSans-2212"/>
      <use xlink:href="#DejaVuSans-32" x="83.789062"/>
      <use xlink:href="#DejaVuSans-2e" x="147.412109"/>
      <use xlink:href="#DejaVuSans-35" x="179.199219"/>
     </g>
    </g>
   </g>
   <g id="xtick_2">
    <g id="line2d_3">
     <path d="M 305.736245 258.147799 
L 308.543175 259.797815 
" style="fill: none; stroke: #000000; stroke-width: 0.8; stroke-linecap: square"/>
    </g>
    <g id="text_2">
     <!-- −2.0 -->
     <g transform="translate(303.61223 282.38458) scale(0.1 -0.1)">
      <defs>
       <path id="DejaVuSans-30" d="M 2034 4250 
Q 1547 4250 1301 3770 
Q 1056 3291 1056 2328 
Q 1056 1369 1301 889 
Q 1547 409 2034 409 
Q 2525 409 2770 889 
Q 3016 1369 3016 2328 
Q 3016 3291 2770 3770 
Q 2525 4250 2034 4250 
z
M 2034 4750 
Q 2819 4750 3233 4129 
Q 3647 3509 3647 2328 
Q 3647 1150 3233 529 
Q 2819 -91 2034 -91 
Q 1250 -91 836 529 
Q 422 1150 422 2328 
Q 422 3509 836 4129 
Q 1250 4750 2034 4750 
z
" transform="scale(0.015625)"/>
      </defs>
      <use xlink:href="#DejaVuSans-2212"/>
      <use xlink:href="#DejaVuSans-32" x="83.789062"/>
      <use xlink:href="#DejaVuSans-2e" x="147.412109"/>
      <use xlink:href="#DejaVuSans-30" x="179.199219"/>
     </g>
    </g>
   </g>
   <g id="xtick_3">
    <g id="line2d_4">
     <path d="M 323.6741 250.378878 
L 326.489729 251.999194 
" style="fill: none; stroke: #000000; stroke-width: 0.8; stroke-linecap: square"/>
    </g>
    <g id="text_3">
     <!-- −1.5 -->
     <g transform="translate(321.518846 274.43909) scale(0.1 -0.1)">
      <defs>
       <path id="DejaVuSans-31" d="M 794 531 
L 1825 531 
L 1825 4091 
L 703 3866 
L 703 4441 
L 1819 4666 
L 2450 4666 
L 2450 531 
L 3481 531 
L 3481 0 
L 794 0 
L 794 531 
z
" transform="scale(0.015625)"/>
      </defs>
      <use xlink:href="#DejaVuSans-2212"/>
      <use xlink:href="#DejaVuSans-31" x="83.789062"/>
      <use xlink:href="#DejaVuSans-2e" x="147.412109"/>
      <use xlink:href="#DejaVuSans-35" x="179.199219"/>
     </g>
    </g>
   </g>
   <g id="xtick_4">
    <g id="line2d_5">
     <path d="M 341.290816 242.749043 
L 344.114382 244.340453 
" style="fill: none; stroke: #000000; stroke-width: 0.8; stroke-linecap: square"/>
    </g>
    <g id="text_4">
     <!-- −1.0 -->
     <g transform="translate(339.103827 266.636315) scale(0.1 -0.1)">
      <use xlink:href="#DejaVuSans-2212"/>
      <use xlink:href="#DejaVuSans-31" x="83.789062"/>
      <use xlink:href="#DejaVuSans-2e" x="147.412109"/>
      <use xlink:href="#DejaVuSans-30" x="179.199219"/>
     </g>
    </g>
   </g>
   <g id="xtick_5">
    <g id="line2d_6">
     <path d="M 358.59494 235.254591 
L 361.425719 236.817863 
" style="fill: none; stroke: #000000; stroke-width: 0.8; stroke-linecap: square"/>
    </g>
    <g id="text_5">
     <!-- −0.5 -->
     <g transform="translate(356.375763 258.972444) scale(0.1 -0.1)">
      <use xlink:href="#DejaVuSans-2212"/>
      <use xlink:href="#DejaVuSans-30" x="83.789062"/>
      <use xlink:href="#DejaVuSans-2e" x="147.412109"/>
      <use xlink:href="#DejaVuSans-35" x="179.199219"/>
     </g>
    </g>
   </g>
   <g id="xtick_6">
    <g id="line2d_7">
     <path d="M 375.594719 227.891953 
L 378.43202 229.427825 
" style="fill: none; stroke: #000000; stroke-width: 0.8; stroke-linecap: square"/>
    </g>
    <g id="text_6">
     <!-- 0.0 -->
     <g transform="translate(377.532782 251.443801) scale(0.1 -0.1)">
      <use xlink:href="#DejaVuSans-30"/>
      <use xlink:href="#DejaVuSans-2e" x="63.623047"/>
      <use xlink:href="#DejaVuSans-30" x="95.410156"/>
     </g>
    </g>
   </g>
   <g id="xtick_7">
    <g id="line2d_8">
     <path d="M 392.298113 220.657679 
L 395.141278 222.166866 
" style="fill: none; stroke: #000000; stroke-width: 0.8; stroke-linecap: square"/>
    </g>
    <g id="text_7">
     <!-- 0.5 -->
     <g transform="translate(394.203192 244.046838) scale(0.1 -0.1)">
      <use xlink:href="#DejaVuSans-30"/>
      <use xlink:href="#DejaVuSans-2e" x="63.623047"/>
      <use xlink:href="#DejaVuSans-35" x="95.410156"/>
     </g>
    </g>
   </g>
   <g id="xtick_8">
    <g id="line2d_9">
     <path d="M 408.712805 213.548443 
L 411.561208 215.031634 
" style="fill: none; stroke: #000000; stroke-width: 0.8; stroke-linecap: square"/>
    </g>
    <g id="text_8">
     <!-- 1.0 -->
     <g transform="translate(410.584556 236.77813) scale(0.1 -0.1)">
      <use xlink:href="#DejaVuSans-31"/>
      <use xlink:href="#DejaVuSans-2e" x="63.623047"/>
      <use xlink:href="#DejaVuSans-30" x="95.410156"/>
     </g>
    </g>
   </g>
   <g id="text_9">
    <!-- X-axis -->
    <g transform="translate(356.587731 282.787398) rotate(-23.440717) scale(0.1 -0.1)">
     <defs>
      <path id="DejaVuSans-58" d="M 403 4666 
L 1081 4666 
L 2241 2931 
L 3406 4666 
L 4084 4666 
L 2584 2425 
L 4184 0 
L 3506 0 
L 2194 1984 
L 872 0 
L 191 0 
L 1856 2491 
L 403 4666 
z
" transform="scale(0.015625)"/>
      <path id="DejaVuSans-2d" d="M 313 2009 
L 1997 2009 
L 1997 1497 
L 313 1497 
L 313 2009 
z
" transform="scale(0.015625)"/>
      <path id="DejaVuSans-61" d="M 2194 1759 
Q 1497 1759 1228 1600 
Q 959 1441 959 1056 
Q 959 750 1161 570 
Q 1363 391 1709 391 
Q 2188 391 2477 730 
Q 2766 1069 2766 1631 
L 2766 1759 
L 2194 1759 
z
M 3341 1997 
L 3341 0 
L 2766 0 
L 2766 531 
Q 2569 213 2275 61 
Q 1981 -91 1556 -91 
Q 1019 -91 701 211 
Q 384 513 384 1019 
Q 384 1609 779 1909 
Q 1175 2209 1959 2209 
L 2766 2209 
L 2766 2266 
Q 2766 2663 2505 2880 
Q 2244 3097 1772 3097 
Q 1472 3097 1187 3025 
Q 903 2953 641 2809 
L 641 3341 
Q 956 3463 1253 3523 
Q 1550 3584 1831 3584 
Q 2591 3584 2966 3190 
Q 3341 2797 3341 1997 
z
" transform="scale(0.015625)"/>
      <path id="DejaVuSans-78" d="M 3513 3500 
L 2247 1797 
L 3578 0 
L 2900 0 
L 1881 1375 
L 863 0 
L 184 0 
L 1544 1831 
L 300 3500 
L 978 3500 
L 1906 2253 
L 2834 3500 
L 3513 3500 
z
" transform="scale(0.015625)"/>
      <path id="DejaVuSans-69" d="M 603 3500 
L 1178 3500 
L 1178 0 
L 603 0 
L 603 3500 
z
M 603 4863 
L 1178 4863 
L 1178 4134 
L 603 4134 
L 603 4863 
z
" transform="scale(0.015625)"/>
      <path id="DejaVuSans-73" d="M 2834 3397 
L 2834 2853 
Q 2591 2978 2328 3040 
Q 2066 3103 1784 3103 
Q 1356 3103 1142 2972 
Q 928 2841 928 2578 
Q 928 2378 1081 2264 
Q 1234 2150 1697 2047 
L 1894 2003 
Q 2506 1872 2764 1633 
Q 3022 1394 3022 966 
Q 3022 478 2636 193 
Q 2250 -91 1575 -91 
Q 1294 -91 989 -36 
Q 684 19 347 128 
L 347 722 
Q 666 556 975 473 
Q 1284 391 1588 391 
Q 1994 391 2212 530 
Q 2431 669 2431 922 
Q 2431 1156 2273 1281 
Q 2116 1406 1581 1522 
L 1381 1569 
Q 847 1681 609 1914 
Q 372 2147 372 2553 
Q 372 3047 722 3315 
Q 1072 3584 1716 3584 
Q 2034 3584 2315 3537 
Q 2597 3491 2834 3397 
z
" transform="scale(0.015625)"/>
     </defs>
     <use xlink:href="#DejaVuSans-58"/>
     <use xlink:href="#DejaVuSans-2d" x="63.505859"/>
     <use xlink:href="#DejaVuSans-61" x="99.589844"/>
     <use xlink:href="#DejaVuSans-78" x="160.869141"/>
     <use xlink:href="#DejaVuSans-69" x="220.048828"/>
     <use xlink:href="#DejaVuSans-73" x="247.832031"/>
    </g>
   </g>
  </g>
  <g id="axis3d_2">
   <g id="line2d_10">
    <path d="M 171.813142 205.204768 
L 279.386828 270.526912 
" style="fill: none; stroke: #000000; stroke-width: 0.8; stroke-linecap: square"/>
   </g>
   <g id="xtick_9">
    <g id="line2d_11">
     <path d="M 270.041069 263.649481 
L 266.553247 265.142884 
" style="fill: none; stroke: #000000; stroke-width: 0.8; stroke-linecap: square"/>
    </g>
    <g id="text_10">
     <!-- −1.0 -->
     <g transform="translate(245.484286 287.363421) scale(0.1 -0.1)">
      <use xlink:href="#DejaVuSans-2212"/>
      <use xlink:href="#DejaVuSans-31" x="83.789062"/>
      <use xlink:href="#DejaVuSans-2e" x="147.412109"/>
      <use xlink:href="#DejaVuSans-30" x="179.199219"/>
     </g>
    </g>
   </g>
   <g id="xtick_10">
    <g id="line2d_12">
     <path d="M 254.833467 254.427754 
L 251.356908 255.88948 
" style="fill: none; stroke: #000000; stroke-width: 0.8; stroke-linecap: square"/>
    </g>
    <g id="text_11">
     <!-- −0.5 -->
     <g transform="translate(230.369661 277.945533) scale(0.1 -0.1)">
      <use xlink:href="#DejaVuSans-2212"/>
      <use xlink:href="#DejaVuSans-30" x="83.789062"/>
      <use xlink:href="#DejaVuSans-2e" x="147.412109"/>
      <use xlink:href="#DejaVuSans-35" x="179.199219"/>
     </g>
    </g>
   </g>
   <g id="xtick_11">
    <g id="line2d_13">
     <path d="M 239.946469 245.400437 
L 236.481477 246.831484 
" style="fill: none; stroke: #000000; stroke-width: 0.8; stroke-linecap: square"/>
    </g>
    <g id="text_12">
     <!-- 0.0 -->
     <g transform="translate(219.764346 268.726703) scale(0.1 -0.1)">
      <use xlink:href="#DejaVuSans-30"/>
      <use xlink:href="#DejaVuSans-2e" x="63.623047"/>
      <use xlink:href="#DejaVuSans-30" x="95.410156"/>
     </g>
    </g>
   </g>
   <g id="xtick_12">
    <g id="line2d_14">
     <path d="M 225.370042 236.561447 
L 221.916895 237.962771 
" style="fill: none; stroke: #000000; stroke-width: 0.8; stroke-linecap: square"/>
    </g>
    <g id="text_13">
     <!-- 0.5 -->
     <g transform="translate(205.27863 259.700686) scale(0.1 -0.1)">
      <use xlink:href="#DejaVuSans-30"/>
      <use xlink:href="#DejaVuSans-2e" x="63.623047"/>
      <use xlink:href="#DejaVuSans-35" x="95.410156"/>
     </g>
    </g>
   </g>
   <g id="xtick_13">
    <g id="line2d_15">
     <path d="M 211.094568 227.904953 
L 207.653518 229.27747 
" style="fill: none; stroke: #000000; stroke-width: 0.8; stroke-linecap: square"/>
    </g>
    <g id="text_14">
     <!-- 1.0 -->
     <g transform="translate(191.092749 250.861495) scale(0.1 -0.1)">
      <use xlink:href="#DejaVuSans-31"/>
      <use xlink:href="#DejaVuSans-2e" x="63.623047"/>
      <use xlink:href="#DejaVuSans-30" x="95.410156"/>
     </g>
    </g>
   </g>
   <g id="xtick_14">
    <g id="line2d_16">
     <path d="M 197.110823 219.425359 
L 193.6821 220.769948 
" style="fill: none; stroke: #000000; stroke-width: 0.8; stroke-linecap: square"/>
    </g>
    <g id="text_15">
     <!-- 1.5 -->
     <g transform="translate(177.19749 242.203391) scale(0.1 -0.1)">
      <use xlink:href="#DejaVuSans-31"/>
      <use xlink:href="#DejaVuSans-2e" x="63.623047"/>
      <use xlink:href="#DejaVuSans-35" x="95.410156"/>
     </g>
    </g>
   </g>
   <g id="xtick_15">
    <g id="line2d_17">
     <path d="M 183.409953 211.117297 
L 179.993765 212.434803 
" style="fill: none; stroke: #000000; stroke-width: 0.8; stroke-linecap: square"/>
    </g>
    <g id="text_16">
     <!-- 2.0 -->
     <g transform="translate(163.584012 233.720864) scale(0.1 -0.1)">
      <use xlink:href="#DejaVuSans-32"/>
      <use xlink:href="#DejaVuSans-2e" x="63.623047"/>
      <use xlink:href="#DejaVuSans-30" x="95.410156"/>
     </g>
    </g>
   </g>
   <g id="text_17">
    <!-- Y-axis -->
    <g transform="translate(185.930853 264.369844) rotate(-328.732553) scale(0.1 -0.1)">
     <defs>
      <path id="DejaVuSans-59" d="M -13 4666 
L 666 4666 
L 1959 2747 
L 3244 4666 
L 3922 4666 
L 2272 2222 
L 2272 0 
L 1638 0 
L 1638 2222 
L -13 4666 
z
" transform="scale(0.015625)"/>
     </defs>
     <use xlink:href="#DejaVuSans-59"/>
     <use xlink:href="#DejaVuSans-2d" x="49.208984"/>
     <use xlink:href="#DejaVuSans-61" x="85.292969"/>
     <use xlink:href="#DejaVuSans-78" x="146.572266"/>
     <use xlink:href="#DejaVuSans-69" x="205.751953"/>
     <use xlink:href="#DejaVuSans-73" x="233.535156"/>
    </g>
   </g>
  </g>
  <g id="axis3d_3">
   <g id="line2d_18">
    <path d="M 171.813142 205.204768 
L 166.455609 68.44346 
" style="fill: none; stroke: #000000; stroke-width: 0.8; stroke-linecap: square"/>
   </g>
   <g id="xtick_16">
    <g id="line2d_19">
     <path d="M 172.710481 198.668045 
L 169.297057 199.957784 
" style="fill: none; stroke: #000000; stroke-width: 0.8; stroke-linecap: square"/>
    </g>
    <g id="text_18">
     <!-- −1.5 -->
     <g transform="translate(140.600996 206.198955) scale(0.1 -0.1)">
      <use xlink:href="#DejaVuSans-2212"/>
      <use xlink:href="#DejaVuSans-31" x="83.789062"/>
      <use xlink:href="#DejaVuSans-2e" x="147.412109"/>
      <use xlink:href="#DejaVuSans-35" x="179.199219"/>
     </g>
    </g>
   </g>
   <g id="xtick_17">
    <g id="line2d_20">
     <path d="M 171.934624 178.672882 
L 168.497887 179.938536 
" style="fill: none; stroke: #000000; stroke-width: 0.8; stroke-linecap: square"/>
    </g>
    <g id="text_19">
     <!-- −1.0 -->
     <g transform="translate(139.696404 186.205053) scale(0.1 -0.1)">
      <use xlink:href="#DejaVuSans-2212"/>
      <use xlink:href="#DejaVuSans-31" x="83.789062"/>
      <use xlink:href="#DejaVuSans-2e" x="147.412109"/>
      <use xlink:href="#DejaVuSans-30" x="179.199219"/>
     </g>
    </g>
   </g>
   <g id="xtick_18">
    <g id="line2d_21">
     <path d="M 171.148693 158.41807 
L 167.688322 159.658903 
" style="fill: none; stroke: #000000; stroke-width: 0.8; stroke-linecap: square"/>
    </g>
    <g id="text_20">
     <!-- −0.5 -->
     <g transform="translate(138.780067 165.951542) scale(0.1 -0.1)">
      <use xlink:href="#DejaVuSans-2212"/>
      <use xlink:href="#DejaVuSans-30" x="83.789062"/>
      <use xlink:href="#DejaVuSans-2e" x="147.412109"/>
      <use xlink:href="#DejaVuSans-35" x="179.199219"/>
     </g>
    </g>
   </g>
   <g id="xtick_19">
    <g id="line2d_22">
     <path d="M 170.352489 137.898519 
L 166.868159 139.113771 
" style="fill: none; stroke: #000000; stroke-width: 0.8; stroke-linecap: square"/>
    </g>
    <g id="text_21">
     <!-- 0.0 -->
     <g transform="translate(142.041597 145.433331) scale(0.1 -0.1)">
      <use xlink:href="#DejaVuSans-30"/>
      <use xlink:href="#DejaVuSans-2e" x="63.623047"/>
      <use xlink:href="#DejaVuSans-30" x="95.410156"/>
     </g>
    </g>
   </g>
   <g id="xtick_20">
    <g id="line2d_23">
     <path d="M 169.54581 117.109005 
L 166.037188 118.297893 
" style="fill: none; stroke: #000000; stroke-width: 0.8; stroke-linecap: square"/>
    </g>
    <g id="text_22">
     <!-- 0.5 -->
     <g transform="translate(141.101071 124.645197) scale(0.1 -0.1)">
      <use xlink:href="#DejaVuSans-30"/>
      <use xlink:href="#DejaVuSans-2e" x="63.623047"/>
      <use xlink:href="#DejaVuSans-35" x="95.410156"/>
     </g>
    </g>
   </g>
   <g id="xtick_21">
    <g id="line2d_24">
     <path d="M 168.728447 96.044164 
L 165.195193 97.205879 
" style="fill: none; stroke: #000000; stroke-width: 0.8; stroke-linecap: square"/>
    </g>
    <g id="text_23">
     <!-- 1.0 -->
     <g transform="translate(140.148091 103.58178) scale(0.1 -0.1)">
      <use xlink:href="#DejaVuSans-31"/>
      <use xlink:href="#DejaVuSans-2e" x="63.623047"/>
      <use xlink:href="#DejaVuSans-30" x="95.410156"/>
     </g>
    </g>
   </g>
   <g id="xtick_22">
    <g id="line2d_25">
     <path d="M 167.900188 74.698491 
L 164.341955 75.832201 
" style="fill: none; stroke: #000000; stroke-width: 0.8; stroke-linecap: square"/>
    </g>
    <g id="text_24">
     <!-- 1.5 -->
     <g transform="translate(139.182407 82.237574) scale(0.1 -0.1)">
      <use xlink:href="#DejaVuSans-31"/>
      <use xlink:href="#DejaVuSans-2e" x="63.623047"/>
      <use xlink:href="#DejaVuSans-35" x="95.410156"/>
     </g>
    </g>
   </g>
   <g id="text_25">
    <!-- Z-axis -->
    <g transform="translate(124.135356 122.246982) rotate(-272.243377) scale(0.1 -0.1)">
     <defs>
      <path id="DejaVuSans-5a" d="M 359 4666 
L 4025 4666 
L 4025 4184 
L 1075 531 
L 4097 531 
L 4097 0 
L 288 0 
L 288 481 
L 3238 4134 
L 359 4134 
L 359 4666 
z
" transform="scale(0.015625)"/>
     </defs>
     <use xlink:href="#DejaVuSans-5a"/>
     <use xlink:href="#DejaVuSans-2d" x="66.755859"/>
     <use xlink:href="#DejaVuSans-61" x="102.839844"/>
     <use xlink:href="#DejaVuSans-78" x="164.119141"/>
     <use xlink:href="#DejaVuSans-69" x="223.298828"/>
     <use xlink:href="#DejaVuSans-73" x="251.082031"/>
    </g>
   </g>
  </g>
  <g id="axes_1">
   <g id="line2d_26">
    <path d="M 336.151459 139.090887 
L 336.250032 139.938648 
L 336.568191 140.723057 
L 337.101707 141.417654 
L 337.843434 141.996334 
L 338.783329 142.43351 
L 339.908464 142.704274 
L 341.203044 142.784559 
L 342.648411 142.651302 
L 344.223052 142.282616 
L 345.902591 141.657975 
L 347.659783 140.7584 
L 349.464503 139.566683 
L 351.283724 138.067612 
L 353.081496 136.248245 
L 354.818924 134.098207 
L 356.45415 131.610032 
L 357.942343 128.779566 
L 359.235706 125.606423 
L 360.283509 122.094516 
L 361.032165 118.252679 
L 361.42537 114.09537 
L 361.470391 111.904673 
L 361.404318 109.643502 
L 361.219465 107.315633 
L 360.908041 104.925367 
L 360.462165 102.477569 
L 359.873898 99.977703 
L 359.135262 97.431873 
L 358.238276 94.846867 
L 357.174996 92.230193 
L 355.937551 89.59013 
L 354.5182 86.935768 
L 352.909386 84.277051 
L 351.103802 81.624826 
L 349.094464 78.990879 
L 346.874797 76.38798 
L 344.438727 73.829912 
L 341.78079 71.331504 
L 338.896245 68.90865 
L 335.781209 66.57832 
L 332.432793 64.35856 
L 328.849267 62.268467 
L 325.03022 60.328154 
L 320.976744 58.558682 
L 316.691625 56.981966 
L 312.179543 55.620643 
L 307.447278 54.497902 
L 302.503915 53.63726 
L 297.361053 53.062287 
L 292.032997 52.79627 
L 286.536935 52.861802 
L 280.89309 53.280301 
L 275.124828 54.07145 
L 269.258714 55.252545 
L 263.324505 56.837771 
L 257.355046 58.83739 
L 251.386078 61.256866 
L 245.455909 64.095927 
L 239.604964 67.347613 
L 233.875164 70.997319 
L 228.309165 75.021908 
L 222.949412 79.388945 
L 217.83706 84.056127 
L 213.01075 88.97102 
L 208.505306 94.071196 
L 204.350401 99.284886 
L 200.569287 104.532265 
L 197.177692 109.727444 
L 194.183006 114.781248 
L 191.583898 119.604743 
L 189.370479 124.113443 
L 187.525119 128.231977 
L 184.839041 135.071244 
L 183.302325 139.8737 
L 182.899686 141.536817 
L 182.717183 142.770635 
L 182.747864 143.64865 
L 182.994632 144.259498 
L 183.469937 144.700339 
L 185.194221 145.460335 
L 188.136638 146.614291 
L 192.508943 148.603467 
L 201.982814 153.38312 
L 210.178077 157.519472 
L 219.660184 162.03777 
L 224.797373 164.326342 
L 230.146167 166.577148 
L 235.66551 168.751795 
L 241.314333 170.816613 
L 247.052466 172.743052 
L 252.841352 174.507772 
L 258.644595 176.092516 
L 264.428345 177.483825 
L 270.161543 178.672645 
L 275.816063 179.653879 
L 281.366745 180.425909 
L 286.791371 180.990122 
L 292.070572 181.350448 
L 297.187708 181.51293 
L 302.128708 181.485329 
L 306.881904 181.276769 
L 311.437848 180.897418 
L 315.789126 180.358215 
L 319.930184 179.670628 
L 323.857143 178.846453 
L 327.567638 177.897638 
L 331.060652 176.836137 
L 334.336377 175.673795 
L 337.396064 174.422249 
L 340.241907 173.092845 
L 342.876922 171.696582 
L 345.304841 170.244059 
L 347.530016 168.745444 
L 349.557335 167.21044 
L 351.392144 165.648276 
L 353.040171 164.067689 
L 354.507472 162.476923 
L 355.800368 160.883726 
L 356.925399 159.295353 
L 357.889278 157.718576 
L 358.698849 156.159685 
L 359.361058 154.624508 
L 359.882912 153.118413 
L 360.271461 151.646326 
L 360.676882 148.821755 
L 360.633594 146.181868 
L 360.197157 143.751543 
L 359.421942 141.549912 
L 358.360751 139.590805 
L 357.064517 137.883171 
L 355.582061 136.431483 
L 353.959894 135.236124 
L 352.242062 134.293741 
L 350.47001 133.597594 
L 348.682481 133.137872 
L 346.915427 132.902003 
L 345.201941 132.874939 
L 343.572203 133.039432 
L 342.053435 133.376295 
L 340.669873 133.864652 
L 339.442745 134.482172 
L 338.390257 135.205297 
L 337.527591 136.009458 
L 336.866904 136.869281 
L 336.417339 137.758787 
L 336.185036 138.651578 
L 336.151459 139.090887 
L 336.151459 139.090887 
" clip-path="url(#pf49c673f3f)" style="fill: none; stroke: #1f77b4; stroke-width: 1.5; stroke-linecap: square"/>
   </g>
   <g id="line2d_27">
    <path d="M 341.270123 137.151135 
L 324.493885 142.429965 
" clip-path="url(#pf49c673f3f)" style="fill: none; stroke: #000000; stroke-width: 1.5; stroke-linecap: square"/>
    <defs>
     <path id="mf014188de0" d="M 0 1.5 
C 0.397805 1.5 0.77937 1.341951 1.06066 1.06066 
C 1.341951 0.77937 1.5 0.397805 1.5 0 
C 1.5 -0.397805 1.341951 -0.77937 1.06066 -1.06066 
C 0.77937 -1.341951 0.397805 -1.5 0 -1.5 
C -0.397805 -1.5 -0.77937 -1.341951 -1.06066 -1.06066 
C -1.341951 -0.77937 -1.5 -0.397805 -1.5 0 
C -1.5 0.397805 -1.341951 0.77937 -1.06066 1.06066 
C -0.77937 1.341951 -0.397805 1.5 0 1.5 
z
" style="stroke: #000000"/>
    </defs>
    <g clip-path="url(#pf49c673f3f)">
     <use xlink:href="#mf014188de0" x="341.270123" y="137.151135" style="stroke: #000000"/>
     <use xlink:href="#mf014188de0" x="324.493885" y="142.429965" style="stroke: #000000"/>
    </g>
   </g>
   <g id="line2d_28">
    <path d="M 324.493885 142.429965 
L 323.388296 136.437883 
" clip-path="url(#pf49c673f3f)" style="fill: none; stroke-dasharray: 9.6,2.4,1.5,2.4; stroke-dashoffset: 0; stroke: #000000; stroke-width: 1.5"/>
    <g clip-path="url(#pf49c673f3f)">
     <use xlink:href="#mf014188de0" x="324.493885" y="142.429965" style="stroke: #000000"/>
     <use xlink:href="#mf014188de0" x="323.388296" y="136.437883" style="stroke: #000000"/>
    </g>
   </g>
   <g id="line2d_29">
    <path d="M 323.388296 136.437883 
L 334.367046 131.611544 
" clip-path="url(#pf49c673f3f)" style="fill: none; stroke: #000000; stroke-width: 1.5; stroke-linecap: square"/>
    <g clip-path="url(#pf49c673f3f)">
     <use xlink:href="#mf014188de0" x="323.388296" y="136.437883" style="stroke: #000000"/>
     <use xlink:href="#mf014188de0" x="334.367046" y="131.611544" style="stroke: #000000"/>
    </g>
   </g>
   <g id="line2d_30">
    <path d="M 334.367046 131.611544 
L 347.420357 133.512903 
" clip-path="url(#pf49c673f3f)" style="fill: none; stroke-dasharray: 9.6,2.4,1.5,2.4; stroke-dashoffset: 0; stroke: #000000; stroke-width: 1.5"/>
    <g clip-path="url(#pf49c673f3f)">
     <use xlink:href="#mf014188de0" x="334.367046" y="131.611544" style="stroke: #000000"/>
     <use xlink:href="#mf014188de0" x="347.420357" y="133.512903" style="stroke: #000000"/>
    </g>
   </g>
   <g id="line2d_31">
    <path d="M 347.420357 133.512903 
L 388.446139 153.905595 
" clip-path="url(#pf49c673f3f)" style="fill: none; stroke: #000000; stroke-width: 1.5; stroke-linecap: square"/>
    <g clip-path="url(#pf49c673f3f)">
     <use xlink:href="#mf014188de0" x="347.420357" y="133.512903" style="stroke: #000000"/>
     <use xlink:href="#mf014188de0" x="388.446139" y="153.905595" style="stroke: #000000"/>
    </g>
   </g>
   <g id="line2d_32">
    <path d="M 388.446139 153.905595 
L 394.073635 148.38368 
" clip-path="url(#pf49c673f3f)" style="fill: none; stroke-dasharray: 9.6,2.4,1.5,2.4; stroke-dashoffset: 0; stroke: #000000; stroke-width: 1.5"/>
    <g clip-path="url(#pf49c673f3f)">
     <use xlink:href="#mf014188de0" x="388.446139" y="153.905595" style="stroke: #000000"/>
     <use xlink:href="#mf014188de0" x="394.073635" y="148.38368" style="stroke: #000000"/>
    </g>
   </g>
   <g id="line2d_33">
    <path d="M 394.073635 148.38368 
L 365.907905 125.94937 
" clip-path="url(#pf49c673f3f)" style="fill: none; stroke: #000000; stroke-width: 1.5; stroke-linecap: square"/>
    <g clip-path="url(#pf49c673f3f)">
     <use xlink:href="#mf014188de0" x="394.073635" y="148.38368" style="stroke: #000000"/>
     <use xlink:href="#mf014188de0" x="365.907905" y="125.94937" style="stroke: #000000"/>
    </g>
   </g>
   <g id="line2d_34">
    <path d="M 365.907905 125.94937 
L 362.471911 120.33961 
" clip-path="url(#pf49c673f3f)" style="fill: none; stroke-dasharray: 9.6,2.4,1.5,2.4; stroke-dashoffset: 0; stroke: #000000; stroke-width: 1.5"/>
    <g clip-path="url(#pf49c673f3f)">
     <use xlink:href="#mf014188de0" x="365.907905" y="125.94937" style="stroke: #000000"/>
     <use xlink:href="#mf014188de0" x="362.471911" y="120.33961" style="stroke: #000000"/>
    </g>
   </g>
   <g id="line2d_35">
    <path d="M 362.471911 120.33961 
L 279.982534 147.261537 
" clip-path="url(#pf49c673f3f)" style="fill: none; stroke: #000000; stroke-width: 1.5; stroke-linecap: square"/>
    <g clip-path="url(#pf49c673f3f)">
     <use xlink:href="#mf014188de0" x="362.471911" y="120.33961" style="stroke: #000000"/>
     <use xlink:href="#mf014188de0" x="279.982534" y="147.261537" style="stroke: #000000"/>
    </g>
   </g>
   <g id="line2d_36">
    <path d="M 279.982534 147.261537 
L 291.709001 150.583621 
" clip-path="url(#pf49c673f3f)" style="fill: none; stroke-dasharray: 9.6,2.4,1.5,2.4; stroke-dashoffset: 0; stroke: #000000; stroke-width: 1.5"/>
    <g clip-path="url(#pf49c673f3f)">
     <use xlink:href="#mf014188de0" x="279.982534" y="147.261537" style="stroke: #000000"/>
     <use xlink:href="#mf014188de0" x="291.709001" y="150.583621" style="stroke: #000000"/>
    </g>
   </g>
   <g id="line2d_37">
    <path d="M 291.709001 150.583621 
L 331.005858 141.040848 
" clip-path="url(#pf49c673f3f)" style="fill: none; stroke: #000000; stroke-width: 1.5; stroke-linecap: square"/>
    <g clip-path="url(#pf49c673f3f)">
     <use xlink:href="#mf014188de0" x="291.709001" y="150.583621" style="stroke: #000000"/>
     <use xlink:href="#mf014188de0" x="331.005858" y="141.040848" style="stroke: #000000"/>
    </g>
   </g>
   <g id="line2d_38">
    <path d="M 331.005858 141.040848 
L 341.270123 137.151135 
" clip-path="url(#pf49c673f3f)" style="fill: none; stroke-dasharray: 9.6,2.4,1.5,2.4; stroke-dashoffset: 0; stroke: #000000; stroke-width: 1.5"/>
    <g clip-path="url(#pf49c673f3f)">
     <use xlink:href="#mf014188de0" x="331.005858" y="141.040848" style="stroke: #000000"/>
     <use xlink:href="#mf014188de0" x="341.270123" y="137.151135" style="stroke: #000000"/>
    </g>
   </g>
   <g id="legend_1">
    <g id="patch_6">
     <path d="M 346.999563 26.134125 
L 423.848 26.134125 
Q 425.848 26.134125 425.848 24.134125 
L 425.848 10.456 
Q 425.848 8.456 423.848 8.456 
L 346.999563 8.456 
Q 344.999563 8.456 344.999563 10.456 
L 344.999563 24.134125 
Q 344.999563 26.134125 346.999563 26.134125 
z
" style="fill: #ffffff; opacity: 0.8; stroke: #cccccc; stroke-linejoin: miter"/>
    </g>
    <g id="line2d_39">
     <path d="M 348.999563 16.554438 
L 358.999563 16.554438 
L 368.999563 16.554438 
" style="fill: none; stroke: #1f77b4; stroke-width: 1.5; stroke-linecap: square"/>
    </g>
    <g id="text_26">
     <!-- tool path -->
     <g transform="translate(376.999563 20.054438) scale(0.1 -0.1)">
      <defs>
       <path id="DejaVuSans-74" d="M 1172 4494 
L 1172 3500 
L 2356 3500 
L 2356 3053 
L 1172 3053 
L 1172 1153 
Q 1172 725 1289 603 
Q 1406 481 1766 481 
L 2356 481 
L 2356 0 
L 1766 0 
Q 1100 0 847 248 
Q 594 497 594 1153 
L 594 3053 
L 172 3053 
L 172 3500 
L 594 3500 
L 594 4494 
L 1172 4494 
z
" transform="scale(0.015625)"/>
       <path id="DejaVuSans-6f" d="M 1959 3097 
Q 1497 3097 1228 2736 
Q 959 2375 959 1747 
Q 959 1119 1226 758 
Q 1494 397 1959 397 
Q 2419 397 2687 759 
Q 2956 1122 2956 1747 
Q 2956 2369 2687 2733 
Q 2419 3097 1959 3097 
z
M 1959 3584 
Q 2709 3584 3137 3096 
Q 3566 2609 3566 1747 
Q 3566 888 3137 398 
Q 2709 -91 1959 -91 
Q 1206 -91 779 398 
Q 353 888 353 1747 
Q 353 2609 779 3096 
Q 1206 3584 1959 3584 
z
" transform="scale(0.015625)"/>
       <path id="DejaVuSans-6c" d="M 603 4863 
L 1178 4863 
L 1178 0 
L 603 0 
L 603 4863 
z
" transform="scale(0.015625)"/>
       <path id="DejaVuSans-20" transform="scale(0.015625)"/>
       <path id="DejaVuSans-70" d="M 1159 525 
L 1159 -1331 
L 581 -1331 
L 581 3500 
L 1159 3500 
L 1159 2969 
Q 1341 3281 1617 3432 
Q 1894 3584 2278 3584 
Q 2916 3584 3314 3078 
Q 3713 2572 3713 1747 
Q 3713 922 3314 415 
Q 2916 -91 2278 -91 
Q 1894 -91 1617 61 
Q 1341 213 1159 525 
z
M 3116 1747 
Q 3116 2381 2855 2742 
Q 2594 3103 2138 3103 
Q 1681 3103 1420 2742 
Q 1159 2381 1159 1747 
Q 1159 1113 1420 752 
Q 1681 391 2138 391 
Q 2594 391 2855 752 
Q 3116 1113 3116 1747 
z
" transform="scale(0.015625)"/>
       <path id="DejaVuSans-68" d="M 3513 2113 
L 3513 0 
L 2938 0 
L 2938 2094 
Q 2938 2591 2744 2837 
Q 2550 3084 2163 3084 
Q 1697 3084 1428 2787 
Q 1159 2491 1159 1978 
L 1159 0 
L 581 0 
L 581 4863 
L 1159 4863 
L 1159 2956 
Q 1366 3272 1645 3428 
Q 1925 3584 2291 3584 
Q 2894 3584 3203 3211 
Q 3513 2838 3513 2113 
z
" transform="scale(0.015625)"/>
      </defs>
      <use xlink:href="#DejaVuSans-74"/>
      <use xlink:href="#DejaVuSans-6f" x="39.208984"/>
      <use xlink:href="#DejaVuSans-6f" x="100.390625"/>
      <use xlink:href="#DejaVuSans-6c" x="161.572266"/>
      <use xlink:href="#DejaVuSans-20" x="189.355469"/>
      <use xlink:href="#DejaVuSans-70" x="221.142578"/>
      <use xlink:href="#DejaVuSans-61" x="284.619141"/>
      <use xlink:href="#DejaVuSans-74" x="345.898438"/>
      <use xlink:href="#DejaVuSans-68" x="385.107422"/>
     </g>
    </g>
   </g>
  </g>
  <g id="axes_2">
   <g id="patch_7">
    <path d="M 138.24 337.824 
L 368.64 337.824 
L 368.64 329.184 
L 138.24 329.184 
z
" clip-path="url(#pf07812e3d5)" style="fill: #d3d3d3"/>
   </g>
   <g id="patch_8">
    <path d="M 138.24 337.824 
L 138.24 329.184 
L 138.24 329.184 
z
" clip-path="url(#pf07812e3d5)" style="fill: #1f77b4"/>
   </g>
   <g id="line2d_40">
    <path d="M 138.24 342.144 
L 138.24 324.864 
" clip-path="url(#p6c7e079a24)" style="fill: none; stroke: #ff0000; stroke-linecap: square"/>
   </g>
   <g id="line2d_41">
    <defs>
     <path id="m054008a80a" d="M 0 5 
C 1.326016 5 2.597899 4.473168 3.535534 3.535534 
C 4.473168 2.597899 5 1.326016 5 0 
C 5 -1.326016 4.473168 -2.597899 3.535534 -3.535534 
C 2.597899 -4.473168 1.326016 -5 0 -5 
C -1.326016 -5 -2.597899 -4.473168 -3.535534 -3.535534 
C -4.473168 -2.597899 -5 -1.326016 -5 0 
C -5 1.326016 -4.473168 2.597899 -3.535534 3.535534 
C -2.597899 4.473168 -1.326016 5 0 5 
z
" style="stroke: #bfbfbf"/>
    </defs>
    <g>
     <use xlink:href="#m054008a80a" x="138.24" y="333.504" style="fill: #ffffff; stroke: #bfbfbf"/>
    </g>
   </g>
   <g id="text_27">
    <!-- Joint angle [rad]:  -->
    <g transform="translate(46.48825 336.263375) scale(0.1 -0.1)">
     <defs>
      <path id="DejaVuSans-4a" d="M 628 4666 
L 1259 4666 
L 1259 325 
Q 1259 -519 939 -900 
Q 619 -1281 -91 -1281 
L -331 -1281 
L -331 -750 
L -134 -750 
Q 284 -750 456 -515 
Q 628 -281 628 325 
L 628 4666 
z
" transform="scale(0.015625)"/>
      <path id="DejaVuSans-6e" d="M 3513 2113 
L 3513 0 
L 2938 0 
L 2938 2094 
Q 2938 2591 2744 2837 
Q 2550 3084 2163 3084 
Q 1697 3084 1428 2787 
Q 1159 2491 1159 1978 
L 1159 0 
L 581 0 
L 581 3500 
L 1159 3500 
L 1159 2956 
Q 1366 3272 1645 3428 
Q 1925 3584 2291 3584 
Q 2894 3584 3203 3211 
Q 3513 2838 3513 2113 
z
" transform="scale(0.015625)"/>
      <path id="DejaVuSans-67" d="M 2906 1791 
Q 2906 2416 2648 2759 
Q 2391 3103 1925 3103 
Q 1463 3103 1205 2759 
Q 947 2416 947 1791 
Q 947 1169 1205 825 
Q 1463 481 1925 481 
Q 2391 481 2648 825 
Q 2906 1169 2906 1791 
z
M 3481 434 
Q 3481 -459 3084 -895 
Q 2688 -1331 1869 -1331 
Q 1566 -1331 1297 -1286 
Q 1028 -1241 775 -1147 
L 775 -588 
Q 1028 -725 1275 -790 
Q 1522 -856 1778 -856 
Q 2344 -856 2625 -561 
Q 2906 -266 2906 331 
L 2906 616 
Q 2728 306 2450 153 
Q 2172 0 1784 0 
Q 1141 0 747 490 
Q 353 981 353 1791 
Q 353 2603 747 3093 
Q 1141 3584 1784 3584 
Q 2172 3584 2450 3431 
Q 2728 3278 2906 2969 
L 2906 3500 
L 3481 3500 
L 3481 434 
z
" transform="scale(0.015625)"/>
      <path id="DejaVuSans-65" d="M 3597 1894 
L 3597 1613 
L 953 1613 
Q 991 1019 1311 708 
Q 1631 397 2203 397 
Q 2534 397 2845 478 
Q 3156 559 3463 722 
L 3463 178 
Q 3153 47 2828 -22 
Q 2503 -91 2169 -91 
Q 1331 -91 842 396 
Q 353 884 353 1716 
Q 353 2575 817 3079 
Q 1281 3584 2069 3584 
Q 2775 3584 3186 3129 
Q 3597 2675 3597 1894 
z
M 3022 2063 
Q 3016 2534 2758 2815 
Q 2500 3097 2075 3097 
Q 1594 3097 1305 2825 
Q 1016 2553 972 2059 
L 3022 2063 
z
" transform="scale(0.015625)"/>
      <path id="DejaVuSans-5b" d="M 550 4863 
L 1875 4863 
L 1875 4416 
L 1125 4416 
L 1125 -397 
L 1875 -397 
L 1875 -844 
L 550 -844 
L 550 4863 
z
" transform="scale(0.015625)"/>
      <path id="DejaVuSans-72" d="M 2631 2963 
Q 2534 3019 2420 3045 
Q 2306 3072 2169 3072 
Q 1681 3072 1420 2755 
Q 1159 2438 1159 1844 
L 1159 0 
L 581 0 
L 581 3500 
L 1159 3500 
L 1159 2956 
Q 1341 3275 1631 3429 
Q 1922 3584 2338 3584 
Q 2397 3584 2469 3576 
Q 2541 3569 2628 3553 
L 2631 2963 
z
" transform="scale(0.015625)"/>
      <path id="DejaVuSans-64" d="M 2906 2969 
L 2906 4863 
L 3481 4863 
L 3481 0 
L 2906 0 
L 2906 525 
Q 2725 213 2448 61 
Q 2172 -91 1784 -91 
Q 1150 -91 751 415 
Q 353 922 353 1747 
Q 353 2572 751 3078 
Q 1150 3584 1784 3584 
Q 2172 3584 2448 3432 
Q 2725 3281 2906 2969 
z
M 947 1747 
Q 947 1113 1208 752 
Q 1469 391 1925 391 
Q 2381 391 2643 752 
Q 2906 1113 2906 1747 
Q 2906 2381 2643 2742 
Q 2381 3103 1925 3103 
Q 1469 3103 1208 2742 
Q 947 2381 947 1747 
z
" transform="scale(0.015625)"/>
      <path id="DejaVuSans-5d" d="M 1947 4863 
L 1947 -844 
L 622 -844 
L 622 -397 
L 1369 -397 
L 1369 4416 
L 622 4416 
L 622 4863 
L 1947 4863 
z
" transform="scale(0.015625)"/>
      <path id="DejaVuSans-3a" d="M 750 794 
L 1409 794 
L 1409 0 
L 750 0 
L 750 794 
z
M 750 3309 
L 1409 3309 
L 1409 2516 
L 750 2516 
L 750 3309 
z
" transform="scale(0.015625)"/>
     </defs>
     <use xlink:href="#DejaVuSans-4a"/>
     <use xlink:href="#DejaVuSans-6f" x="29.492188"/>
     <use xlink:href="#DejaVuSans-69" x="90.673828"/>
     <use xlink:href="#DejaVuSans-6e" x="118.457031"/>
     <use xlink:href="#DejaVuSans-74" x="181.835938"/>
     <use xlink:href="#DejaVuSans-20" x="221.044922"/>
     <use xlink:href="#DejaVuSans-61" x="252.832031"/>
     <use xlink:href="#DejaVuSans-6e" x="314.111328"/>
     <use xlink:href="#DejaVuSans-67" x="377.490234"/>
     <use xlink:href="#DejaVuSans-6c" x="440.966797"/>
     <use xlink:href="#DejaVuSans-65" x="468.75"/>
     <use xlink:href="#DejaVuSans-20" x="530.273438"/>
     <use xlink:href="#DejaVuSans-5b" x="562.060547"/>
     <use xlink:href="#DejaVuSans-72" x="601.074219"/>
     <use xlink:href="#DejaVuSans-61" x="642.1875"/>
     <use xlink:href="#DejaVuSans-64" x="703.466797"/>
     <use xlink:href="#DejaVuSans-5d" x="766.943359"/>
     <use xlink:href="#DejaVuSans-3a" x="805.957031"/>
     <use xlink:href="#DejaVuSans-20" x="839.648438"/>
    </g>
   </g>
   <g id="text_28">
    <!-- $\mathdefault{0.000}$ -->
    <g transform="translate(373.248 336.263375) scale(0.1 -0.1)">
     <use xlink:href="#DejaVuSans-30" transform="translate(0 0.78125)"/>
     <use xlink:href="#DejaVuSans-2e" transform="translate(63.623047 0.78125)"/>
     <use xlink:href="#DejaVuSans-30" transform="translate(95.410156 0.78125)"/>
     <use xlink:href="#DejaVuSans-30" transform="translate(159.033203 0.78125)"/>
     <use xlink:href="#DejaVuSans-30" transform="translate(222.65625 0.78125)"/>
    </g>
   </g>
  </g>
  <g id="axes_3">
   <g id="patch_9">
    <path d="M 138.24 326.592 
L 207.36 326.592 
L 207.36 309.312 
L 138.24 309.312 
z
" style="fill: #f2f2f2"/>
   </g>
   <g id="matplotlib.axis_1"/>
   <g id="matplotlib.axis_2"/>
   <g id="patch_10">
    <path d="M 138.24 326.592 
L 138.24 309.312 
" style="fill: none; stroke: #000000; stroke-width: 0.8; stroke-linejoin: miter; stroke-linecap: square"/>
   </g>
   <g id="patch_11">
    <path d="M 207.36 326.592 
L 207.36 309.312 
" style="fill: none; stroke: #000000; stroke-width: 0.8; stroke-linejoin: miter; stroke-linecap: square"/>
   </g>
   <g id="patch_12">
    <path d="M 138.24 326.592 
L 207.36 326.592 
" style="fill: none; stroke: #000000; stroke-width: 0.8; stroke-linejoin: miter; stroke-linecap: square"/>
   </g>
   <g id="patch_13">
    <path d="M 138.24 309.312 
L 207.36 309.312 
" style="fill: none; stroke: #000000; stroke-width: 0.8; stroke-linejoin: miter; stroke-linecap: square"/>
   </g>
   <g id="text_29">
    <!-- Set angle [rad]:  -->
    <g transform="translate(56.087862 320.711375) scale(0.1 -0.1)">
     <defs>
      <path id="DejaVuSans-53" d="M 3425 4513 
L 3425 3897 
Q 3066 4069 2747 4153 
Q 2428 4238 2131 4238 
Q 1616 4238 1336 4038 
Q 1056 3838 1056 3469 
Q 1056 3159 1242 3001 
Q 1428 2844 1947 2747 
L 2328 2669 
Q 3034 2534 3370 2195 
Q 3706 1856 3706 1288 
Q 3706 609 3251 259 
Q 2797 -91 1919 -91 
Q 1588 -91 1214 -16 
Q 841 59 441 206 
L 441 856 
Q 825 641 1194 531 
Q 1563 422 1919 422 
Q 2459 422 2753 634 
Q 3047 847 3047 1241 
Q 3047 1584 2836 1778 
Q 2625 1972 2144 2069 
L 1759 2144 
Q 1053 2284 737 2584 
Q 422 2884 422 3419 
Q 422 4038 858 4394 
Q 1294 4750 2059 4750 
Q 2388 4750 2728 4690 
Q 3069 4631 3425 4513 
z
" transform="scale(0.015625)"/>
     </defs>
     <use xlink:href="#DejaVuSans-53"/>
     <use xlink:href="#DejaVuSans-65" x="63.476562"/>
     <use xlink:href="#DejaVuSans-74" x="125"/>
     <use xlink:href="#DejaVuSans-20" x="164.208984"/>
     <use xlink:href="#DejaVuSans-61" x="195.996094"/>
     <use xlink:href="#DejaVuSans-6e" x="257.275391"/>
     <use xlink:href="#DejaVuSans-67" x="320.654297"/>
     <use xlink:href="#DejaVuSans-6c" x="384.130859"/>
     <use xlink:href="#DejaVuSans-65" x="411.914062"/>
     <use xlink:href="#DejaVuSans-20" x="473.4375"/>
     <use xlink:href="#DejaVuSans-5b" x="505.224609"/>
     <use xlink:href="#DejaVuSans-72" x="544.238281"/>
     <use xlink:href="#DejaVuSans-61" x="585.351562"/>
     <use xlink:href="#DejaVuSans-64" x="646.630859"/>
     <use xlink:href="#DejaVuSans-5d" x="710.107422"/>
     <use xlink:href="#DejaVuSans-3a" x="749.121094"/>
     <use xlink:href="#DejaVuSans-20" x="782.8125"/>
    </g>
   </g>
  </g>
  <g id="axes_4">
   <g id="patch_14">
    <path d="M 138.24 307.584 
L 207.36 307.584 
L 207.36 290.304 
L 138.24 290.304 
z
" style="fill: #f2f2f2"/>
   </g>
   <g id="matplotlib.axis_3"/>
   <g id="matplotlib.axis_4"/>
   <g id="patch_15">
    <path d="M 138.24 307.584 
L 138.24 290.304 
" style="fill: none; stroke: #000000; stroke-width: 0.8; stroke-linejoin: miter; stroke-linecap: square"/>
   </g>
   <g id="patch_16">
    <path d="M 207.36 307.584 
L 207.36 290.304 
" style="fill: none; stroke: #000000; stroke-width: 0.8; stroke-linejoin: miter; stroke-linecap: square"/>
   </g>
   <g id="patch_17">
    <path d="M 138.24 307.584 
L 207.36 307.584 
" style="fill: none; stroke: #000000; stroke-width: 0.8; stroke-linejoin: miter; stroke-linecap: square"/>
   </g>
   <g id="patch_18">
    <path d="M 138.24 290.304 
L 207.36 290.304 
" style="fill: none; stroke: #000000; stroke-width: 0.8; stroke-linejoin: miter; stroke-linecap: square"/>
   </g>
   <g id="text_30">
    <!-- Set param t [-]:  -->
    <g transform="translate(57.258175 301.703375) scale(0.1 -0.1)">
     <defs>
      <path id="DejaVuSans-6d" d="M 3328 2828 
Q 3544 3216 3844 3400 
Q 4144 3584 4550 3584 
Q 5097 3584 5394 3201 
Q 5691 2819 5691 2113 
L 5691 0 
L 5113 0 
L 5113 2094 
Q 5113 2597 4934 2840 
Q 4756 3084 4391 3084 
Q 3944 3084 3684 2787 
Q 3425 2491 3425 1978 
L 3425 0 
L 2847 0 
L 2847 2094 
Q 2847 2600 2669 2842 
Q 2491 3084 2119 3084 
Q 1678 3084 1418 2786 
Q 1159 2488 1159 1978 
L 1159 0 
L 581 0 
L 581 3500 
L 1159 3500 
L 1159 2956 
Q 1356 3278 1631 3431 
Q 1906 3584 2284 3584 
Q 2666 3584 2933 3390 
Q 3200 3197 3328 2828 
z
" transform="scale(0.015625)"/>
     </defs>
     <use xlink:href="#DejaVuSans-53"/>
     <use xlink:href="#DejaVuSans-65" x="63.476562"/>
     <use xlink:href="#DejaVuSans-74" x="125"/>
     <use xlink:href="#DejaVuSans-20" x="164.208984"/>
     <use xlink:href="#DejaVuSans-70" x="195.996094"/>
     <use xlink:href="#DejaVuSans-61" x="259.472656"/>
     <use xlink:href="#DejaVuSans-72" x="320.751953"/>
     <use xlink:href="#DejaVuSans-61" x="361.865234"/>
     <use xlink:href="#DejaVuSans-6d" x="423.144531"/>
     <use xlink:href="#DejaVuSans-20" x="520.556641"/>
     <use xlink:href="#DejaVuSans-74" x="552.34375"/>
     <use xlink:href="#DejaVuSans-20" x="591.552734"/>
     <use xlink:href="#DejaVuSans-5b" x="623.339844"/>
     <use xlink:href="#DejaVuSans-2d" x="662.353516"/>
     <use xlink:href="#DejaVuSans-5d" x="698.4375"/>
     <use xlink:href="#DejaVuSans-3a" x="737.451172"/>
     <use xlink:href="#DejaVuSans-20" x="771.142578"/>
    </g>
   </g>
  </g>
  <g id="axes_5">
   <g id="patch_19">
    <path d="M 138.24 288.576 
L 207.36 288.576 
L 207.36 271.296 
L 138.24 271.296 
z
" style="fill: #f2f2f2"/>
   </g>
   <g id="matplotlib.axis_5"/>
   <g id="matplotlib.axis_6"/>
   <g id="patch_20">
    <path d="M 138.24 288.576 
L 138.24 271.296 
" style="fill: none; stroke: #000000; stroke-width: 0.8; stroke-linejoin: miter; stroke-linecap: square"/>
   </g>
   <g id="patch_21">
    <path d="M 207.36 288.576 
L 207.36 271.296 
" style="fill: none; stroke: #000000; stroke-width: 0.8; stroke-linejoin: miter; stroke-linecap: square"/>
   </g>
   <g id="patch_22">
    <path d="M 138.24 288.576 
L 207.36 288.576 
" style="fill: none; stroke: #000000; stroke-width: 0.8; stroke-linejoin: miter; stroke-linecap: square"/>
   </g>
   <g id="patch_23">
    <path d="M 138.24 271.296 
L 207.36 271.296 
" style="fill: none; stroke: #000000; stroke-width: 0.8; stroke-linejoin: miter; stroke-linecap: square"/>
   </g>
   <g id="text_31">
    <!-- Save with filename:  -->
    <g transform="translate(35.294112 282.695375) scale(0.1 -0.1)">
     <defs>
      <path id="DejaVuSans-76" d="M 191 3500 
L 800 3500 
L 1894 563 
L 2988 3500 
L 3597 3500 
L 2284 0 
L 1503 0 
L 191 3500 
z
" transform="scale(0.015625)"/>
      <path id="DejaVuSans-77" d="M 269 3500 
L 844 3500 
L 1563 769 
L 2278 3500 
L 2956 3500 
L 3675 769 
L 4391 3500 
L 4966 3500 
L 4050 0 
L 3372 0 
L 2619 2869 
L 1863 0 
L 1184 0 
L 269 3500 
z
" transform="scale(0.015625)"/>
      <path id="DejaVuSans-66" d="M 2375 4863 
L 2375 4384 
L 1825 4384 
Q 1516 4384 1395 4259 
Q 1275 4134 1275 3809 
L 1275 3500 
L 2222 3500 
L 2222 3053 
L 1275 3053 
L 1275 0 
L 697 0 
L 697 3053 
L 147 3053 
L 147 3500 
L 697 3500 
L 697 3744 
Q 697 4328 969 4595 
Q 1241 4863 1831 4863 
L 2375 4863 
z
" transform="scale(0.015625)"/>
     </defs>
     <use xlink:href="#DejaVuSans-53"/>
     <use xlink:href="#DejaVuSans-61" x="63.476562"/>
     <use xlink:href="#DejaVuSans-76" x="124.755859"/>
     <use xlink:href="#DejaVuSans-65" x="183.935547"/>
     <use xlink:href="#DejaVuSans-20" x="245.458984"/>
     <use xlink:href="#DejaVuSans-77" x="277.246094"/>
     <use xlink:href="#DejaVuSans-69" x="359.033203"/>
     <use xlink:href="#DejaVuSans-74" x="386.816406"/>
     <use xlink:href="#DejaVuSans-68" x="426.025391"/>
     <use xlink:href="#DejaVuSans-20" x="489.404297"/>
     <use xlink:href="#DejaVuSans-66" x="521.191406"/>
     <use xlink:href="#DejaVuSans-69" x="556.396484"/>
     <use xlink:href="#DejaVuSans-6c" x="584.179688"/>
     <use xlink:href="#DejaVuSans-65" x="611.962891"/>
     <use xlink:href="#DejaVuSans-6e" x="673.486328"/>
     <use xlink:href="#DejaVuSans-61" x="736.865234"/>
     <use xlink:href="#DejaVuSans-6d" x="798.144531"/>
     <use xlink:href="#DejaVuSans-65" x="895.556641"/>
     <use xlink:href="#DejaVuSans-3a" x="957.080078"/>
     <use xlink:href="#DejaVuSans-20" x="990.771484"/>
    </g>
   </g>
  </g>
  <g id="axes_6">
   <g id="patch_24">
    <path d="M 16.416 259.2 
L 21.6 259.2 
L 21.6 41.472 
L 16.416 41.472 
z
" clip-path="url(#p1d37d669e3)" style="fill: #d3d3d3"/>
   </g>
   <g id="patch_25">
    <path d="M 16.416 259.2 
L 16.416 155.7792 
L 21.6 155.7792 
L 21.6 259.2 
z
" clip-path="url(#p1d37d669e3)" style="fill: #1f77b4"/>
   </g>
   <g id="line2d_42">
    <path d="M 13.824 150.336 
L 24.192 150.336 
" clip-path="url(#p42459d436b)" style="fill: none; stroke: #ff0000; stroke-linecap: square"/>
   </g>
   <g id="line2d_43">
    <g>
     <use xlink:href="#m054008a80a" x="19.008" y="155.7792" style="fill: #ffffff; stroke: #bfbfbf"/>
    </g>
   </g>
   <g id="text_32">
    <!-- j0 -->
    <g transform="translate(14.437687 35.037753) scale(0.1 -0.1)">
     <defs>
      <path id="DejaVuSans-6a" d="M 603 3500 
L 1178 3500 
L 1178 -63 
Q 1178 -731 923 -1031 
Q 669 -1331 103 -1331 
L -116 -1331 
L -116 -844 
L 38 -844 
Q 366 -844 484 -692 
Q 603 -541 603 -63 
L 603 3500 
z
M 603 4863 
L 1178 4863 
L 1178 4134 
L 603 4134 
L 603 4863 
z
" transform="scale(0.015625)"/>
     </defs>
     <use xlink:href="#DejaVuSans-6a"/>
     <use xlink:href="#DejaVuSans-30" x="27.783203"/>
    </g>
   </g>
   <g id="text_33">
    <!-- $\mathdefault{−0.15}$ -->
    <g transform="translate(3.658 271.152997) scale(0.1 -0.1)">
     <use xlink:href="#DejaVuSans-2212" transform="translate(0 0.78125)"/>
     <use xlink:href="#DejaVuSans-30" transform="translate(83.789062 0.78125)"/>
     <use xlink:href="#DejaVuSans-2e" transform="translate(147.412109 0.78125)"/>
     <use xlink:href="#DejaVuSans-31" transform="translate(179.199219 0.78125)"/>
     <use xlink:href="#DejaVuSans-35" transform="translate(242.822266 0.78125)"/>
    </g>
   </g>
  </g>
  <g id="axes_7">
   <g id="patch_26">
    <path d="M 23.328 259.2 
L 28.512 259.2 
L 28.512 41.472 
L 23.328 41.472 
z
" clip-path="url(#p9faa079110)" style="fill: #d3d3d3"/>
   </g>
   <g id="patch_27">
    <path d="M 23.328 259.2 
L 23.328 144.8928 
L 28.512 144.8928 
L 28.512 259.2 
z
" clip-path="url(#p9faa079110)" style="fill: #1f77b4"/>
   </g>
   <g id="line2d_44">
    <path d="M 20.736 150.336 
L 31.104 150.336 
" clip-path="url(#pb908e61980)" style="fill: none; stroke: #ff0000; stroke-linecap: square"/>
   </g>
   <g id="line2d_45">
    <g>
     <use xlink:href="#m054008a80a" x="25.92" y="144.8928" style="fill: #ffffff; stroke: #bfbfbf"/>
    </g>
   </g>
   <g id="text_34">
    <!-- $\mathdefault{0.15}$ -->
    <g transform="translate(14.77 271.152997) scale(0.1 -0.1)">
     <use xlink:href="#DejaVuSans-30" transform="translate(0 0.78125)"/>
     <use xlink:href="#DejaVuSans-2e" transform="translate(63.623047 0.78125)"/>
     <use xlink:href="#DejaVuSans-31" transform="translate(95.410156 0.78125)"/>
     <use xlink:href="#DejaVuSans-35" transform="translate(159.033203 0.78125)"/>
    </g>
   </g>
  </g>
  <g id="axes_8">
   <g id="patch_28">
    <path d="M 34.848 259.2 
L 40.032 259.2 
L 40.032 41.472 
L 34.848 41.472 
z
" clip-path="url(#p19bb1a509c)" style="fill: #d3d3d3"/>
   </g>
   <g id="patch_29">
    <path d="M 34.848 259.2 
L 34.848 144.8928 
L 40.032 144.8928 
L 40.032 259.2 
z
" clip-path="url(#p19bb1a509c)" style="fill: #1f77b4"/>
   </g>
   <g id="line2d_46">
    <path d="M 32.256 150.336 
L 42.624 150.336 
" clip-path="url(#p844fc2440e)" style="fill: none; stroke: #ff0000; stroke-linecap: square"/>
   </g>
   <g id="line2d_47">
    <g>
     <use xlink:href="#m054008a80a" x="37.44" y="144.8928" style="fill: #ffffff; stroke: #bfbfbf"/>
    </g>
   </g>
   <g id="text_35">
    <!-- j1 -->
    <g transform="translate(32.869688 35.037753) scale(0.1 -0.1)">
     <use xlink:href="#DejaVuSans-6a"/>
     <use xlink:href="#DejaVuSans-31" x="27.783203"/>
    </g>
   </g>
   <g id="text_36">
    <!-- $\mathdefault{0.15}$ -->
    <g transform="translate(26.29 271.152997) scale(0.1 -0.1)">
     <use xlink:href="#DejaVuSans-30" transform="translate(0 0.78125)"/>
     <use xlink:href="#DejaVuSans-2e" transform="translate(63.623047 0.78125)"/>
     <use xlink:href="#DejaVuSans-31" transform="translate(95.410156 0.78125)"/>
     <use xlink:href="#DejaVuSans-35" transform="translate(159.033203 0.78125)"/>
    </g>
   </g>
  </g>
  <g id="axes_9">
   <g id="patch_30">
    <path d="M 41.76 259.2 
L 46.944 259.2 
L 46.944 41.472 
L 41.76 41.472 
z
" clip-path="url(#p2d2716fa8f)" style="fill: #d3d3d3"/>
   </g>
   <g id="patch_31">
    <path d="M 41.76 259.2 
L 41.76 155.7792 
L 46.944 155.7792 
L 46.944 259.2 
z
" clip-path="url(#p2d2716fa8f)" style="fill: #1f77b4"/>
   </g>
   <g id="line2d_48">
    <path d="M 39.168 150.336 
L 49.536 150.336 
" clip-path="url(#p3ef9c007a2)" style="fill: none; stroke: #ff0000; stroke-linecap: square"/>
   </g>
   <g id="line2d_49">
    <g>
     <use xlink:href="#m054008a80a" x="44.352" y="155.7792" style="fill: #ffffff; stroke: #bfbfbf"/>
    </g>
   </g>
   <g id="text_37">
    <!-- $\mathdefault{−0.15}$ -->
    <g transform="translate(29.002 271.152997) scale(0.1 -0.1)">
     <use xlink:href="#DejaVuSans-2212" transform="translate(0 0.78125)"/>
     <use xlink:href="#DejaVuSans-30" transform="translate(83.789062 0.78125)"/>
     <use xlink:href="#DejaVuSans-2e" transform="translate(147.412109 0.78125)"/>
     <use xlink:href="#DejaVuSans-31" transform="translate(179.199219 0.78125)"/>
     <use xlink:href="#DejaVuSans-35" transform="translate(242.822266 0.78125)"/>
    </g>
   </g>
  </g>
  <g id="axes_10">
   <g id="patch_32">
    <path d="M 53.28 259.2 
L 58.464 259.2 
L 58.464 41.472 
L 53.28 41.472 
z
" clip-path="url(#pd369ed023f)" style="fill: #d3d3d3"/>
   </g>
   <g id="patch_33">
    <path d="M 53.28 259.2 
L 53.28 155.7792 
L 58.464 155.7792 
L 58.464 259.2 
z
" clip-path="url(#pd369ed023f)" style="fill: #1f77b4"/>
   </g>
   <g id="line2d_50">
    <path d="M 50.688 150.336 
L 61.056 150.336 
" clip-path="url(#p6ff5333499)" style="fill: none; stroke: #ff0000; stroke-linecap: square"/>
   </g>
   <g id="line2d_51">
    <g>
     <use xlink:href="#m054008a80a" x="55.872" y="155.7792" style="fill: #ffffff; stroke: #bfbfbf"/>
    </g>
   </g>
   <g id="text_38">
    <!-- j2 -->
    <g transform="translate(51.301687 35.037753) scale(0.1 -0.1)">
     <use xlink:href="#DejaVuSans-6a"/>
     <use xlink:href="#DejaVuSans-32" x="27.783203"/>
    </g>
   </g>
   <g id="text_39">
    <!-- $\mathdefault{−0.15}$ -->
    <g transform="translate(40.522 271.152997) scale(0.1 -0.1)">
     <use xlink:href="#DejaVuSans-2212" transform="translate(0 0.78125)"/>
     <use xlink:href="#DejaVuSans-30" transform="translate(83.789062 0.78125)"/>
     <use xlink:href="#DejaVuSans-2e" transform="translate(147.412109 0.78125)"/>
     <use xlink:href="#DejaVuSans-31" transform="translate(179.199219 0.78125)"/>
     <use xlink:href="#DejaVuSans-35" transform="translate(242.822266 0.78125)"/>
    </g>
   </g>
  </g>
  <g id="axes_11">
   <g id="patch_34">
    <path d="M 60.192 259.2 
L 65.376 259.2 
L 65.376 41.472 
L 60.192 41.472 
z
" clip-path="url(#pbd3fe5fbe2)" style="fill: #d3d3d3"/>
   </g>
   <g id="patch_35">
    <path d="M 60.192 259.2 
L 60.192 144.8928 
L 65.376 144.8928 
L 65.376 259.2 
z
" clip-path="url(#pbd3fe5fbe2)" style="fill: #1f77b4"/>
   </g>
   <g id="line2d_52">
    <path d="M 57.6 150.336 
L 67.968 150.336 
" clip-path="url(#p8a48233992)" style="fill: none; stroke: #ff0000; stroke-linecap: square"/>
   </g>
   <g id="line2d_53">
    <g>
     <use xlink:href="#m054008a80a" x="62.784" y="144.8928" style="fill: #ffffff; stroke: #bfbfbf"/>
    </g>
   </g>
   <g id="text_40">
    <!-- $\mathdefault{0.15}$ -->
    <g transform="translate(51.634 271.152997) scale(0.1 -0.1)">
     <use xlink:href="#DejaVuSans-30" transform="translate(0 0.78125)"/>
     <use xlink:href="#DejaVuSans-2e" transform="translate(63.623047 0.78125)"/>
     <use xlink:href="#DejaVuSans-31" transform="translate(95.410156 0.78125)"/>
     <use xlink:href="#DejaVuSans-35" transform="translate(159.033203 0.78125)"/>
    </g>
   </g>
  </g>
  <g id="axes_12">
   <g id="patch_36">
    <path d="M 71.712 259.2 
L 76.896 259.2 
L 76.896 41.472 
L 71.712 41.472 
z
" clip-path="url(#pc7a31fd275)" style="fill: #d3d3d3"/>
   </g>
   <g id="patch_37">
    <path d="M 71.712 259.2 
L 71.712 144.8928 
L 76.896 144.8928 
L 76.896 259.2 
z
" clip-path="url(#pc7a31fd275)" style="fill: #1f77b4"/>
   </g>
   <g id="line2d_54">
    <path d="M 69.12 150.336 
L 79.488 150.336 
" clip-path="url(#pabf230e0fb)" style="fill: none; stroke: #ff0000; stroke-linecap: square"/>
   </g>
   <g id="line2d_55">
    <g>
     <use xlink:href="#m054008a80a" x="74.304" y="144.8928" style="fill: #ffffff; stroke: #bfbfbf"/>
    </g>
   </g>
   <g id="text_41">
    <!-- j3 -->
    <g transform="translate(69.733688 35.037753) scale(0.1 -0.1)">
     <defs>
      <path id="DejaVuSans-33" d="M 2597 2516 
Q 3050 2419 3304 2112 
Q 3559 1806 3559 1356 
Q 3559 666 3084 287 
Q 2609 -91 1734 -91 
Q 1441 -91 1130 -33 
Q 819 25 488 141 
L 488 750 
Q 750 597 1062 519 
Q 1375 441 1716 441 
Q 2309 441 2620 675 
Q 2931 909 2931 1356 
Q 2931 1769 2642 2001 
Q 2353 2234 1838 2234 
L 1294 2234 
L 1294 2753 
L 1863 2753 
Q 2328 2753 2575 2939 
Q 2822 3125 2822 3475 
Q 2822 3834 2567 4026 
Q 2313 4219 1838 4219 
Q 1578 4219 1281 4162 
Q 984 4106 628 3988 
L 628 4550 
Q 988 4650 1302 4700 
Q 1616 4750 1894 4750 
Q 2613 4750 3031 4423 
Q 3450 4097 3450 3541 
Q 3450 3153 3228 2886 
Q 3006 2619 2597 2516 
z
" transform="scale(0.015625)"/>
     </defs>
     <use xlink:href="#DejaVuSans-6a"/>
     <use xlink:href="#DejaVuSans-33" x="27.783203"/>
    </g>
   </g>
   <g id="text_42">
    <!-- $\mathdefault{0.15}$ -->
    <g transform="translate(63.154 271.152997) scale(0.1 -0.1)">
     <use xlink:href="#DejaVuSans-30" transform="translate(0 0.78125)"/>
     <use xlink:href="#DejaVuSans-2e" transform="translate(63.623047 0.78125)"/>
     <use xlink:href="#DejaVuSans-31" transform="translate(95.410156 0.78125)"/>
     <use xlink:href="#DejaVuSans-35" transform="translate(159.033203 0.78125)"/>
    </g>
   </g>
  </g>
  <g id="axes_13">
   <g id="patch_38">
    <path d="M 78.624 259.2 
L 83.808 259.2 
L 83.808 41.472 
L 78.624 41.472 
z
" clip-path="url(#p2031402493)" style="fill: #d3d3d3"/>
   </g>
   <g id="patch_39">
    <path d="M 78.624 259.2 
L 78.624 155.7792 
L 83.808 155.7792 
L 83.808 259.2 
z
" clip-path="url(#p2031402493)" style="fill: #1f77b4"/>
   </g>
   <g id="line2d_56">
    <path d="M 76.032 150.336 
L 86.4 150.336 
" clip-path="url(#p1b1e8dccc6)" style="fill: none; stroke: #ff0000; stroke-linecap: square"/>
   </g>
   <g id="line2d_57">
    <g>
     <use xlink:href="#m054008a80a" x="81.216" y="155.7792" style="fill: #ffffff; stroke: #bfbfbf"/>
    </g>
   </g>
   <g id="text_43">
    <!-- $\mathdefault{−0.15}$ -->
    <g transform="translate(65.866 271.152997) scale(0.1 -0.1)">
     <use xlink:href="#DejaVuSans-2212" transform="translate(0 0.78125)"/>
     <use xlink:href="#DejaVuSans-30" transform="translate(83.789062 0.78125)"/>
     <use xlink:href="#DejaVuSans-2e" transform="translate(147.412109 0.78125)"/>
     <use xlink:href="#DejaVuSans-31" transform="translate(179.199219 0.78125)"/>
     <use xlink:href="#DejaVuSans-35" transform="translate(242.822266 0.78125)"/>
    </g>
   </g>
  </g>
  <g id="axes_14">
   <g id="patch_40">
    <path d="M 90.144 259.2 
L 95.328 259.2 
L 95.328 41.472 
L 90.144 41.472 
z
" clip-path="url(#pdc49f5bb11)" style="fill: #d3d3d3"/>
   </g>
   <g id="patch_41">
    <path d="M 90.144 259.2 
L 90.144 131.868299 
L 95.328 131.868299 
L 95.328 259.2 
z
" clip-path="url(#pdc49f5bb11)" style="fill: #1f77b4"/>
   </g>
   <g id="line2d_58">
    <path d="M 87.552 150.336 
L 97.92 150.336 
" clip-path="url(#pc022257a45)" style="fill: none; stroke: #ff0000; stroke-linecap: square"/>
   </g>
   <g id="line2d_59">
    <g>
     <use xlink:href="#m054008a80a" x="92.736" y="131.868299" style="fill: #ffffff; stroke: #bfbfbf"/>
    </g>
   </g>
   <g id="text_44">
    <!-- j4 -->
    <g transform="translate(88.165688 35.037753) scale(0.1 -0.1)">
     <defs>
      <path id="DejaVuSans-34" d="M 2419 4116 
L 825 1625 
L 2419 1625 
L 2419 4116 
z
M 2253 4666 
L 3047 4666 
L 3047 1625 
L 3713 1625 
L 3713 1100 
L 3047 1100 
L 3047 0 
L 2419 0 
L 2419 1100 
L 313 1100 
L 313 1709 
L 2253 4666 
z
" transform="scale(0.015625)"/>
     </defs>
     <use xlink:href="#DejaVuSans-6a"/>
     <use xlink:href="#DejaVuSans-34" x="27.783203"/>
    </g>
   </g>
   <g id="text_45">
    <!-- $\mathdefault{0.509}$ -->
    <g transform="translate(78.386 271.152997) scale(0.1 -0.1)">
     <defs>
      <path id="DejaVuSans-39" d="M 703 97 
L 703 672 
Q 941 559 1184 500 
Q 1428 441 1663 441 
Q 2288 441 2617 861 
Q 2947 1281 2994 2138 
Q 2813 1869 2534 1725 
Q 2256 1581 1919 1581 
Q 1219 1581 811 2004 
Q 403 2428 403 3163 
Q 403 3881 828 4315 
Q 1253 4750 1959 4750 
Q 2769 4750 3195 4129 
Q 3622 3509 3622 2328 
Q 3622 1225 3098 567 
Q 2575 -91 1691 -91 
Q 1453 -91 1209 -44 
Q 966 3 703 97 
z
M 1959 2075 
Q 2384 2075 2632 2365 
Q 2881 2656 2881 3163 
Q 2881 3666 2632 3958 
Q 2384 4250 1959 4250 
Q 1534 4250 1286 3958 
Q 1038 3666 1038 3163 
Q 1038 2656 1286 2365 
Q 1534 2075 1959 2075 
z
" transform="scale(0.015625)"/>
     </defs>
     <use xlink:href="#DejaVuSans-30" transform="translate(0 0.78125)"/>
     <use xlink:href="#DejaVuSans-2e" transform="translate(63.623047 0.78125)"/>
     <use xlink:href="#DejaVuSans-35" transform="translate(95.410156 0.78125)"/>
     <use xlink:href="#DejaVuSans-30" transform="translate(159.033203 0.78125)"/>
     <use xlink:href="#DejaVuSans-39" transform="translate(222.65625 0.78125)"/>
    </g>
   </g>
  </g>
  <g id="axes_15">
   <g id="patch_42">
    <path d="M 97.056 259.2 
L 102.24 259.2 
L 102.24 41.472 
L 97.056 41.472 
z
" clip-path="url(#p2b5e7e87c1)" style="fill: #d3d3d3"/>
   </g>
   <g id="patch_43">
    <path d="M 97.056 259.2 
L 97.056 120.981899 
L 102.24 120.981899 
L 102.24 259.2 
z
" clip-path="url(#p2b5e7e87c1)" style="fill: #1f77b4"/>
   </g>
   <g id="line2d_60">
    <path d="M 94.464 150.336 
L 104.832 150.336 
" clip-path="url(#p28f12fbfea)" style="fill: none; stroke: #ff0000; stroke-linecap: square"/>
   </g>
   <g id="line2d_61">
    <g>
     <use xlink:href="#m054008a80a" x="99.648" y="120.981899" style="fill: #ffffff; stroke: #bfbfbf"/>
    </g>
   </g>
   <g id="text_46">
    <!-- $\mathdefault{0.809}$ -->
    <g transform="translate(85.448 271.152997) scale(0.1 -0.1)">
     <defs>
      <path id="DejaVuSans-38" d="M 2034 2216 
Q 1584 2216 1326 1975 
Q 1069 1734 1069 1313 
Q 1069 891 1326 650 
Q 1584 409 2034 409 
Q 2484 409 2743 651 
Q 3003 894 3003 1313 
Q 3003 1734 2745 1975 
Q 2488 2216 2034 2216 
z
M 1403 2484 
Q 997 2584 770 2862 
Q 544 3141 544 3541 
Q 544 4100 942 4425 
Q 1341 4750 2034 4750 
Q 2731 4750 3128 4425 
Q 3525 4100 3525 3541 
Q 3525 3141 3298 2862 
Q 3072 2584 2669 2484 
Q 3125 2378 3379 2068 
Q 3634 1759 3634 1313 
Q 3634 634 3220 271 
Q 2806 -91 2034 -91 
Q 1263 -91 848 271 
Q 434 634 434 1313 
Q 434 1759 690 2068 
Q 947 2378 1403 2484 
z
M 1172 3481 
Q 1172 3119 1398 2916 
Q 1625 2713 2034 2713 
Q 2441 2713 2670 2916 
Q 2900 3119 2900 3481 
Q 2900 3844 2670 4047 
Q 2441 4250 2034 4250 
Q 1625 4250 1398 4047 
Q 1172 3844 1172 3481 
z
" transform="scale(0.015625)"/>
     </defs>
     <use xlink:href="#DejaVuSans-30" transform="translate(0 0.78125)"/>
     <use xlink:href="#DejaVuSans-2e" transform="translate(63.623047 0.78125)"/>
     <use xlink:href="#DejaVuSans-38" transform="translate(92.785156 0.78125)"/>
     <use xlink:href="#DejaVuSans-30" transform="translate(156.408203 0.78125)"/>
     <use xlink:href="#DejaVuSans-39" transform="translate(220.03125 0.78125)"/>
    </g>
   </g>
  </g>
  <g id="axes_16">
   <g id="patch_44">
    <path d="M 108.576 259.2 
L 113.76 259.2 
L 113.76 41.472 
L 108.576 41.472 
z
" clip-path="url(#p7f8152e68f)" style="fill: #d3d3d3"/>
   </g>
   <g id="patch_45">
    <path d="M 108.576 259.2 
L 108.576 120.981899 
L 113.76 120.981899 
L 113.76 259.2 
z
" clip-path="url(#p7f8152e68f)" style="fill: #1f77b4"/>
   </g>
   <g id="line2d_62">
    <path d="M 105.984 150.336 
L 116.352 150.336 
" clip-path="url(#p75cbd7cfa1)" style="fill: none; stroke: #ff0000; stroke-linecap: square"/>
   </g>
   <g id="line2d_63">
    <g>
     <use xlink:href="#m054008a80a" x="111.168" y="120.981899" style="fill: #ffffff; stroke: #bfbfbf"/>
    </g>
   </g>
   <g id="text_47">
    <!-- j5 -->
    <g transform="translate(106.597688 35.037753) scale(0.1 -0.1)">
     <use xlink:href="#DejaVuSans-6a"/>
     <use xlink:href="#DejaVuSans-35" x="27.783203"/>
    </g>
   </g>
   <g id="text_48">
    <!-- $\mathdefault{0.809}$ -->
    <g transform="translate(96.968 271.152997) scale(0.1 -0.1)">
     <use xlink:href="#DejaVuSans-30" transform="translate(0 0.78125)"/>
     <use xlink:href="#DejaVuSans-2e" transform="translate(63.623047 0.78125)"/>
     <use xlink:href="#DejaVuSans-38" transform="translate(92.785156 0.78125)"/>
     <use xlink:href="#DejaVuSans-30" transform="translate(156.408203 0.78125)"/>
     <use xlink:href="#DejaVuSans-39" transform="translate(220.03125 0.78125)"/>
    </g>
   </g>
  </g>
  <g id="axes_17">
   <g id="patch_46">
    <path d="M 115.488 259.2 
L 120.672 259.2 
L 120.672 41.472 
L 115.488 41.472 
z
" clip-path="url(#pb62a527563)" style="fill: #d3d3d3"/>
   </g>
   <g id="patch_47">
    <path d="M 115.488 259.2 
L 115.488 131.868299 
L 120.672 131.868299 
L 120.672 259.2 
z
" clip-path="url(#pb62a527563)" style="fill: #1f77b4"/>
   </g>
   <g id="line2d_64">
    <path d="M 112.896 150.336 
L 123.264 150.336 
" clip-path="url(#pee1871912f)" style="fill: none; stroke: #ff0000; stroke-linecap: square"/>
   </g>
   <g id="line2d_65">
    <g>
     <use xlink:href="#m054008a80a" x="118.08" y="131.868299" style="fill: #ffffff; stroke: #bfbfbf"/>
    </g>
   </g>
   <g id="text_49">
    <!-- $\mathdefault{0.509}$ -->
    <g transform="translate(103.73 271.152997) scale(0.1 -0.1)">
     <use xlink:href="#DejaVuSans-30" transform="translate(0 0.78125)"/>
     <use xlink:href="#DejaVuSans-2e" transform="translate(63.623047 0.78125)"/>
     <use xlink:href="#DejaVuSans-35" transform="translate(95.410156 0.78125)"/>
     <use xlink:href="#DejaVuSans-30" transform="translate(159.033203 0.78125)"/>
     <use xlink:href="#DejaVuSans-39" transform="translate(222.65625 0.78125)"/>
    </g>
   </g>
  </g>
 </g>
 <defs>
  <clipPath id="pf49c673f3f">
   <rect x="147.456" y="3.456" width="283.392" height="283.392"/>
  </clipPath>
  <clipPath id="pf07812e3d5">
   <rect x="138.24" y="324.864" width="230.4" height="17.28"/>
  </clipPath>
  <clipPath id="p6c7e079a24">
   <path d="M 138.24 337.824 
L 368.64 337.824 
L 368.64 329.184 
L 138.24 329.184 
z
"/>
  </clipPath>
  <clipPath id="p1d37d669e3">
   <rect x="13.824" y="41.472" width="10.368" height="217.728"/>
  </clipPath>
  <clipPath id="p42459d436b">
   <path d="M 16.416 259.2 
L 21.6 259.2 
L 21.6 41.472 
L 16.416 41.472 
z
"/>
  </clipPath>
  <clipPath id="p9faa079110">
   <rect x="20.736" y="41.472" width="10.368" height="217.728"/>
  </clipPath>
  <clipPath id="pb908e61980">
   <path d="M 23.328 259.2 
L 28.512 259.2 
L 28.512 41.472 
L 23.328 41.472 
z
"/>
  </clipPath>
  <clipPath id="p19bb1a509c">
   <rect x="32.256" y="41.472" width="10.368" height="217.728"/>
  </clipPath>
  <clipPath id="p844fc2440e">
   <path d="M 34.848 259.2 
L 40.032 259.2 
L 40.032 41.472 
L 34.848 41.472 
z
"/>
  </clipPath>
  <clipPath id="p2d2716fa8f">
   <rect x="39.168" y="41.472" width="10.368" height="217.728"/>
  </clipPath>
  <clipPath id="p3ef9c007a2">
   <path d="M 41.76 259.2 
L 46.944 259.2 
L 46.944 41.472 
L 41.76 41.472 
z
"/>
  </clipPath>
  <clipPath id="pd369ed023f">
   <rect x="50.688" y="41.472" width="10.368" height="217.728"/>
  </clipPath>
  <clipPath id="p6ff5333499">
   <path d="M 53.28 259.2 
L 58.464 259.2 
L 58.464 41.472 
L 53.28 41.472 
z
"/>
  </clipPath>
  <clipPath id="pbd3fe5fbe2">
   <rect x="57.6" y="41.472" width="10.368" height="217.728"/>
  </clipPath>
  <clipPath id="p8a48233992">
   <path d="M 60.192 259.2 
L 65.376 259.2 
L 65.376 41.472 
L 60.192 41.472 
z
"/>
  </clipPath>
  <clipPath id="pc7a31fd275">
   <rect x="69.12" y="41.472" width="10.368" height="217.728"/>
  </clipPath>
  <clipPath id="pabf230e0fb">
   <path d="M 71.712 259.2 
L 76.896 259.2 
L 76.896 41.472 
L 71.712 41.472 
z
"/>
  </clipPath>
  <clipPath id="p2031402493">
   <rect x="76.032" y="41.472" width="10.368" height="217.728"/>
  </clipPath>
  <clipPath id="p1b1e8dccc6">
   <path d="M 78.624 259.2 
L 83.808 259.2 
L 83.808 41.472 
L 78.624 41.472 
z
"/>
  </clipPath>
  <clipPath id="pdc49f5bb11">
   <rect x="87.552" y="41.472" width="10.368" height="217.728"/>
  </clipPath>
  <clipPath id="pc022257a45">
   <path d="M 90.144 259.2 
L 95.328 259.2 
L 95.328 41.472 
L 90.144 41.472 
z
"/>
  </clipPath>
  <clipPath id="p2b5e7e87c1">
   <rect x="94.464" y="41.472" width="10.368" height="217.728"/>
  </clipPath>
  <clipPath id="p28f12fbfea">
   <path d="M 97.056 259.2 
L 102.24 259.2 
L 102.24 41.472 
L 97.056 41.472 
z
"/>
  </clipPath>
  <clipPath id="p7f8152e68f">
   <rect x="105.984" y="41.472" width="10.368" height="217.728"/>
  </clipPath>
  <clipPath id="p75cbd7cfa1">
   <path d="M 108.576 259.2 
L 113.76 259.2 
L 113.76 41.472 
L 108.576 41.472 
z
"/>
  </clipPath>
  <clipPath id="pb62a527563">
   <rect x="112.896" y="41.472" width="10.368" height="217.728"/>
  </clipPath>
  <clipPath id="pee1871912f">
   <path d="M 115.488 259.2 
L 120.672 259.2 
L 120.672 41.472 
L 115.488 41.472 
z
"/>
  </clipPath>
 </defs>
</svg>
