<?xml version="1.0" encoding="utf-8" standalone="no"?>
<!DOCTYPE svg PUBLIC "-//W3C//DTD SVG 1.1//EN"
  "http://www.w3.org/Graphics/SVG/1.1/DTD/svg11.dtd">
<svg xmlns:xlink="http://www.w3.org/1999/xlink" width="460.8pt" height="345.6pt" viewBox="0 0 460.8 345.6" xmlns="http://www.w3.org/2000/svg" version="1.1">
 <metadata>
  <rdf:RDF xmlns:dc="http://purl.org/dc/elements/1.1/" xmlns:cc="http://creativecommons.org/ns#" xmlns:rdf="http://www.w3.org/1999/02/22-rdf-syntax-ns#">
   <cc:Work>
    <dc:type rdf:resource="http://purl.org/dc/dcmitype/StillImage"/>
    <dc:date>2024-10-01T15:52:37.081822</dc:date>
    <dc:format>image/svg+xml</dc:format>
    <dc:creator>
     <cc:Agent>
      <dc:title>Matplotlib v3.8.2, https://matplotlib.org/</dc:title>
     </cc:Agent>
    </dc:creator>
   </cc:Work>
  </rdf:RDF>
 </metadata>
 <defs>
  <style type="text/css">*{stroke-linejoin: round; stroke-linecap: butt}</style>
 </defs>
 <g id="figure_1">
  <g id="patch_1">
   <path d="M 0 345.6 
L 460.8 345.6 
L 460.8 0 
L 0 0 
z
" style="fill: #ffffff"/>
  </g>
  <g id="patch_2">
   <path d="M 57.6 345.6 
L 403.2 345.6 
L 403.2 0 
L 57.6 0 
z
" style="fill: #ffffff"/>
  </g>
  <g id="pane3d_1">
   <g id="patch_3">
    <path d="M 134.475764 197.821689 
L 336.818184 198.324772 
L 341.026808 43.512145 
L 130.317131 43.073176 
" style="fill: #f2f2f2; opacity: 0.5; stroke: #f2f2f2; stroke-linejoin: miter"/>
   </g>
  </g>
  <g id="pane3d_2">
   <g id="patch_4">
    <path d="M 134.475764 197.821689 
L 122.426119 300.612749 
L 117.24487 133.16348 
L 130.317131 43.073176 
" style="fill: #e6e6e6; opacity: 0.5; stroke: #e6e6e6; stroke-linejoin: miter"/>
   </g>
  </g>
  <g id="pane3d_3">
   <g id="patch_5">
    <path d="M 134.475764 197.821689 
L 122.426119 300.612749 
L 346.561229 301.230038 
L 336.818184 198.324772 
" style="fill: #ececec; opacity: 0.5; stroke: #ececec; stroke-linejoin: miter"/>
   </g>
  </g>
  <g id="grid3d_1">
   <g id="Line3DCollection_1">
    <path d="M 338.297454 213.948709 
L 132.646198 213.429038 
L 128.339794 56.700418 
" style="fill: none; stroke: #b0b0b0; stroke-width: 0.8"/>
    <path d="M 339.750932 229.300221 
L 130.848564 228.763988 
L 126.394362 70.107786 
" style="fill: none; stroke: #b0b0b0; stroke-width: 0.8"/>
    <path d="M 341.251117 245.145059 
L 128.993194 244.591461 
L 124.383731 83.964479 
" style="fill: none; stroke: #b0b0b0; stroke-width: 0.8"/>
    <path d="M 342.800299 261.507393 
L 127.077262 260.935572 
L 122.30457 98.29347 
" style="fill: none; stroke: #b0b0b0; stroke-width: 0.8"/>
    <path d="M 344.400917 278.412995 
L 125.097752 277.822036 
L 120.153312 113.119323 
" style="fill: none; stroke: #b0b0b0; stroke-width: 0.8"/>
    <path d="M 346.055577 295.889379 
L 123.051447 295.278305 
L 117.926143 128.468339 
" style="fill: none; stroke: #b0b0b0; stroke-width: 0.8"/>
   </g>
  </g>
  <g id="grid3d_2">
   <g id="Line3DCollection_2">
    <path d="M 156.470379 43.12766 
L 159.590949 197.884133 
L 150.244877 300.689365 
" style="fill: none; stroke: #b0b0b0; stroke-width: 0.8"/>
    <path d="M 189.700092 43.196887 
L 191.501527 197.963472 
L 185.591098 300.786712 
" style="fill: none; stroke: #b0b0b0; stroke-width: 0.8"/>
    <path d="M 222.935558 43.266127 
L 223.41741 198.042824 
L 220.943827 300.884076 
" style="fill: none; stroke: #b0b0b0; stroke-width: 0.8"/>
    <path d="M 256.176777 43.335378 
L 255.338598 198.12219 
L 256.303066 300.981459 
" style="fill: none; stroke: #b0b0b0; stroke-width: 0.8"/>
    <path d="M 289.42375 43.404641 
L 287.265093 198.201568 
L 291.668817 301.078859 
" style="fill: none; stroke: #b0b0b0; stroke-width: 0.8"/>
    <path d="M 322.67648 43.473916 
L 319.196896 198.28096 
L 327.041081 301.176278 
" style="fill: none; stroke: #b0b0b0; stroke-width: 0.8"/>
   </g>
  </g>
  <g id="grid3d_3">
   <g id="Line3DCollection_3">
    <path d="M 122.326963 297.408214 
L 134.39583 194.847225 
L 336.899077 195.34914 
" style="fill: none; stroke: #b0b0b0; stroke-width: 0.8"/>
    <path d="M 121.37149 266.528913 
L 133.626274 166.210988 
L 337.677871 166.701523 
" style="fill: none; stroke: #b0b0b0; stroke-width: 0.8"/>
    <path d="M 120.399683 235.121748 
L 132.844863 137.133588 
L 338.468669 137.612331 
" style="fill: none; stroke: #b0b0b0; stroke-width: 0.8"/>
    <path d="M 119.411121 203.173068 
L 132.05132 107.60475 
L 339.27175 108.071275 
" style="fill: none; stroke: #b0b0b0; stroke-width: 0.8"/>
    <path d="M 118.405366 170.668746 
L 131.245361 77.61388 
L 340.087405 78.067745 
" style="fill: none; stroke: #b0b0b0; stroke-width: 0.8"/>
    <path d="M 117.381965 137.594159 
L 130.426691 47.150048 
L 340.915929 47.590793 
" style="fill: none; stroke: #b0b0b0; stroke-width: 0.8"/>
   </g>
  </g>
  <g id="axis3d_1">
   <g id="line2d_1">
    <path d="M 336.818184 198.324772 
L 346.561229 301.230038 
" style="fill: none; stroke: #000000; stroke-width: 0.8; stroke-linecap: square"/>
   </g>
   <g id="xtick_1">
    <g id="line2d_2">
     <path d="M 336.65137 213.94455 
L 341.589665 213.957028 
" style="fill: none; stroke: #000000; stroke-width: 0.8; stroke-linecap: square"/>
    </g>
    <g id="text_1">
     <!-- −3 -->
     <g transform="translate(343.77329 231.168885) scale(0.1 -0.1)">
      <defs>
       <path id="DejaVuSans-2212" d="M 678 2272 
L 4684 2272 
L 4684 1741 
L 678 1741 
L 678 2272 
z
" transform="scale(0.015625)"/>
       <path id="DejaVuSans-33" d="M 2597 2516 
Q 3050 2419 3304 2112 
Q 3559 1806 3559 1356 
Q 3559 666 3084 287 
Q 2609 -91 1734 -91 
Q 1441 -91 1130 -33 
Q 819 25 488 141 
L 488 750 
Q 750 597 1062 519 
Q 1375 441 1716 441 
Q 2309 441 2620 675 
Q 2931 909 2931 1356 
Q 2931 1769 2642 2001 
Q 2353 2234 1838 2234 
L 1294 2234 
L 1294 2753 
L 1863 2753 
Q 2328 2753 2575 2939 
Q 2822 3125 2822 3475 
Q 2822 3834 2567 4026 
Q 2313 4219 1838 4219 
Q 1578 4219 1281 4162 
Q 984 4106 628 3988 
L 628 4550 
Q 988 4650 1302 4700 
Q 1616 4750 1894 4750 
Q 2613 4750 3031 4423 
Q 3450 4097 3450 3541 
Q 3450 3153 3228 2886 
Q 3006 2619 2597 2516 
z
" transform="scale(0.015625)"/>
      </defs>
      <use xlink:href="#DejaVuSans-2212"/>
      <use xlink:href="#DejaVuSans-33" x="83.789062"/>
     </g>
    </g>
   </g>
   <g id="xtick_2">
    <g id="line2d_3">
     <path d="M 338.078811 229.295929 
L 343.095217 229.308805 
" style="fill: none; stroke: #000000; stroke-width: 0.8; stroke-linecap: square"/>
    </g>
    <g id="text_2">
     <!-- −2 -->
     <g transform="translate(345.425652 246.632574) scale(0.1 -0.1)">
      <defs>
       <path id="DejaVuSans-32" d="M 1228 531 
L 3431 531 
L 3431 0 
L 469 0 
L 469 531 
Q 828 903 1448 1529 
Q 2069 2156 2228 2338 
Q 2531 2678 2651 2914 
Q 2772 3150 2772 3378 
Q 2772 3750 2511 3984 
Q 2250 4219 1831 4219 
Q 1534 4219 1204 4116 
Q 875 4013 500 3803 
L 500 4441 
Q 881 4594 1212 4672 
Q 1544 4750 1819 4750 
Q 2544 4750 2975 4387 
Q 3406 4025 3406 3419 
Q 3406 3131 3298 2873 
Q 3191 2616 2906 2266 
Q 2828 2175 2409 1742 
Q 1991 1309 1228 531 
z
" transform="scale(0.015625)"/>
      </defs>
      <use xlink:href="#DejaVuSans-2212"/>
      <use xlink:href="#DejaVuSans-32" x="83.789062"/>
     </g>
    </g>
   </g>
   <g id="xtick_3">
    <g id="line2d_4">
     <path d="M 339.552123 245.140628 
L 344.649151 245.153922 
" style="fill: none; stroke: #000000; stroke-width: 0.8; stroke-linecap: square"/>
    </g>
    <g id="text_3">
     <!-- −1 -->
     <g transform="translate(347.130974 262.591893) scale(0.1 -0.1)">
      <defs>
       <path id="DejaVuSans-31" d="M 794 531 
L 1825 531 
L 1825 4091 
L 703 3866 
L 703 4441 
L 1819 4666 
L 2450 4666 
L 2450 531 
L 3481 531 
L 3481 0 
L 794 0 
L 794 531 
z
" transform="scale(0.015625)"/>
      </defs>
      <use xlink:href="#DejaVuSans-2212"/>
      <use xlink:href="#DejaVuSans-31" x="83.789062"/>
     </g>
    </g>
   </g>
   <g id="xtick_4">
    <g id="line2d_5">
     <path d="M 341.073553 261.502816 
L 346.253838 261.516548 
" style="fill: none; stroke: #000000; stroke-width: 0.8; stroke-linecap: square"/>
    </g>
    <g id="text_4">
     <!-- 0 -->
     <g transform="translate(353.081688 279.071058) scale(0.1 -0.1)">
      <defs>
       <path id="DejaVuSans-30" d="M 2034 4250 
Q 1547 4250 1301 3770 
Q 1056 3291 1056 2328 
Q 1056 1369 1301 889 
Q 1547 409 2034 409 
Q 2525 409 2770 889 
Q 3016 1369 3016 2328 
Q 3016 3291 2770 3770 
Q 2525 4250 2034 4250 
z
M 2034 4750 
Q 2819 4750 3233 4129 
Q 3647 3509 3647 2328 
Q 3647 1150 3233 529 
Q 2819 -91 2034 -91 
Q 1250 -91 836 529 
Q 422 1150 422 2328 
Q 422 3509 836 4129 
Q 1250 4750 2034 4750 
z
" transform="scale(0.015625)"/>
      </defs>
      <use xlink:href="#DejaVuSans-30"/>
     </g>
    </g>
   </g>
   <g id="xtick_5">
    <g id="line2d_6">
     <path d="M 342.645498 278.408265 
L 347.911804 278.422456 
" style="fill: none; stroke: #000000; stroke-width: 0.8; stroke-linecap: square"/>
    </g>
    <g id="text_5">
     <!-- 1 -->
     <g transform="translate(354.900864 296.09589) scale(0.1 -0.1)">
      <use xlink:href="#DejaVuSans-31"/>
     </g>
    </g>
   </g>
   <g id="xtick_6">
    <g id="line2d_7">
     <path d="M 344.270516 295.884488 
L 349.625748 295.899162 
" style="fill: none; stroke: #000000; stroke-width: 0.8; stroke-linecap: square"/>
    </g>
    <g id="text_6">
     <!-- 2 -->
     <g transform="translate(356.781293 313.693947) scale(0.1 -0.1)">
      <use xlink:href="#DejaVuSans-32"/>
     </g>
    </g>
   </g>
   <g id="text_7">
    <!-- X-axis -->
    <g transform="translate(366.054181 253.853106) rotate(-275.408627) scale(0.1 -0.1)">
     <defs>
      <path id="DejaVuSans-58" d="M 403 4666 
L 1081 4666 
L 2241 2931 
L 3406 4666 
L 4084 4666 
L 2584 2425 
L 4184 0 
L 3506 0 
L 2194 1984 
L 872 0 
L 191 0 
L 1856 2491 
L 403 4666 
z
" transform="scale(0.015625)"/>
      <path id="DejaVuSans-2d" d="M 313 2009 
L 1997 2009 
L 1997 1497 
L 313 1497 
L 313 2009 
z
" transform="scale(0.015625)"/>
      <path id="DejaVuSans-61" d="M 2194 1759 
Q 1497 1759 1228 1600 
Q 959 1441 959 1056 
Q 959 750 1161 570 
Q 1363 391 1709 391 
Q 2188 391 2477 730 
Q 2766 1069 2766 1631 
L 2766 1759 
L 2194 1759 
z
M 3341 1997 
L 3341 0 
L 2766 0 
L 2766 531 
Q 2569 213 2275 61 
Q 1981 -91 1556 -91 
Q 1019 -91 701 211 
Q 384 513 384 1019 
Q 384 1609 779 1909 
Q 1175 2209 1959 2209 
L 2766 2209 
L 2766 2266 
Q 2766 2663 2505 2880 
Q 2244 3097 1772 3097 
Q 1472 3097 1187 3025 
Q 903 2953 641 2809 
L 641 3341 
Q 956 3463 1253 3523 
Q 1550 3584 1831 3584 
Q 2591 3584 2966 3190 
Q 3341 2797 3341 1997 
z
" transform="scale(0.015625)"/>
      <path id="DejaVuSans-78" d="M 3513 3500 
L 2247 1797 
L 3578 0 
L 2900 0 
L 1881 1375 
L 863 0 
L 184 0 
L 1544 1831 
L 300 3500 
L 978 3500 
L 1906 2253 
L 2834 3500 
L 3513 3500 
z
" transform="scale(0.015625)"/>
      <path id="DejaVuSans-69" d="M 603 3500 
L 1178 3500 
L 1178 0 
L 603 0 
L 603 3500 
z
M 603 4863 
L 1178 4863 
L 1178 4134 
L 603 4134 
L 603 4863 
z
" transform="scale(0.015625)"/>
      <path id="DejaVuSans-73" d="M 2834 3397 
L 2834 2853 
Q 2591 2978 2328 3040 
Q 2066 3103 1784 3103 
Q 1356 3103 1142 2972 
Q 928 2841 928 2578 
Q 928 2378 1081 2264 
Q 1234 2150 1697 2047 
L 1894 2003 
Q 2506 1872 2764 1633 
Q 3022 1394 3022 966 
Q 3022 478 2636 193 
Q 2250 -91 1575 -91 
Q 1294 -91 989 -36 
Q 684 19 347 128 
L 347 722 
Q 666 556 975 473 
Q 1284 391 1588 391 
Q 1994 391 2212 530 
Q 2431 669 2431 922 
Q 2431 1156 2273 1281 
Q 2116 1406 1581 1522 
L 1381 1569 
Q 847 1681 609 1914 
Q 372 2147 372 2553 
Q 372 3047 722 3315 
Q 1072 3584 1716 3584 
Q 2034 3584 2315 3537 
Q 2597 3491 2834 3397 
z
" transform="scale(0.015625)"/>
     </defs>
     <use xlink:href="#DejaVuSans-58"/>
     <use xlink:href="#DejaVuSans-2d" x="63.505859"/>
     <use xlink:href="#DejaVuSans-61" x="99.589844"/>
     <use xlink:href="#DejaVuSans-78" x="160.869141"/>
     <use xlink:href="#DejaVuSans-69" x="220.048828"/>
     <use xlink:href="#DejaVuSans-73" x="247.832031"/>
    </g>
   </g>
  </g>
  <g id="axis3d_2">
   <g id="line2d_8">
    <path d="M 122.426119 300.612749 
L 346.561229 301.230038 
" style="fill: none; stroke: #000000; stroke-width: 0.8; stroke-linecap: square"/>
   </g>
   <g id="xtick_7">
    <g id="line2d_9">
     <path d="M 150.327625 299.779145 
L 150.078951 302.514517 
" style="fill: none; stroke: #000000; stroke-width: 0.8; stroke-linecap: square"/>
    </g>
    <g id="text_8">
     <!-- −1 -->
     <g transform="translate(142.448976 325.862945) scale(0.1 -0.1)">
      <use xlink:href="#DejaVuSans-2212"/>
      <use xlink:href="#DejaVuSans-31" x="83.789062"/>
     </g>
    </g>
   </g>
   <g id="xtick_8">
    <g id="line2d_10">
     <path d="M 185.643428 299.876324 
L 185.486166 302.6122 
" style="fill: none; stroke: #000000; stroke-width: 0.8; stroke-linecap: square"/>
    </g>
    <g id="text_9">
     <!-- 0 -->
     <g transform="translate(182.129462 325.962314) scale(0.1 -0.1)">
      <use xlink:href="#DejaVuSans-30"/>
     </g>
    </g>
   </g>
   <g id="xtick_9">
    <g id="line2d_11">
     <path d="M 220.965728 299.973521 
L 220.899912 302.709901 
" style="fill: none; stroke: #000000; stroke-width: 0.8; stroke-linecap: square"/>
    </g>
    <g id="text_10">
     <!-- 1 -->
     <g transform="translate(217.626667 326.061701) scale(0.1 -0.1)">
      <use xlink:href="#DejaVuSans-31"/>
     </g>
    </g>
   </g>
   <g id="xtick_10">
    <g id="line2d_12">
     <path d="M 256.294527 300.070736 
L 256.320189 302.80762 
" style="fill: none; stroke: #000000; stroke-width: 0.8; stroke-linecap: square"/>
    </g>
    <g id="text_11">
     <!-- 2 -->
     <g transform="translate(253.130434 326.161107) scale(0.1 -0.1)">
      <use xlink:href="#DejaVuSans-32"/>
     </g>
    </g>
   </g>
   <g id="xtick_11">
    <g id="line2d_13">
     <path d="M 291.629826 300.167969 
L 291.747001 302.905357 
" style="fill: none; stroke: #000000; stroke-width: 0.8; stroke-linecap: square"/>
    </g>
    <g id="text_12">
     <!-- 3 -->
     <g transform="translate(288.640766 326.260531) scale(0.1 -0.1)">
      <use xlink:href="#DejaVuSans-33"/>
     </g>
    </g>
   </g>
   <g id="xtick_12">
    <g id="line2d_14">
     <path d="M 326.971627 300.26522 
L 327.180349 303.003112 
" style="fill: none; stroke: #000000; stroke-width: 0.8; stroke-linecap: square"/>
    </g>
    <g id="text_13">
     <!-- 4 -->
     <g transform="translate(324.157665 326.359974) scale(0.1 -0.1)">
      <defs>
       <path id="DejaVuSans-34" d="M 2419 4116 
L 825 1625 
L 2419 1625 
L 2419 4116 
z
M 2253 4666 
L 3047 4666 
L 3047 1625 
L 3713 1625 
L 3713 1100 
L 3047 1100 
L 3047 0 
L 2419 0 
L 2419 1100 
L 313 1100 
L 313 1709 
L 2253 4666 
z
" transform="scale(0.015625)"/>
      </defs>
      <use xlink:href="#DejaVuSans-34"/>
     </g>
    </g>
   </g>
   <g id="text_14">
    <!-- Y-axis -->
    <g transform="translate(219.995977 342.04291) rotate(-359.842203) scale(0.1 -0.1)">
     <defs>
      <path id="DejaVuSans-59" d="M -13 4666 
L 666 4666 
L 1959 2747 
L 3244 4666 
L 3922 4666 
L 2272 2222 
L 2272 0 
L 1638 0 
L 1638 2222 
L -13 4666 
z
" transform="scale(0.015625)"/>
     </defs>
     <use xlink:href="#DejaVuSans-59"/>
     <use xlink:href="#DejaVuSans-2d" x="49.208984"/>
     <use xlink:href="#DejaVuSans-61" x="85.292969"/>
     <use xlink:href="#DejaVuSans-78" x="146.572266"/>
     <use xlink:href="#DejaVuSans-69" x="205.751953"/>
     <use xlink:href="#DejaVuSans-73" x="233.535156"/>
    </g>
   </g>
  </g>
  <g id="axis3d_3">
   <g id="line2d_15">
    <path d="M 122.426119 300.612749 
L 117.24487 133.16348 
" style="fill: none; stroke: #000000; stroke-width: 0.8; stroke-linecap: square"/>
   </g>
   <g id="xtick_13">
    <g id="line2d_16">
     <path d="M 122.433827 296.500086 
L 122.112682 299.229175 
" style="fill: none; stroke: #000000; stroke-width: 0.8; stroke-linecap: square"/>
    </g>
    <g id="text_15">
     <!-- −2 -->
     <g transform="translate(99.673068 312.275763) scale(0.1 -0.1)">
      <use xlink:href="#DejaVuSans-2212"/>
      <use xlink:href="#DejaVuSans-32" x="83.789062"/>
     </g>
    </g>
   </g>
   <g id="xtick_14">
    <g id="line2d_17">
     <path d="M 121.480089 265.63992 
L 121.153725 268.311543 
" style="fill: none; stroke: #000000; stroke-width: 0.8; stroke-linecap: square"/>
    </g>
    <g id="text_16">
     <!-- −1 -->
     <g transform="translate(98.580532 281.24376) scale(0.1 -0.1)">
      <use xlink:href="#DejaVuSans-2212"/>
      <use xlink:href="#DejaVuSans-31" x="83.789062"/>
     </g>
    </g>
   </g>
   <g id="xtick_15">
    <g id="line2d_18">
     <path d="M 120.510061 234.25268 
L 120.178346 236.864464 
" style="fill: none; stroke: #000000; stroke-width: 0.8; stroke-linecap: square"/>
    </g>
    <g id="text_17">
     <!-- 0 -->
     <g transform="translate(101.659031 249.677563) scale(0.1 -0.1)">
      <use xlink:href="#DejaVuSans-30"/>
     </g>
    </g>
   </g>
   <g id="xtick_16">
    <g id="line2d_19">
     <path d="M 119.523323 202.324747 
L 119.18612 204.874221 
" style="fill: none; stroke: #000000; stroke-width: 0.8; stroke-linecap: square"/>
    </g>
    <g id="text_18">
     <!-- 1 -->
     <g transform="translate(100.52839 217.563258) scale(0.1 -0.1)">
      <use xlink:href="#DejaVuSans-31"/>
     </g>
    </g>
   </g>
   <g id="xtick_17">
    <g id="line2d_20">
     <path d="M 118.519439 169.842027 
L 118.176607 172.326617 
" style="fill: none; stroke: #000000; stroke-width: 0.8; stroke-linecap: square"/>
    </g>
    <g id="text_19">
     <!-- 2 -->
     <g transform="translate(99.377945 184.886444) scale(0.1 -0.1)">
      <use xlink:href="#DejaVuSans-32"/>
     </g>
    </g>
   </g>
   <g id="xtick_18">
    <g id="line2d_21">
     <path d="M 117.497958 136.789933 
L 117.149351 139.206961 
" style="fill: none; stroke: #000000; stroke-width: 0.8; stroke-linecap: square"/>
    </g>
    <g id="text_20">
     <!-- 3 -->
     <g transform="translate(98.207171 151.632212) scale(0.1 -0.1)">
      <use xlink:href="#DejaVuSans-33"/>
     </g>
    </g>
   </g>
   <g id="text_21">
    <!-- Z-axis -->
    <g transform="translate(82.400647 218.770461) rotate(-271.772292) scale(0.1 -0.1)">
     <defs>
      <path id="DejaVuSans-5a" d="M 359 4666 
L 4025 4666 
L 4025 4184 
L 1075 531 
L 4097 531 
L 4097 0 
L 288 0 
L 288 481 
L 3238 4134 
L 359 4134 
L 359 4666 
z
" transform="scale(0.015625)"/>
     </defs>
     <use xlink:href="#DejaVuSans-5a"/>
     <use xlink:href="#DejaVuSans-2d" x="66.755859"/>
     <use xlink:href="#DejaVuSans-61" x="102.839844"/>
     <use xlink:href="#DejaVuSans-78" x="164.119141"/>
     <use xlink:href="#DejaVuSans-69" x="223.298828"/>
     <use xlink:href="#DejaVuSans-73" x="251.082031"/>
    </g>
   </g>
  </g>
  <g id="axes_1">
   <g id="line2d_22">
    <path d="M 179.792148 217.214861 
L 178.971398 214.061971 
L 178.400577 211.001029 
L 178.069742 208.018329 
L 177.981588 205.266993 
L 178.11648 202.72602 
L 178.44966 200.503732 
L 178.962943 198.586477 
L 179.593586 197.090081 
L 180.293632 195.990321 
L 181.046387 195.224496 
L 181.76168 194.789609 
L 182.483068 194.583701 
L 183.343955 194.599374 
L 184.152022 194.845591 
L 185.083351 195.387206 
L 186.153741 196.337977 
L 187.055741 197.41158 
L 188.045899 198.88787 
L 189.12179 200.873344 
L 190.272395 203.497272 
L 191.472755 206.910824 
L 192.676562 211.279834 
L 193.444583 214.804221 
L 194.148396 218.86552 
L 194.746669 223.487904 
L 195.188905 228.670042 
L 195.416593 234.373359 
L 195.366355 240.510133 
L 194.975601 246.934371 
L 194.190645 253.439495 
L 193.638359 256.643118 
L 192.976298 259.766965 
L 192.204447 262.774196 
L 191.324915 265.628133 
L 190.341992 268.293493 
L 189.262102 270.737636 
L 188.093636 272.931724 
L 186.846697 274.851728 
L 185.532738 276.479188 
L 184.164158 277.801695 
L 182.753854 278.813048 
L 181.314774 279.513119 
L 179.859504 279.907431 
L 178.399897 280.006517 
L 176.946787 279.825117 
L 175.509764 279.381289 
L 174.097044 278.695491 
L 172.715403 277.7897 
L 171.370185 276.686596 
L 170.065357 275.408862 
L 168.803606 273.978597 
L 166.414443 270.7433 
L 164.203591 267.131185 
L 162.160148 263.265221 
L 160.265436 259.239627 
L 157.650641 253.042418 
L 154.452009 244.658492 
L 147.434138 225.128003 
L 138.748192 200.879518 
L 136.385046 193.741329 
L 133.873152 185.409496 
L 132.586721 180.658276 
L 131.308774 175.421325 
L 130.07773 169.609344 
L 128.954107 163.116218 
L 128.032415 155.817577 
L 127.459723 147.571735 
L 127.464607 138.226476 
L 128.401739 127.638828 
L 130.818452 115.722152 
L 135.546706 102.547546 
L 143.80726 88.544859 
L 157.258073 74.85894 
L 177.787749 63.858349 
L 206.665925 59.512237 
L 242.766313 66.740271 
L 280.817462 88.663266 
L 312.515607 122.974322 
L 331.437915 161.963127 
L 336.846678 197.461276 
L 332.381924 225.136004 
L 322.54365 244.567563 
L 310.668962 257.257817 
L 298.671167 265.064159 
L 287.456396 269.543292 
L 277.359102 271.826281 
L 268.429362 272.684484 
L 260.59202 272.629358 
L 253.726847 271.996346 
L 247.706052 271.004883 
L 242.41027 269.798655 
L 237.734222 268.471902 
L 233.587639 267.086452 
L 229.894202 265.682759 
L 223.620692 262.916247 
L 218.515136 260.286535 
L 214.295625 257.833863 
L 210.760112 255.565182 
L 206.428071 252.488763 
L 202.964775 249.762079 
L 199.312458 246.584571 
L 195.828305 243.205325 
L 192.706444 239.816432 
L 190.016196 236.543439 
L 187.751669 233.455238 
L 185.693511 230.29185 
L 183.809754 226.978957 
L 182.22156 223.727232 
L 180.887407 220.482862 
L 179.827616 217.333669 
L 179.827616 217.333669 
" clip-path="url(#pcb2882efe9)" style="fill: none; stroke: #1f77b4; stroke-width: 1.5; stroke-linecap: square"/>
   </g>
   <g id="Path3DCollection_1">
    <defs>
     <path id="m1df291e12b" d="M 0 2.236068 
C 0.593012 2.236068 1.161816 2.000462 1.581139 1.581139 
C 2.000462 1.161816 2.236068 0.593012 2.236068 0 
C 2.236068 -0.593012 2.000462 -1.161816 1.581139 -1.581139 
C 1.161816 -2.000462 0.593012 -2.236068 0 -2.236068 
C -0.593012 -2.236068 -1.161816 -2.000462 -1.581139 -1.581139 
C -2.000462 -1.161816 -2.236068 -0.593012 -2.236068 0 
C -2.236068 0.593012 -2.000462 1.161816 -1.581139 1.581139 
C -1.161816 2.000462 -0.593012 2.236068 0 2.236068 
z
" style="stroke: #d62728"/>
    </defs>
    <g clip-path="url(#pcb2882efe9)">
     <use xlink:href="#m1df291e12b" x="188.783554" y="60.960652" style="fill: #d62728; stroke: #d62728"/>
    </g>
   </g>
   <g id="text_22">
    <!--  a0 -->
    <g transform="translate(187.055741 197.41158) scale(0.1 -0.1)">
     <defs>
      <path id="DejaVuSans-20" transform="scale(0.015625)"/>
     </defs>
     <use xlink:href="#DejaVuSans-20"/>
     <use xlink:href="#DejaVuSans-61" x="31.787109"/>
     <use xlink:href="#DejaVuSans-30" x="93.066406"/>
    </g>
   </g>
   <g id="text_23">
    <!--  a1 -->
    <g transform="translate(186.860075 274.833176) scale(0.1 -0.1)">
     <use xlink:href="#DejaVuSans-20"/>
     <use xlink:href="#DejaVuSans-61" x="31.787109"/>
     <use xlink:href="#DejaVuSans-31" x="93.066406"/>
    </g>
   </g>
   <g id="text_24">
    <!--  a2 -->
    <g transform="translate(149.220325 230.100538) scale(0.1 -0.1)">
     <use xlink:href="#DejaVuSans-20"/>
     <use xlink:href="#DejaVuSans-61" x="31.787109"/>
     <use xlink:href="#DejaVuSans-32" x="93.066406"/>
    </g>
   </g>
   <g id="text_25">
    <!--  a3 -->
    <g transform="translate(188.783554 60.960652) scale(0.1 -0.1)">
     <use xlink:href="#DejaVuSans-20"/>
     <use xlink:href="#DejaVuSans-61" x="31.787109"/>
     <use xlink:href="#DejaVuSans-33" x="93.066406"/>
    </g>
   </g>
   <g id="text_26">
    <!--  a4 -->
    <g transform="translate(220.941776 261.58067) scale(0.1 -0.1)">
     <use xlink:href="#DejaVuSans-20"/>
     <use xlink:href="#DejaVuSans-61" x="31.787109"/>
     <use xlink:href="#DejaVuSans-34" x="93.066406"/>
    </g>
   </g>
   <g id="Path3DCollection_2">
    <defs>
     <path id="m1fda7c0f2c" d="M 0 2.236068 
C 0.593012 2.236068 1.161816 2.000462 1.581139 1.581139 
C 2.000462 1.161816 2.236068 0.593012 2.236068 0 
C 2.236068 -0.593012 2.000462 -1.161816 1.581139 -1.581139 
C 1.161816 -2.000462 0.593012 -2.236068 0 -2.236068 
C -0.593012 -2.236068 -1.161816 -2.000462 -1.581139 -1.581139 
C -2.000462 -1.161816 -2.236068 -0.593012 -2.236068 0 
C -2.236068 0.593012 -2.000462 1.161816 -1.581139 1.581139 
C -1.161816 2.000462 -0.593012 2.236068 0 2.236068 
z
" style="stroke: #1f77b4"/>
    </defs>
    <g clip-path="url(#pcb2882efe9)">
     <use xlink:href="#m1fda7c0f2c" x="187.055741" y="197.41158" style="fill: #1f77b4; stroke: #1f77b4"/>
    </g>
   </g>
   <g id="Path3DCollection_3">
    <defs>
     <path id="m104a0530fd" d="M 0 2.236068 
C 0.593012 2.236068 1.161816 2.000462 1.581139 1.581139 
C 2.000462 1.161816 2.236068 0.593012 2.236068 0 
C 2.236068 -0.593012 2.000462 -1.161816 1.581139 -1.581139 
C 1.161816 -2.000462 0.593012 -2.236068 0 -2.236068 
C -0.593012 -2.236068 -1.161816 -2.000462 -1.581139 -1.581139 
C -2.000462 -1.161816 -2.236068 -0.593012 -2.236068 0 
C -2.236068 0.593012 -2.000462 1.161816 -1.581139 1.581139 
C -1.161816 2.000462 -0.593012 2.236068 0 2.236068 
z
" style="stroke: #ff7f0e"/>
    </defs>
    <g clip-path="url(#pcb2882efe9)">
     <use xlink:href="#m104a0530fd" x="186.860075" y="274.833176" style="fill: #ff7f0e; stroke: #ff7f0e"/>
    </g>
   </g>
   <g id="legend_1">
    <g id="patch_6">
     <path d="M 271.907812 96.06875 
L 396.2 96.06875 
Q 398.2 96.06875 398.2 94.06875 
L 398.2 7 
Q 398.2 5 396.2 5 
L 271.907812 5 
Q 269.907812 5 269.907812 7 
L 269.907812 94.06875 
Q 269.907812 96.06875 271.907812 96.06875 
z
" style="fill: #ffffff; opacity: 0.8; stroke: #cccccc; stroke-linejoin: miter"/>
    </g>
    <g id="line2d_23">
     <path d="M 273.907812 13.098437 
L 283.907812 13.098437 
L 293.907812 13.098437 
" style="fill: none; stroke: #1f77b4; stroke-width: 1.5; stroke-linecap: square"/>
    </g>
    <g id="text_27">
     <!-- interpolated curve -->
     <g transform="translate(301.907812 16.598437) scale(0.1 -0.1)">
      <defs>
       <path id="DejaVuSans-6e" d="M 3513 2113 
L 3513 0 
L 2938 0 
L 2938 2094 
Q 2938 2591 2744 2837 
Q 2550 3084 2163 3084 
Q 1697 3084 1428 2787 
Q 1159 2491 1159 1978 
L 1159 0 
L 581 0 
L 581 3500 
L 1159 3500 
L 1159 2956 
Q 1366 3272 1645 3428 
Q 1925 3584 2291 3584 
Q 2894 3584 3203 3211 
Q 3513 2838 3513 2113 
z
" transform="scale(0.015625)"/>
       <path id="DejaVuSans-74" d="M 1172 4494 
L 1172 3500 
L 2356 3500 
L 2356 3053 
L 1172 3053 
L 1172 1153 
Q 1172 725 1289 603 
Q 1406 481 1766 481 
L 2356 481 
L 2356 0 
L 1766 0 
Q 1100 0 847 248 
Q 594 497 594 1153 
L 594 3053 
L 172 3053 
L 172 3500 
L 594 3500 
L 594 4494 
L 1172 4494 
z
" transform="scale(0.015625)"/>
       <path id="DejaVuSans-65" d="M 3597 1894 
L 3597 1613 
L 953 1613 
Q 991 1019 1311 708 
Q 1631 397 2203 397 
Q 2534 397 2845 478 
Q 3156 559 3463 722 
L 3463 178 
Q 3153 47 2828 -22 
Q 2503 -91 2169 -91 
Q 1331 -91 842 396 
Q 353 884 353 1716 
Q 353 2575 817 3079 
Q 1281 3584 2069 3584 
Q 2775 3584 3186 3129 
Q 3597 2675 3597 1894 
z
M 3022 2063 
Q 3016 2534 2758 2815 
Q 2500 3097 2075 3097 
Q 1594 3097 1305 2825 
Q 1016 2553 972 2059 
L 3022 2063 
z
" transform="scale(0.015625)"/>
       <path id="DejaVuSans-72" d="M 2631 2963 
Q 2534 3019 2420 3045 
Q 2306 3072 2169 3072 
Q 1681 3072 1420 2755 
Q 1159 2438 1159 1844 
L 1159 0 
L 581 0 
L 581 3500 
L 1159 3500 
L 1159 2956 
Q 1341 3275 1631 3429 
Q 1922 3584 2338 3584 
Q 2397 3584 2469 3576 
Q 2541 3569 2628 3553 
L 2631 2963 
z
" transform="scale(0.015625)"/>
       <path id="DejaVuSans-70" d="M 1159 525 
L 1159 -1331 
L 581 -1331 
L 581 3500 
L 1159 3500 
L 1159 2969 
Q 1341 3281 1617 3432 
Q 1894 3584 2278 3584 
Q 2916 3584 3314 3078 
Q 3713 2572 3713 1747 
Q 3713 922 3314 415 
Q 2916 -91 2278 -91 
Q 1894 -91 1617 61 
Q 1341 213 1159 525 
z
M 3116 1747 
Q 3116 2381 2855 2742 
Q 2594 3103 2138 3103 
Q 1681 3103 1420 2742 
Q 1159 2381 1159 1747 
Q 1159 1113 1420 752 
Q 1681 391 2138 391 
Q 2594 391 2855 752 
Q 3116 1113 3116 1747 
z
" transform="scale(0.015625)"/>
       <path id="DejaVuSans-6f" d="M 1959 3097 
Q 1497 3097 1228 2736 
Q 959 2375 959 1747 
Q 959 1119 1226 758 
Q 1494 397 1959 397 
Q 2419 397 2687 759 
Q 2956 1122 2956 1747 
Q 2956 2369 2687 2733 
Q 2419 3097 1959 3097 
z
M 1959 3584 
Q 2709 3584 3137 3096 
Q 3566 2609 3566 1747 
Q 3566 888 3137 398 
Q 2709 -91 1959 -91 
Q 1206 -91 779 398 
Q 353 888 353 1747 
Q 353 2609 779 3096 
Q 1206 3584 1959 3584 
z
" transform="scale(0.015625)"/>
       <path id="DejaVuSans-6c" d="M 603 4863 
L 1178 4863 
L 1178 0 
L 603 0 
L 603 4863 
z
" transform="scale(0.015625)"/>
       <path id="DejaVuSans-64" d="M 2906 2969 
L 2906 4863 
L 3481 4863 
L 3481 0 
L 2906 0 
L 2906 525 
Q 2725 213 2448 61 
Q 2172 -91 1784 -91 
Q 1150 -91 751 415 
Q 353 922 353 1747 
Q 353 2572 751 3078 
Q 1150 3584 1784 3584 
Q 2172 3584 2448 3432 
Q 2725 3281 2906 2969 
z
M 947 1747 
Q 947 1113 1208 752 
Q 1469 391 1925 391 
Q 2381 391 2643 752 
Q 2906 1113 2906 1747 
Q 2906 2381 2643 2742 
Q 2381 3103 1925 3103 
Q 1469 3103 1208 2742 
Q 947 2381 947 1747 
z
" transform="scale(0.015625)"/>
       <path id="DejaVuSans-63" d="M 3122 3366 
L 3122 2828 
Q 2878 2963 2633 3030 
Q 2388 3097 2138 3097 
Q 1578 3097 1268 2742 
Q 959 2388 959 1747 
Q 959 1106 1268 751 
Q 1578 397 2138 397 
Q 2388 397 2633 464 
Q 2878 531 3122 666 
L 3122 134 
Q 2881 22 2623 -34 
Q 2366 -91 2075 -91 
Q 1284 -91 818 406 
Q 353 903 353 1747 
Q 353 2603 823 3093 
Q 1294 3584 2113 3584 
Q 2378 3584 2631 3529 
Q 2884 3475 3122 3366 
z
" transform="scale(0.015625)"/>
       <path id="DejaVuSans-75" d="M 544 1381 
L 544 3500 
L 1119 3500 
L 1119 1403 
Q 1119 906 1312 657 
Q 1506 409 1894 409 
Q 2359 409 2629 706 
Q 2900 1003 2900 1516 
L 2900 3500 
L 3475 3500 
L 3475 0 
L 2900 0 
L 2900 538 
Q 2691 219 2414 64 
Q 2138 -91 1772 -91 
Q 1169 -91 856 284 
Q 544 659 544 1381 
z
M 1991 3584 
L 1991 3584 
z
" transform="scale(0.015625)"/>
       <path id="DejaVuSans-76" d="M 191 3500 
L 800 3500 
L 1894 563 
L 2988 3500 
L 3597 3500 
L 2284 0 
L 1503 0 
L 191 3500 
z
" transform="scale(0.015625)"/>
      </defs>
      <use xlink:href="#DejaVuSans-69"/>
      <use xlink:href="#DejaVuSans-6e" x="27.783203"/>
      <use xlink:href="#DejaVuSans-74" x="91.162109"/>
      <use xlink:href="#DejaVuSans-65" x="130.371094"/>
      <use xlink:href="#DejaVuSans-72" x="191.894531"/>
      <use xlink:href="#DejaVuSans-70" x="233.007812"/>
      <use xlink:href="#DejaVuSans-6f" x="296.484375"/>
      <use xlink:href="#DejaVuSans-6c" x="357.666016"/>
      <use xlink:href="#DejaVuSans-61" x="385.449219"/>
      <use xlink:href="#DejaVuSans-74" x="446.728516"/>
      <use xlink:href="#DejaVuSans-65" x="485.9375"/>
      <use xlink:href="#DejaVuSans-64" x="547.460938"/>
      <use xlink:href="#DejaVuSans-20" x="610.9375"/>
      <use xlink:href="#DejaVuSans-63" x="642.724609"/>
      <use xlink:href="#DejaVuSans-75" x="697.705078"/>
      <use xlink:href="#DejaVuSans-72" x="761.083984"/>
      <use xlink:href="#DejaVuSans-76" x="802.197266"/>
      <use xlink:href="#DejaVuSans-65" x="861.376953"/>
     </g>
    </g>
    <g id="Path3DCollection_4">
     <g>
      <use xlink:href="#m1fda7c0f2c" x="283.907812" y="28.651563" style="fill: #1f77b4; stroke: #1f77b4"/>
     </g>
    </g>
    <g id="text_28">
     <!-- a0 -->
     <g transform="translate(301.907812 31.276563) scale(0.1 -0.1)">
      <use xlink:href="#DejaVuSans-61"/>
      <use xlink:href="#DejaVuSans-30" x="61.279297"/>
     </g>
    </g>
    <g id="Path3DCollection_5">
     <g>
      <use xlink:href="#m104a0530fd" x="283.907812" y="43.329687" style="fill: #ff7f0e; stroke: #ff7f0e"/>
     </g>
    </g>
    <g id="text_29">
     <!-- a1 -->
     <g transform="translate(301.907812 45.954687) scale(0.1 -0.1)">
      <use xlink:href="#DejaVuSans-61"/>
      <use xlink:href="#DejaVuSans-31" x="61.279297"/>
     </g>
    </g>
    <g id="Path3DCollection_6">
     <defs>
      <path id="m6130312154" d="M 0 2.236068 
C 0.593012 2.236068 1.161816 2.000462 1.581139 1.581139 
C 2.000462 1.161816 2.236068 0.593012 2.236068 0 
C 2.236068 -0.593012 2.000462 -1.161816 1.581139 -1.581139 
C 1.161816 -2.000462 0.593012 -2.236068 0 -2.236068 
C -0.593012 -2.236068 -1.161816 -2.000462 -1.581139 -1.581139 
C -2.000462 -1.161816 -2.236068 -0.593012 -2.236068 0 
C -2.236068 0.593012 -2.000462 1.161816 -1.581139 1.581139 
C -1.161816 2.000462 -0.593012 2.236068 0 2.236068 
z
" style="stroke: #2ca02c"/>
     </defs>
     <g>
      <use xlink:href="#m6130312154" x="283.907812" y="58.007812" style="fill: #2ca02c; stroke: #2ca02c"/>
     </g>
    </g>
    <g id="text_30">
     <!-- a2 -->
     <g transform="translate(301.907812 60.632812) scale(0.1 -0.1)">
      <use xlink:href="#DejaVuSans-61"/>
      <use xlink:href="#DejaVuSans-32" x="61.279297"/>
     </g>
    </g>
    <g id="Path3DCollection_7">
     <g>
      <use xlink:href="#m1df291e12b" x="283.907812" y="72.685937" style="fill: #d62728; stroke: #d62728"/>
     </g>
    </g>
    <g id="text_31">
     <!-- a3 -->
     <g transform="translate(301.907812 75.310937) scale(0.1 -0.1)">
      <use xlink:href="#DejaVuSans-61"/>
      <use xlink:href="#DejaVuSans-33" x="61.279297"/>
     </g>
    </g>
    <g id="Path3DCollection_8">
     <defs>
      <path id="m764872e56d" d="M 0 2.236068 
C 0.593012 2.236068 1.161816 2.000462 1.581139 1.581139 
C 2.000462 1.161816 2.236068 0.593012 2.236068 0 
C 2.236068 -0.593012 2.000462 -1.161816 1.581139 -1.581139 
C 1.161816 -2.000462 0.593012 -2.236068 0 -2.236068 
C -0.593012 -2.236068 -1.161816 -2.000462 -1.581139 -1.581139 
C -2.000462 -1.161816 -2.236068 -0.593012 -2.236068 0 
C -2.236068 0.593012 -2.000462 1.161816 -1.581139 1.581139 
C -1.161816 2.000462 -0.593012 2.236068 0 2.236068 
z
" style="stroke: #9467bd"/>
     </defs>
     <g>
      <use xlink:href="#m764872e56d" x="283.907812" y="87.364062" style="fill: #9467bd; stroke: #9467bd"/>
     </g>
    </g>
    <g id="text_32">
     <!-- a4 -->
     <g transform="translate(301.907812 89.989062) scale(0.1 -0.1)">
      <use xlink:href="#DejaVuSans-61"/>
      <use xlink:href="#DejaVuSans-34" x="61.279297"/>
     </g>
    </g>
   </g>
   <g id="Path3DCollection_9">
    <g clip-path="url(#pcb2882efe9)">
     <use xlink:href="#m764872e56d" x="220.941776" y="261.58067" style="fill: #9467bd; stroke: #9467bd"/>
    </g>
   </g>
   <g id="Path3DCollection_10">
    <g clip-path="url(#pcb2882efe9)">
     <use xlink:href="#m6130312154" x="149.220325" y="230.100538" style="fill: #2ca02c; stroke: #2ca02c"/>
    </g>
   </g>
  </g>
 </g>
 <defs>
  <clipPath id="pcb2882efe9">
   <rect x="57.6" y="0" width="345.6" height="345.6"/>
  </clipPath>
 </defs>
</svg>
