<?xml version="1.0" encoding="utf-8" standalone="no"?>
<!DOCTYPE svg PUBLIC "-//W3C//DTD SVG 1.1//EN"
  "http://www.w3.org/Graphics/SVG/1.1/DTD/svg11.dtd">
<svg xmlns:xlink="http://www.w3.org/1999/xlink" width="460.8pt" height="345.6pt" viewBox="0 0 460.8 345.6" xmlns="http://www.w3.org/2000/svg" version="1.1">
 <metadata>
  <rdf:RDF xmlns:dc="http://purl.org/dc/elements/1.1/" xmlns:cc="http://creativecommons.org/ns#" xmlns:rdf="http://www.w3.org/1999/02/22-rdf-syntax-ns#">
   <cc:Work>
    <dc:type rdf:resource="http://purl.org/dc/dcmitype/StillImage"/>
    <dc:date>2024-03-05T14:25:19.065085</dc:date>
    <dc:format>image/svg+xml</dc:format>
    <dc:creator>
     <cc:Agent>
      <dc:title>Matplotlib v3.8.2, https://matplotlib.org/</dc:title>
     </cc:Agent>
    </dc:creator>
   </cc:Work>
  </rdf:RDF>
 </metadata>
 <defs>
  <style type="text/css">*{stroke-linejoin: round; stroke-linecap: butt}</style>
 </defs>
 <g id="figure_1">
  <g id="patch_1">
   <path d="M 0 345.6 
L 460.8 345.6 
L 460.8 0 
L 0 0 
z
" style="fill: #ffffff"/>
  </g>
  <g id="patch_2">
   <path d="M 147.456 286.848 
L 430.848 286.848 
L 430.848 3.456 
L 147.456 3.456 
z
" style="fill: #ffffff"/>
  </g>
  <g id="pane3d_1">
   <g id="patch_3">
    <path d="M 183.059831 236.587938 
L 184.107208 45.227775 
L 183.328607 44.435638 
L 182.272792 237.164983 
" style="fill: #f2f2f2; opacity: 0.5; stroke: #f2f2f2; stroke-linejoin: miter"/>
   </g>
  </g>
  <g id="pane3d_2">
   <g id="patch_4">
    <path d="M 184.107208 45.227775 
L 402.772684 46.274301 
L 403.557845 45.489643 
L 183.328607 44.435638 
" style="fill: #e6e6e6; opacity: 0.5; stroke: #e6e6e6; stroke-linejoin: miter"/>
   </g>
  </g>
  <g id="pane3d_3">
   <g id="patch_5">
    <path d="M 183.059831 236.587938 
L 401.9871 237.636971 
L 402.772684 46.274301 
L 184.107208 45.227775 
" style="fill: #ececec; opacity: 0.5; stroke: #ececec; stroke-linejoin: miter"/>
   </g>
  </g>
  <g id="grid3d_1">
   <g id="Line3DCollection_1">
    <path d="M 200.373681 236.670901 
L 201.400354 45.310539 
L 200.745422 44.518994 
" style="fill: none; stroke: #b0b0b0; stroke-width: 0.8"/>
    <path d="M 239.179739 236.856848 
L 240.160008 45.496042 
L 239.782261 44.705822 
" style="fill: none; stroke: #b0b0b0; stroke-width: 0.8"/>
    <path d="M 277.985887 237.042795 
L 278.919752 45.681545 
L 278.81919 44.892651 
" style="fill: none; stroke: #b0b0b0; stroke-width: 0.8"/>
    <path d="M 316.792126 237.228743 
L 317.679586 45.867048 
L 317.856211 45.07948 
" style="fill: none; stroke: #b0b0b0; stroke-width: 0.8"/>
    <path d="M 355.598454 237.414691 
L 356.43951 46.052552 
L 356.893323 45.266309 
" style="fill: none; stroke: #b0b0b0; stroke-width: 0.8"/>
    <path d="M 394.404873 237.60064 
L 395.199524 46.238056 
L 395.930526 45.453139 
" style="fill: none; stroke: #b0b0b0; stroke-width: 0.8"/>
   </g>
  </g>
  <g id="grid3d_2">
   <g id="Line3DCollection_2">
    <path d="M 182.370355 219.355731 
L 183.156614 218.905343 
L 402.059692 219.954145 
" style="fill: none; stroke: #b0b0b0; stroke-width: 0.8"/>
    <path d="M 182.584485 180.268405 
L 183.369031 180.095904 
L 402.219015 181.144197 
" style="fill: none; stroke: #b0b0b0; stroke-width: 0.8"/>
    <path d="M 182.798509 141.200172 
L 183.581344 141.305286 
L 402.378261 142.353071 
" style="fill: none; stroke: #b0b0b0; stroke-width: 0.8"/>
    <path d="M 183.012429 102.151016 
L 183.793555 102.533477 
L 402.537429 103.580754 
" style="fill: none; stroke: #b0b0b0; stroke-width: 0.8"/>
    <path d="M 183.226245 63.120926 
L 184.005663 63.780462 
L 402.69652 64.827231 
" style="fill: none; stroke: #b0b0b0; stroke-width: 0.8"/>
   </g>
  </g>
  <g id="grid3d_3">
   <g id="Line3DCollection_3">
    <path d="M 402.840852 46.206176 
L 184.039609 45.159001 
L 182.9915 236.638037 
" style="fill: none; stroke: #b0b0b0; stroke-width: 0.8"/>
    <path d="M 402.980097 46.067021 
L 183.901528 45.018519 
L 182.851923 236.740373 
" style="fill: none; stroke: #b0b0b0; stroke-width: 0.8"/>
    <path d="M 403.119695 45.927512 
L 183.763096 44.877681 
L 182.711992 236.842969 
" style="fill: none; stroke: #b0b0b0; stroke-width: 0.8"/>
    <path d="M 403.259648 45.787649 
L 183.624313 44.736485 
L 182.571704 236.945825 
" style="fill: none; stroke: #b0b0b0; stroke-width: 0.8"/>
    <path d="M 403.399957 45.64743 
L 183.485176 44.594929 
L 182.431059 237.048944 
" style="fill: none; stroke: #b0b0b0; stroke-width: 0.8"/>
    <path d="M 403.540624 45.506854 
L 183.345685 44.453013 
L 182.290055 237.152326 
" style="fill: none; stroke: #b0b0b0; stroke-width: 0.8"/>
   </g>
  </g>
  <g id="axis3d_1">
   <g id="line2d_1">
    <path d="M 183.059831 236.587938 
L 401.9871 237.636971 
" style="fill: none; stroke: #000000; stroke-width: 0.8; stroke-linecap: square"/>
   </g>
   <g id="xtick_1">
    <g id="line2d_2">
     <path d="M 200.381904 235.1382 
L 200.357234 239.736391 
" style="fill: none; stroke: #000000; stroke-width: 0.8; stroke-linecap: square"/>
    </g>
    <g id="text_1">
     <!-- −0.6 -->
     <g transform="translate(188.203496 259.145164) scale(0.1 -0.1)">
      <defs>
       <path id="DejaVuSans-2212" d="M 678 2272 
L 4684 2272 
L 4684 1741 
L 678 1741 
L 678 2272 
z
" transform="scale(0.015625)"/>
       <path id="DejaVuSans-30" d="M 2034 4250 
Q 1547 4250 1301 3770 
Q 1056 3291 1056 2328 
Q 1056 1369 1301 889 
Q 1547 409 2034 409 
Q 2525 409 2770 889 
Q 3016 1369 3016 2328 
Q 3016 3291 2770 3770 
Q 2525 4250 2034 4250 
z
M 2034 4750 
Q 2819 4750 3233 4129 
Q 3647 3509 3647 2328 
Q 3647 1150 3233 529 
Q 2819 -91 2034 -91 
Q 1250 -91 836 529 
Q 422 1150 422 2328 
Q 422 3509 836 4129 
Q 1250 4750 2034 4750 
z
" transform="scale(0.015625)"/>
       <path id="DejaVuSans-2e" d="M 684 794 
L 1344 794 
L 1344 0 
L 684 0 
L 684 794 
z
" transform="scale(0.015625)"/>
       <path id="DejaVuSans-36" d="M 2113 2584 
Q 1688 2584 1439 2293 
Q 1191 2003 1191 1497 
Q 1191 994 1439 701 
Q 1688 409 2113 409 
Q 2538 409 2786 701 
Q 3034 994 3034 1497 
Q 3034 2003 2786 2293 
Q 2538 2584 2113 2584 
z
M 3366 4563 
L 3366 3988 
Q 3128 4100 2886 4159 
Q 2644 4219 2406 4219 
Q 1781 4219 1451 3797 
Q 1122 3375 1075 2522 
Q 1259 2794 1537 2939 
Q 1816 3084 2150 3084 
Q 2853 3084 3261 2657 
Q 3669 2231 3669 1497 
Q 3669 778 3244 343 
Q 2819 -91 2113 -91 
Q 1303 -91 875 529 
Q 447 1150 447 2328 
Q 447 3434 972 4092 
Q 1497 4750 2381 4750 
Q 2619 4750 2861 4703 
Q 3103 4656 3366 4563 
z
" transform="scale(0.015625)"/>
      </defs>
      <use xlink:href="#DejaVuSans-2212"/>
      <use xlink:href="#DejaVuSans-30" x="83.789062"/>
      <use xlink:href="#DejaVuSans-2e" x="147.412109"/>
      <use xlink:href="#DejaVuSans-36" x="179.199219"/>
     </g>
    </g>
   </g>
   <g id="xtick_2">
    <g id="line2d_3">
     <path d="M 239.187591 235.324143 
L 239.164036 239.922345 
" style="fill: none; stroke: #000000; stroke-width: 0.8; stroke-linecap: square"/>
    </g>
    <g id="text_2">
     <!-- −0.4 -->
     <g transform="translate(226.991687 259.331043) scale(0.1 -0.1)">
      <defs>
       <path id="DejaVuSans-34" d="M 2419 4116 
L 825 1625 
L 2419 1625 
L 2419 4116 
z
M 2253 4666 
L 3047 4666 
L 3047 1625 
L 3713 1625 
L 3713 1100 
L 3047 1100 
L 3047 0 
L 2419 0 
L 2419 1100 
L 313 1100 
L 313 1709 
L 2253 4666 
z
" transform="scale(0.015625)"/>
      </defs>
      <use xlink:href="#DejaVuSans-2212"/>
      <use xlink:href="#DejaVuSans-30" x="83.789062"/>
      <use xlink:href="#DejaVuSans-2e" x="147.412109"/>
      <use xlink:href="#DejaVuSans-34" x="179.199219"/>
     </g>
    </g>
   </g>
   <g id="xtick_3">
    <g id="line2d_4">
     <path d="M 277.993367 235.510087 
L 277.970927 240.108299 
" style="fill: none; stroke: #000000; stroke-width: 0.8; stroke-linecap: square"/>
    </g>
    <g id="text_3">
     <!-- −0.2 -->
     <g transform="translate(265.779969 259.516922) scale(0.1 -0.1)">
      <defs>
       <path id="DejaVuSans-32" d="M 1228 531 
L 3431 531 
L 3431 0 
L 469 0 
L 469 531 
Q 828 903 1448 1529 
Q 2069 2156 2228 2338 
Q 2531 2678 2651 2914 
Q 2772 3150 2772 3378 
Q 2772 3750 2511 3984 
Q 2250 4219 1831 4219 
Q 1534 4219 1204 4116 
Q 875 4013 500 3803 
L 500 4441 
Q 881 4594 1212 4672 
Q 1544 4750 1819 4750 
Q 2544 4750 2975 4387 
Q 3406 4025 3406 3419 
Q 3406 3131 3298 2873 
Q 3191 2616 2906 2266 
Q 2828 2175 2409 1742 
Q 1991 1309 1228 531 
z
" transform="scale(0.015625)"/>
      </defs>
      <use xlink:href="#DejaVuSans-2212"/>
      <use xlink:href="#DejaVuSans-30" x="83.789062"/>
      <use xlink:href="#DejaVuSans-2e" x="147.412109"/>
      <use xlink:href="#DejaVuSans-32" x="179.199219"/>
     </g>
    </g>
   </g>
   <g id="xtick_4">
    <g id="line2d_5">
     <path d="M 316.799234 235.696031 
L 316.777909 240.294254 
" style="fill: none; stroke: #000000; stroke-width: 0.8; stroke-linecap: square"/>
    </g>
    <g id="text_4">
     <!-- 0.0 -->
     <g transform="translate(308.758185 259.702801) scale(0.1 -0.1)">
      <use xlink:href="#DejaVuSans-30"/>
      <use xlink:href="#DejaVuSans-2e" x="63.623047"/>
      <use xlink:href="#DejaVuSans-30" x="95.410156"/>
     </g>
    </g>
   </g>
   <g id="xtick_5">
    <g id="line2d_6">
     <path d="M 355.605191 235.881976 
L 355.584981 240.48021 
" style="fill: none; stroke: #000000; stroke-width: 0.8; stroke-linecap: square"/>
    </g>
    <g id="text_5">
     <!-- 0.2 -->
     <g transform="translate(347.546647 259.888681) scale(0.1 -0.1)">
      <use xlink:href="#DejaVuSans-30"/>
      <use xlink:href="#DejaVuSans-2e" x="63.623047"/>
      <use xlink:href="#DejaVuSans-32" x="95.410156"/>
     </g>
    </g>
   </g>
   <g id="xtick_6">
    <g id="line2d_7">
     <path d="M 394.411238 236.067921 
L 394.392143 240.666165 
" style="fill: none; stroke: #000000; stroke-width: 0.8; stroke-linecap: square"/>
    </g>
    <g id="text_6">
     <!-- 0.4 -->
     <g transform="translate(386.335199 260.074561) scale(0.1 -0.1)">
      <use xlink:href="#DejaVuSans-30"/>
      <use xlink:href="#DejaVuSans-2e" x="63.623047"/>
      <use xlink:href="#DejaVuSans-34" x="95.410156"/>
     </g>
    </g>
   </g>
   <g id="text_7">
    <!-- X-axis -->
    <g transform="translate(277.359254 272.120871) rotate(-359.725458) scale(0.1 -0.1)">
     <defs>
      <path id="DejaVuSans-58" d="M 403 4666 
L 1081 4666 
L 2241 2931 
L 3406 4666 
L 4084 4666 
L 2584 2425 
L 4184 0 
L 3506 0 
L 2194 1984 
L 872 0 
L 191 0 
L 1856 2491 
L 403 4666 
z
" transform="scale(0.015625)"/>
      <path id="DejaVuSans-2d" d="M 313 2009 
L 1997 2009 
L 1997 1497 
L 313 1497 
L 313 2009 
z
" transform="scale(0.015625)"/>
      <path id="DejaVuSans-61" d="M 2194 1759 
Q 1497 1759 1228 1600 
Q 959 1441 959 1056 
Q 959 750 1161 570 
Q 1363 391 1709 391 
Q 2188 391 2477 730 
Q 2766 1069 2766 1631 
L 2766 1759 
L 2194 1759 
z
M 3341 1997 
L 3341 0 
L 2766 0 
L 2766 531 
Q 2569 213 2275 61 
Q 1981 -91 1556 -91 
Q 1019 -91 701 211 
Q 384 513 384 1019 
Q 384 1609 779 1909 
Q 1175 2209 1959 2209 
L 2766 2209 
L 2766 2266 
Q 2766 2663 2505 2880 
Q 2244 3097 1772 3097 
Q 1472 3097 1187 3025 
Q 903 2953 641 2809 
L 641 3341 
Q 956 3463 1253 3523 
Q 1550 3584 1831 3584 
Q 2591 3584 2966 3190 
Q 3341 2797 3341 1997 
z
" transform="scale(0.015625)"/>
      <path id="DejaVuSans-78" d="M 3513 3500 
L 2247 1797 
L 3578 0 
L 2900 0 
L 1881 1375 
L 863 0 
L 184 0 
L 1544 1831 
L 300 3500 
L 978 3500 
L 1906 2253 
L 2834 3500 
L 3513 3500 
z
" transform="scale(0.015625)"/>
      <path id="DejaVuSans-69" d="M 603 3500 
L 1178 3500 
L 1178 0 
L 603 0 
L 603 3500 
z
M 603 4863 
L 1178 4863 
L 1178 4134 
L 603 4134 
L 603 4863 
z
" transform="scale(0.015625)"/>
      <path id="DejaVuSans-73" d="M 2834 3397 
L 2834 2853 
Q 2591 2978 2328 3040 
Q 2066 3103 1784 3103 
Q 1356 3103 1142 2972 
Q 928 2841 928 2578 
Q 928 2378 1081 2264 
Q 1234 2150 1697 2047 
L 1894 2003 
Q 2506 1872 2764 1633 
Q 3022 1394 3022 966 
Q 3022 478 2636 193 
Q 2250 -91 1575 -91 
Q 1294 -91 989 -36 
Q 684 19 347 128 
L 347 722 
Q 666 556 975 473 
Q 1284 391 1588 391 
Q 1994 391 2212 530 
Q 2431 669 2431 922 
Q 2431 1156 2273 1281 
Q 2116 1406 1581 1522 
L 1381 1569 
Q 847 1681 609 1914 
Q 372 2147 372 2553 
Q 372 3047 722 3315 
Q 1072 3584 1716 3584 
Q 2034 3584 2315 3537 
Q 2597 3491 2834 3397 
z
" transform="scale(0.015625)"/>
     </defs>
     <use xlink:href="#DejaVuSans-58"/>
     <use xlink:href="#DejaVuSans-2d" x="63.505859"/>
     <use xlink:href="#DejaVuSans-61" x="99.589844"/>
     <use xlink:href="#DejaVuSans-78" x="160.869141"/>
     <use xlink:href="#DejaVuSans-69" x="220.048828"/>
     <use xlink:href="#DejaVuSans-73" x="247.832031"/>
    </g>
   </g>
  </g>
  <g id="axis3d_2">
   <g id="line2d_8">
    <path d="M 402.772684 46.274301 
L 401.9871 237.636971 
" style="fill: none; stroke: #000000; stroke-width: 0.8; stroke-linecap: square"/>
   </g>
   <g id="xtick_7">
    <g id="line2d_9">
     <path d="M 400.308456 219.945754 
L 405.562164 219.970926 
" style="fill: none; stroke: #000000; stroke-width: 0.8; stroke-linecap: square"/>
    </g>
    <g id="text_8">
     <!-- −0.4 -->
     <g transform="translate(406.904044 227.59885) scale(0.1 -0.1)">
      <use xlink:href="#DejaVuSans-2212"/>
      <use xlink:href="#DejaVuSans-30" x="83.789062"/>
      <use xlink:href="#DejaVuSans-2e" x="147.412109"/>
      <use xlink:href="#DejaVuSans-34" x="179.199219"/>
     </g>
    </g>
   </g>
   <g id="xtick_8">
    <g id="line2d_10">
     <path d="M 400.468204 181.13581 
L 405.720638 181.160969 
" style="fill: none; stroke: #000000; stroke-width: 0.8; stroke-linecap: square"/>
    </g>
    <g id="text_9">
     <!-- −0.2 -->
     <g transform="translate(407.059161 188.810348) scale(0.1 -0.1)">
      <use xlink:href="#DejaVuSans-2212"/>
      <use xlink:href="#DejaVuSans-30" x="83.789062"/>
      <use xlink:href="#DejaVuSans-2e" x="147.412109"/>
      <use xlink:href="#DejaVuSans-32" x="179.199219"/>
     </g>
    </g>
   </g>
   <g id="xtick_9">
    <g id="line2d_11">
     <path d="M 400.627874 142.344688 
L 405.879034 142.369835 
" style="fill: none; stroke: #000000; stroke-width: 0.8; stroke-linecap: square"/>
    </g>
    <g id="text_10">
     <!-- 0.0 -->
     <g transform="translate(411.404047 150.040648) scale(0.1 -0.1)">
      <use xlink:href="#DejaVuSans-30"/>
      <use xlink:href="#DejaVuSans-2e" x="63.623047"/>
      <use xlink:href="#DejaVuSans-30" x="95.410156"/>
     </g>
    </g>
   </g>
   <g id="xtick_10">
    <g id="line2d_12">
     <path d="M 400.787467 103.572375 
L 406.037354 103.59751 
" style="fill: none; stroke: #000000; stroke-width: 0.8; stroke-linecap: square"/>
    </g>
    <g id="text_11">
     <!-- 0.2 -->
     <g transform="translate(411.559014 111.289735) scale(0.1 -0.1)">
      <use xlink:href="#DejaVuSans-30"/>
      <use xlink:href="#DejaVuSans-2e" x="63.623047"/>
      <use xlink:href="#DejaVuSans-32" x="95.410156"/>
     </g>
    </g>
   </g>
   <g id="xtick_11">
    <g id="line2d_13">
     <path d="M 400.946982 64.818857 
L 406.195597 64.84398 
" style="fill: none; stroke: #000000; stroke-width: 0.8; stroke-linecap: square"/>
    </g>
    <g id="text_12">
     <!-- 0.4 -->
     <g transform="translate(411.713906 72.557596) scale(0.1 -0.1)">
      <use xlink:href="#DejaVuSans-30"/>
      <use xlink:href="#DejaVuSans-2e" x="63.623047"/>
      <use xlink:href="#DejaVuSans-34" x="95.410156"/>
     </g>
    </g>
   </g>
   <g id="text_13">
    <!-- Y-axis -->
    <g transform="translate(441.964093 156.385051) rotate(-89.76479) scale(0.1 -0.1)">
     <defs>
      <path id="DejaVuSans-59" d="M -13 4666 
L 666 4666 
L 1959 2747 
L 3244 4666 
L 3922 4666 
L 2272 2222 
L 2272 0 
L 1638 0 
L 1638 2222 
L -13 4666 
z
" transform="scale(0.015625)"/>
     </defs>
     <use xlink:href="#DejaVuSans-59"/>
     <use xlink:href="#DejaVuSans-2d" x="49.208984"/>
     <use xlink:href="#DejaVuSans-61" x="85.292969"/>
     <use xlink:href="#DejaVuSans-78" x="146.572266"/>
     <use xlink:href="#DejaVuSans-69" x="205.751953"/>
     <use xlink:href="#DejaVuSans-73" x="233.535156"/>
    </g>
   </g>
  </g>
  <g id="axis3d_3">
   <g id="line2d_14">
    <path d="M 402.772684 46.274301 
L 403.557845 45.489643 
" style="fill: none; stroke: #000000; stroke-width: 0.8; stroke-linecap: square"/>
   </g>
   <g id="xtick_12">
    <g id="line2d_15">
     <path d="M 401.090431 46.197799 
L 406.341696 46.222931 
" style="fill: none; stroke: #000000; stroke-width: 0.8; stroke-linecap: square"/>
    </g>
    <g id="text_14">
     <!-- 0.00 -->
     <g transform="translate(408.815254 38.986473) scale(0.1 -0.1)">
      <use xlink:href="#DejaVuSans-30"/>
      <use xlink:href="#DejaVuSans-2e" x="63.623047"/>
      <use xlink:href="#DejaVuSans-30" x="95.410156"/>
      <use xlink:href="#DejaVuSans-30" x="159.033203"/>
     </g>
    </g>
   </g>
   <g id="xtick_13">
    <g id="line2d_16">
     <path d="M 401.227457 46.058633 
L 406.485378 46.083797 
" style="fill: none; stroke: #000000; stroke-width: 0.8; stroke-linecap: square"/>
    </g>
    <g id="text_15">
     <!-- 0.01 -->
     <g transform="translate(408.976166 38.828551) scale(0.1 -0.1)">
      <defs>
       <path id="DejaVuSans-31" d="M 794 531 
L 1825 531 
L 1825 4091 
L 703 3866 
L 703 4441 
L 1819 4666 
L 2450 4666 
L 2450 531 
L 3481 531 
L 3481 0 
L 794 0 
L 794 531 
z
" transform="scale(0.015625)"/>
      </defs>
      <use xlink:href="#DejaVuSans-30"/>
      <use xlink:href="#DejaVuSans-2e" x="63.623047"/>
      <use xlink:href="#DejaVuSans-30" x="95.410156"/>
      <use xlink:href="#DejaVuSans-31" x="159.033203"/>
     </g>
    </g>
   </g>
   <g id="xtick_14">
    <g id="line2d_17">
     <path d="M 401.364831 45.919113 
L 406.629424 45.94431 
" style="fill: none; stroke: #000000; stroke-width: 0.8; stroke-linecap: square"/>
    </g>
    <g id="text_16">
     <!-- 0.02 -->
     <g transform="translate(409.137488 38.670228) scale(0.1 -0.1)">
      <use xlink:href="#DejaVuSans-30"/>
      <use xlink:href="#DejaVuSans-2e" x="63.623047"/>
      <use xlink:href="#DejaVuSans-30" x="95.410156"/>
      <use xlink:href="#DejaVuSans-32" x="159.033203"/>
     </g>
    </g>
   </g>
   <g id="xtick_15">
    <g id="line2d_18">
     <path d="M 401.502554 45.77924 
L 406.773837 45.804468 
" style="fill: none; stroke: #000000; stroke-width: 0.8; stroke-linecap: square"/>
    </g>
    <g id="text_17">
     <!-- 0.03 -->
     <g transform="translate(409.299219 38.511502) scale(0.1 -0.1)">
      <defs>
       <path id="DejaVuSans-33" d="M 2597 2516 
Q 3050 2419 3304 2112 
Q 3559 1806 3559 1356 
Q 3559 666 3084 287 
Q 2609 -91 1734 -91 
Q 1441 -91 1130 -33 
Q 819 25 488 141 
L 488 750 
Q 750 597 1062 519 
Q 1375 441 1716 441 
Q 2309 441 2620 675 
Q 2931 909 2931 1356 
Q 2931 1769 2642 2001 
Q 2353 2234 1838 2234 
L 1294 2234 
L 1294 2753 
L 1863 2753 
Q 2328 2753 2575 2939 
Q 2822 3125 2822 3475 
Q 2822 3834 2567 4026 
Q 2313 4219 1838 4219 
Q 1578 4219 1281 4162 
Q 984 4106 628 3988 
L 628 4550 
Q 988 4650 1302 4700 
Q 1616 4750 1894 4750 
Q 2613 4750 3031 4423 
Q 3450 4097 3450 3541 
Q 3450 3153 3228 2886 
Q 3006 2619 2597 2516 
z
" transform="scale(0.015625)"/>
      </defs>
      <use xlink:href="#DejaVuSans-30"/>
      <use xlink:href="#DejaVuSans-2e" x="63.623047"/>
      <use xlink:href="#DejaVuSans-30" x="95.410156"/>
      <use xlink:href="#DejaVuSans-33" x="159.033203"/>
     </g>
    </g>
   </g>
   <g id="xtick_16">
    <g id="line2d_19">
     <path d="M 401.640627 45.63901 
L 406.918617 45.66427 
" style="fill: none; stroke: #000000; stroke-width: 0.8; stroke-linecap: square"/>
    </g>
    <g id="text_18">
     <!-- 0.04 -->
     <g transform="translate(409.461362 38.352373) scale(0.1 -0.1)">
      <use xlink:href="#DejaVuSans-30"/>
      <use xlink:href="#DejaVuSans-2e" x="63.623047"/>
      <use xlink:href="#DejaVuSans-30" x="95.410156"/>
      <use xlink:href="#DejaVuSans-34" x="159.033203"/>
     </g>
    </g>
   </g>
   <g id="xtick_17">
    <g id="line2d_20">
     <path d="M 401.779053 45.498423 
L 407.063766 45.523715 
" style="fill: none; stroke: #000000; stroke-width: 0.8; stroke-linecap: square"/>
    </g>
    <g id="text_19">
     <!-- 0.05 -->
     <g transform="translate(409.623917 38.192838) scale(0.1 -0.1)">
      <defs>
       <path id="DejaVuSans-35" d="M 691 4666 
L 3169 4666 
L 3169 4134 
L 1269 4134 
L 1269 2991 
Q 1406 3038 1543 3061 
Q 1681 3084 1819 3084 
Q 2600 3084 3056 2656 
Q 3513 2228 3513 1497 
Q 3513 744 3044 326 
Q 2575 -91 1722 -91 
Q 1428 -91 1123 -41 
Q 819 9 494 109 
L 494 744 
Q 775 591 1075 516 
Q 1375 441 1709 441 
Q 2250 441 2565 725 
Q 2881 1009 2881 1497 
Q 2881 1984 2565 2268 
Q 2250 2553 1709 2553 
Q 1456 2553 1204 2497 
Q 953 2441 691 2322 
L 691 4666 
z
" transform="scale(0.015625)"/>
      </defs>
      <use xlink:href="#DejaVuSans-30"/>
      <use xlink:href="#DejaVuSans-2e" x="63.623047"/>
      <use xlink:href="#DejaVuSans-30" x="95.410156"/>
      <use xlink:href="#DejaVuSans-35" x="159.033203"/>
     </g>
    </g>
   </g>
   <g id="text_20">
    <!-- Z-axis -->
    <g transform="translate(431.687024 26.246009) rotate(-44.981612) scale(0.1 -0.1)">
     <defs>
      <path id="DejaVuSans-5a" d="M 359 4666 
L 4025 4666 
L 4025 4184 
L 1075 531 
L 4097 531 
L 4097 0 
L 288 0 
L 288 481 
L 3238 4134 
L 359 4134 
L 359 4666 
z
" transform="scale(0.015625)"/>
     </defs>
     <use xlink:href="#DejaVuSans-5a"/>
     <use xlink:href="#DejaVuSans-2d" x="66.755859"/>
     <use xlink:href="#DejaVuSans-61" x="102.839844"/>
     <use xlink:href="#DejaVuSans-78" x="164.119141"/>
     <use xlink:href="#DejaVuSans-69" x="223.298828"/>
     <use xlink:href="#DejaVuSans-73" x="251.082031"/>
    </g>
   </g>
  </g>
  <g id="axes_1">
   <g id="line2d_21">
    <path d="M 204.06046 141.394377 
L 204.205881 136.802317 
L 204.592707 132.223118 
L 205.220062 127.668173 
L 206.086557 123.148796 
L 207.190292 118.676182 
L 208.528882 114.26137 
L 210.099475 109.915213 
L 211.898779 105.648346 
L 213.923096 101.471159 
L 216.16836 97.393775 
L 218.630172 93.42603 
L 221.303853 89.577462 
L 224.184487 85.857306 
L 227.266978 82.274495 
L 230.546104 78.837668 
L 234.016579 75.555197 
L 237.673111 72.435214 
L 241.510465 69.485663 
L 245.523521 66.714356 
L 249.707338 64.129052 
L 254.057199 61.737562 
L 258.568661 59.547862 
L 263.237583 57.568242 
L 268.060138 55.807476 
L 273.032805 54.275022 
L 278.152314 52.981254 
L 283.41556 51.937721 
L 288.81945 51.157435 
L 294.360677 50.655185 
L 300.035401 50.447859 
L 305.838815 50.554776 
L 311.764579 50.997982 
L 317.804087 51.8025 
L 323.945565 52.996464 
L 330.172979 54.611099 
L 336.464759 56.680441 
L 339.626186 57.89689 
L 342.79238 59.240726 
L 345.958442 60.716647 
L 349.118847 62.329328 
L 352.267407 64.083355 
L 355.397226 65.983147 
L 358.500677 68.032874 
L 361.56937 70.236357 
L 364.594151 72.596964 
L 367.565098 75.11749 
L 370.471542 77.800036 
L 373.302108 80.645882 
L 376.044775 83.655353 
L 378.686957 86.82769 
L 381.215612 90.160926 
L 383.617377 93.651771 
L 385.878722 97.295514 
L 387.986136 101.085946 
L 389.926319 105.015307 
L 391.686406 109.074264 
L 393.254192 113.251929 
L 394.618359 117.535908 
L 395.768705 121.912396 
L 396.696363 126.366313 
L 397.393988 130.881471 
L 397.855929 135.440784 
L 398.078362 140.026502 
L 398.059379 144.620471 
L 397.799035 149.204403 
L 397.299346 153.760155 
L 396.564245 158.269998 
L 395.599487 162.716876 
L 394.412515 167.084642 
L 393.012294 171.358262 
L 391.409116 175.52399 
L 389.614381 179.569497 
L 387.64037 183.483962 
L 385.500019 187.258129 
L 383.206686 190.884316 
L 380.773936 194.356394 
L 378.215343 197.669736 
L 375.544309 200.821136 
L 372.773903 203.808712 
L 369.916734 206.631787 
L 366.984838 209.290767 
L 363.989599 211.787009 
L 360.941689 214.122691 
L 357.851026 216.30068 
L 354.726762 218.324412 
L 351.577271 220.197772 
L 348.410171 221.92499 
L 345.232338 223.510542 
L 342.049943 224.959065 
L 338.86849 226.275281 
L 335.692857 227.463934 
L 329.37573 229.477305 
L 323.126906 231.035694 
L 316.96777 232.173366 
L 310.914183 232.921731 
L 304.977759 233.309078 
L 299.166957 233.360557 
L 293.487986 233.098324 
L 287.945539 232.541791 
L 282.543352 231.707934 
L 277.284644 230.611622 
L 272.17243 229.265946 
L 267.209745 227.682535 
L 262.399791 225.871841 
L 257.746032 223.843408 
L 253.252235 221.606097 
L 248.922483 219.168287 
L 244.76116 216.538049 
L 240.772919 213.723288 
L 236.962638 210.731866 
L 233.335362 207.571695 
L 229.896252 204.250821 
L 226.650514 200.777478 
L 223.603346 197.160139 
L 220.759872 193.407545 
L 218.125081 189.528726 
L 215.703777 185.533009 
L 213.50052 181.430022 
L 211.51958 177.229686 
L 209.764892 172.942199 
L 208.240014 168.578023 
L 206.948089 164.147854 
L 205.891821 159.6626 
L 205.07344 155.133345 
L 204.494686 150.571318 
L 204.156789 145.987859 
L 204.06046 141.394377 
L 204.06046 141.394377 
" clip-path="url(#p8b39cdf354)" style="fill: none; stroke: #1f77b4; stroke-width: 1.5; stroke-linecap: square"/>
   </g>
   <g id="line2d_22">
    <path d="M 317.24908 141.9366 
L 284.909718 141.781731 
" clip-path="url(#p8b39cdf354)" style="fill: none; stroke: #000000; stroke-width: 1.5; stroke-linecap: square"/>
    <defs>
     <path id="m1e6794b08b" d="M 0 1.5 
C 0.397805 1.5 0.77937 1.341951 1.06066 1.06066 
C 1.341951 0.77937 1.5 0.397805 1.5 0 
C 1.5 -0.397805 1.341951 -0.77937 1.06066 -1.06066 
C 0.77937 -1.341951 0.397805 -1.5 0 -1.5 
C -0.397805 -1.5 -0.77937 -1.341951 -1.06066 -1.06066 
C -1.341951 -0.77937 -1.5 -0.397805 -1.5 0 
C -1.5 0.397805 -1.341951 0.77937 -1.06066 1.06066 
C -0.77937 1.341951 -0.397805 1.5 0 1.5 
z
" style="stroke: #000000"/>
    </defs>
    <g clip-path="url(#p8b39cdf354)">
     <use xlink:href="#m1e6794b08b" x="317.24908" y="141.9366" style="stroke: #000000"/>
     <use xlink:href="#m1e6794b08b" x="284.909718" y="141.781731" style="stroke: #000000"/>
    </g>
   </g>
   <g id="line2d_23">
    <path d="M 284.909718 141.781731 
L 284.909615 141.781551 
" clip-path="url(#p8b39cdf354)" style="fill: none; stroke-dasharray: 9.6,2.4,1.5,2.4; stroke-dashoffset: 0; stroke: #000000; stroke-width: 1.5"/>
    <g clip-path="url(#p8b39cdf354)">
     <use xlink:href="#m1e6794b08b" x="284.909718" y="141.781731" style="stroke: #000000"/>
     <use xlink:href="#m1e6794b08b" x="284.909615" y="141.781551" style="stroke: #000000"/>
    </g>
   </g>
   <g id="line2d_24">
    <path d="M 284.909615 141.781551 
L 252.029587 50.568485 
" clip-path="url(#p8b39cdf354)" style="fill: none; stroke: #000000; stroke-width: 1.5; stroke-linecap: square"/>
    <g clip-path="url(#p8b39cdf354)">
     <use xlink:href="#m1e6794b08b" x="284.909615" y="141.781551" style="stroke: #000000"/>
     <use xlink:href="#m1e6794b08b" x="252.029587" y="50.568485" style="stroke: #000000"/>
    </g>
   </g>
   <g id="line2d_25">
    <path d="M 252.029587 50.568485 
L 252.029069 50.56715 
" clip-path="url(#p8b39cdf354)" style="fill: none; stroke-dasharray: 9.6,2.4,1.5,2.4; stroke-dashoffset: 0; stroke: #000000; stroke-width: 1.5"/>
    <g clip-path="url(#p8b39cdf354)">
     <use xlink:href="#m1e6794b08b" x="252.029587" y="50.568485" style="stroke: #000000"/>
     <use xlink:href="#m1e6794b08b" x="252.029069" y="50.56715" style="stroke: #000000"/>
    </g>
   </g>
   <g id="line2d_26">
    <path d="M 252.029069 50.56715 
L 241.65642 81.169628 
" clip-path="url(#p8b39cdf354)" style="fill: none; stroke: #000000; stroke-width: 1.5; stroke-linecap: square"/>
    <g clip-path="url(#p8b39cdf354)">
     <use xlink:href="#m1e6794b08b" x="252.029069" y="50.56715" style="stroke: #000000"/>
     <use xlink:href="#m1e6794b08b" x="241.65642" y="81.169628" style="stroke: #000000"/>
    </g>
   </g>
   <g id="line2d_27">
    <path d="M 241.65642 81.169628 
L 241.65707 81.170576 
" clip-path="url(#p8b39cdf354)" style="fill: none; stroke-dasharray: 9.6,2.4,1.5,2.4; stroke-dashoffset: 0; stroke: #000000; stroke-width: 1.5"/>
    <g clip-path="url(#p8b39cdf354)">
     <use xlink:href="#m1e6794b08b" x="241.65642" y="81.169628" style="stroke: #000000"/>
     <use xlink:href="#m1e6794b08b" x="241.65707" y="81.170576" style="stroke: #000000"/>
    </g>
   </g>
   <g id="line2d_28">
    <path d="M 241.65707 81.170576 
L 317.249387 141.936422 
" clip-path="url(#p8b39cdf354)" style="fill: none; stroke: #000000; stroke-width: 1.5; stroke-linecap: square"/>
    <g clip-path="url(#p8b39cdf354)">
     <use xlink:href="#m1e6794b08b" x="241.65707" y="81.170576" style="stroke: #000000"/>
     <use xlink:href="#m1e6794b08b" x="317.249387" y="141.936422" style="stroke: #000000"/>
    </g>
   </g>
   <g id="line2d_29">
    <path d="M 317.249387 141.936422 
L 317.24908 141.9366 
" clip-path="url(#p8b39cdf354)" style="fill: none; stroke-dasharray: 9.6,2.4,1.5,2.4; stroke-dashoffset: 0; stroke: #000000; stroke-width: 1.5"/>
    <g clip-path="url(#p8b39cdf354)">
     <use xlink:href="#m1e6794b08b" x="317.249387" y="141.936422" style="stroke: #000000"/>
     <use xlink:href="#m1e6794b08b" x="317.24908" y="141.9366" style="stroke: #000000"/>
    </g>
   </g>
   <g id="line2d_30">
    <path d="M 252.029069 50.56715 
L 246.843241 65.866925 
L 241.65642 81.169628 
" clip-path="url(#p8b39cdf354)" style="fill: none; stroke-dasharray: 5.55,2.4; stroke-dashoffset: 0; stroke: #800080; stroke-width: 1.5"/>
   </g>
   <g id="Line3DCollection_4">
    <path d="M 237.658818 62.75945 
L 246.843241 65.866925 
" clip-path="url(#p8b39cdf354)" style="fill: none; stroke: #0000ff; stroke-width: 1.5"/>
    <path d="M 237.658818 62.75945 
L 240.346094 63.705276 
" clip-path="url(#p8b39cdf354)" style="fill: none; stroke: #0000ff; stroke-width: 1.5"/>
    <path d="M 237.658818 62.75945 
L 240.294327 63.614509 
" clip-path="url(#p8b39cdf354)" style="fill: none; stroke: #0000ff; stroke-width: 1.5"/>
   </g>
   <g id="Line3DCollection_5">
    <path d="M 243.731268 75.048195 
L 246.843241 65.866925 
" clip-path="url(#p8b39cdf354)" style="fill: none; stroke: #ff0000; stroke-width: 1.5"/>
    <path d="M 243.731268 75.048195 
L 244.656839 72.428635 
" clip-path="url(#p8b39cdf354)" style="fill: none; stroke: #ff0000; stroke-width: 1.5"/>
    <path d="M 243.731268 75.048195 
L 244.609308 72.346443 
" clip-path="url(#p8b39cdf354)" style="fill: none; stroke: #ff0000; stroke-width: 1.5"/>
   </g>
   <g id="Line3DCollection_6">
    <path d="M 246.549313 65.292757 
L 246.843241 65.866925 
" clip-path="url(#p8b39cdf354)" style="fill: none; stroke: #008000; stroke-width: 1.5"/>
    <path d="M 246.549313 65.292757 
L 245.878517 65.456269 
" clip-path="url(#p8b39cdf354)" style="fill: none; stroke: #008000; stroke-width: 1.5"/>
    <path d="M 246.549313 65.292757 
L 247.391226 65.46351 
" clip-path="url(#p8b39cdf354)" style="fill: none; stroke: #008000; stroke-width: 1.5"/>
   </g>
   <g id="legend_1">
    <g id="patch_6">
     <path d="M 314.6355 40.81225 
L 423.848 40.81225 
Q 425.848 40.81225 425.848 38.81225 
L 425.848 10.456 
Q 425.848 8.456 423.848 8.456 
L 314.6355 8.456 
Q 312.6355 8.456 312.6355 10.456 
L 312.6355 38.81225 
Q 312.6355 40.81225 314.6355 40.81225 
z
" style="fill: #ffffff; opacity: 0.8; stroke: #cccccc; stroke-linejoin: miter"/>
    </g>
    <g id="line2d_31">
     <path d="M 316.6355 16.554438 
L 326.6355 16.554438 
L 336.6355 16.554438 
" style="fill: none; stroke: #1f77b4; stroke-width: 1.5; stroke-linecap: square"/>
    </g>
    <g id="text_21">
     <!-- tool path -->
     <g transform="translate(344.6355 20.054438) scale(0.1 -0.1)">
      <defs>
       <path id="DejaVuSans-74" d="M 1172 4494 
L 1172 3500 
L 2356 3500 
L 2356 3053 
L 1172 3053 
L 1172 1153 
Q 1172 725 1289 603 
Q 1406 481 1766 481 
L 2356 481 
L 2356 0 
L 1766 0 
Q 1100 0 847 248 
Q 594 497 594 1153 
L 594 3053 
L 172 3053 
L 172 3500 
L 594 3500 
L 594 4494 
L 1172 4494 
z
" transform="scale(0.015625)"/>
       <path id="DejaVuSans-6f" d="M 1959 3097 
Q 1497 3097 1228 2736 
Q 959 2375 959 1747 
Q 959 1119 1226 758 
Q 1494 397 1959 397 
Q 2419 397 2687 759 
Q 2956 1122 2956 1747 
Q 2956 2369 2687 2733 
Q 2419 3097 1959 3097 
z
M 1959 3584 
Q 2709 3584 3137 3096 
Q 3566 2609 3566 1747 
Q 3566 888 3137 398 
Q 2709 -91 1959 -91 
Q 1206 -91 779 398 
Q 353 888 353 1747 
Q 353 2609 779 3096 
Q 1206 3584 1959 3584 
z
" transform="scale(0.015625)"/>
       <path id="DejaVuSans-6c" d="M 603 4863 
L 1178 4863 
L 1178 0 
L 603 0 
L 603 4863 
z
" transform="scale(0.015625)"/>
       <path id="DejaVuSans-20" transform="scale(0.015625)"/>
       <path id="DejaVuSans-70" d="M 1159 525 
L 1159 -1331 
L 581 -1331 
L 581 3500 
L 1159 3500 
L 1159 2969 
Q 1341 3281 1617 3432 
Q 1894 3584 2278 3584 
Q 2916 3584 3314 3078 
Q 3713 2572 3713 1747 
Q 3713 922 3314 415 
Q 2916 -91 2278 -91 
Q 1894 -91 1617 61 
Q 1341 213 1159 525 
z
M 3116 1747 
Q 3116 2381 2855 2742 
Q 2594 3103 2138 3103 
Q 1681 3103 1420 2742 
Q 1159 2381 1159 1747 
Q 1159 1113 1420 752 
Q 1681 391 2138 391 
Q 2594 391 2855 752 
Q 3116 1113 3116 1747 
z
" transform="scale(0.015625)"/>
       <path id="DejaVuSans-68" d="M 3513 2113 
L 3513 0 
L 2938 0 
L 2938 2094 
Q 2938 2591 2744 2837 
Q 2550 3084 2163 3084 
Q 1697 3084 1428 2787 
Q 1159 2491 1159 1978 
L 1159 0 
L 581 0 
L 581 4863 
L 1159 4863 
L 1159 2956 
Q 1366 3272 1645 3428 
Q 1925 3584 2291 3584 
Q 2894 3584 3203 3211 
Q 3513 2838 3513 2113 
z
" transform="scale(0.015625)"/>
      </defs>
      <use xlink:href="#DejaVuSans-74"/>
      <use xlink:href="#DejaVuSans-6f" x="39.208984"/>
      <use xlink:href="#DejaVuSans-6f" x="100.390625"/>
      <use xlink:href="#DejaVuSans-6c" x="161.572266"/>
      <use xlink:href="#DejaVuSans-20" x="189.355469"/>
      <use xlink:href="#DejaVuSans-70" x="221.142578"/>
      <use xlink:href="#DejaVuSans-61" x="284.619141"/>
      <use xlink:href="#DejaVuSans-74" x="345.898438"/>
      <use xlink:href="#DejaVuSans-68" x="385.107422"/>
     </g>
    </g>
    <g id="line2d_32">
     <path d="M 316.6355 31.232563 
L 326.6355 31.232563 
L 336.6355 31.232563 
" style="fill: none; stroke-dasharray: 5.55,2.4; stroke-dashoffset: 0; stroke: #800080; stroke-width: 1.5"/>
    </g>
    <g id="text_22">
     <!-- tool connection -->
     <g transform="translate(344.6355 34.732563) scale(0.1 -0.1)">
      <defs>
       <path id="DejaVuSans-63" d="M 3122 3366 
L 3122 2828 
Q 2878 2963 2633 3030 
Q 2388 3097 2138 3097 
Q 1578 3097 1268 2742 
Q 959 2388 959 1747 
Q 959 1106 1268 751 
Q 1578 397 2138 397 
Q 2388 397 2633 464 
Q 2878 531 3122 666 
L 3122 134 
Q 2881 22 2623 -34 
Q 2366 -91 2075 -91 
Q 1284 -91 818 406 
Q 353 903 353 1747 
Q 353 2603 823 3093 
Q 1294 3584 2113 3584 
Q 2378 3584 2631 3529 
Q 2884 3475 3122 3366 
z
" transform="scale(0.015625)"/>
       <path id="DejaVuSans-6e" d="M 3513 2113 
L 3513 0 
L 2938 0 
L 2938 2094 
Q 2938 2591 2744 2837 
Q 2550 3084 2163 3084 
Q 1697 3084 1428 2787 
Q 1159 2491 1159 1978 
L 1159 0 
L 581 0 
L 581 3500 
L 1159 3500 
L 1159 2956 
Q 1366 3272 1645 3428 
Q 1925 3584 2291 3584 
Q 2894 3584 3203 3211 
Q 3513 2838 3513 2113 
z
" transform="scale(0.015625)"/>
       <path id="DejaVuSans-65" d="M 3597 1894 
L 3597 1613 
L 953 1613 
Q 991 1019 1311 708 
Q 1631 397 2203 397 
Q 2534 397 2845 478 
Q 3156 559 3463 722 
L 3463 178 
Q 3153 47 2828 -22 
Q 2503 -91 2169 -91 
Q 1331 -91 842 396 
Q 353 884 353 1716 
Q 353 2575 817 3079 
Q 1281 3584 2069 3584 
Q 2775 3584 3186 3129 
Q 3597 2675 3597 1894 
z
M 3022 2063 
Q 3016 2534 2758 2815 
Q 2500 3097 2075 3097 
Q 1594 3097 1305 2825 
Q 1016 2553 972 2059 
L 3022 2063 
z
" transform="scale(0.015625)"/>
      </defs>
      <use xlink:href="#DejaVuSans-74"/>
      <use xlink:href="#DejaVuSans-6f" x="39.208984"/>
      <use xlink:href="#DejaVuSans-6f" x="100.390625"/>
      <use xlink:href="#DejaVuSans-6c" x="161.572266"/>
      <use xlink:href="#DejaVuSans-20" x="189.355469"/>
      <use xlink:href="#DejaVuSans-63" x="221.142578"/>
      <use xlink:href="#DejaVuSans-6f" x="276.123047"/>
      <use xlink:href="#DejaVuSans-6e" x="337.304688"/>
      <use xlink:href="#DejaVuSans-6e" x="400.683594"/>
      <use xlink:href="#DejaVuSans-65" x="464.0625"/>
      <use xlink:href="#DejaVuSans-63" x="525.585938"/>
      <use xlink:href="#DejaVuSans-74" x="580.566406"/>
      <use xlink:href="#DejaVuSans-69" x="619.775391"/>
      <use xlink:href="#DejaVuSans-6f" x="647.558594"/>
      <use xlink:href="#DejaVuSans-6e" x="708.740234"/>
     </g>
    </g>
   </g>
  </g>
  <g id="axes_2">
   <g id="patch_7">
    <path d="M 138.24 337.824 
L 368.64 337.824 
L 368.64 329.184 
L 138.24 329.184 
z
" clip-path="url(#pd2fa63eca2)" style="fill: #d3d3d3"/>
   </g>
   <g id="patch_8">
    <path d="M 138.24 337.824 
L 138.24 329.184 
L 182.976545 329.184 
L 182.976545 337.824 
z
" clip-path="url(#pd2fa63eca2)" style="fill: #1f77b4"/>
   </g>
   <g id="line2d_33">
    <path d="M 138.24 342.144 
L 138.24 324.864 
" clip-path="url(#pb223c1b59e)" style="fill: none; stroke: #ff0000; stroke-linecap: square"/>
   </g>
   <g id="line2d_34">
    <defs>
     <path id="mad959d8fb5" d="M 0 5 
C 1.326016 5 2.597899 4.473168 3.535534 3.535534 
C 4.473168 2.597899 5 1.326016 5 0 
C 5 -1.326016 4.473168 -2.597899 3.535534 -3.535534 
C 2.597899 -4.473168 1.326016 -5 0 -5 
C -1.326016 -5 -2.597899 -4.473168 -3.535534 -3.535534 
C -4.473168 -2.597899 -5 -1.326016 -5 0 
C -5 1.326016 -4.473168 2.597899 -3.535534 3.535534 
C -2.597899 4.473168 -1.326016 5 0 5 
z
" style="stroke: #bfbfbf"/>
    </defs>
    <g>
     <use xlink:href="#mad959d8fb5" x="182.976545" y="333.504" style="fill: #ffffff; stroke: #bfbfbf"/>
    </g>
   </g>
   <g id="text_23">
    <!-- Joint angle [rad]:  -->
    <g transform="translate(46.48825 336.263375) scale(0.1 -0.1)">
     <defs>
      <path id="DejaVuSans-4a" d="M 628 4666 
L 1259 4666 
L 1259 325 
Q 1259 -519 939 -900 
Q 619 -1281 -91 -1281 
L -331 -1281 
L -331 -750 
L -134 -750 
Q 284 -750 456 -515 
Q 628 -281 628 325 
L 628 4666 
z
" transform="scale(0.015625)"/>
      <path id="DejaVuSans-67" d="M 2906 1791 
Q 2906 2416 2648 2759 
Q 2391 3103 1925 3103 
Q 1463 3103 1205 2759 
Q 947 2416 947 1791 
Q 947 1169 1205 825 
Q 1463 481 1925 481 
Q 2391 481 2648 825 
Q 2906 1169 2906 1791 
z
M 3481 434 
Q 3481 -459 3084 -895 
Q 2688 -1331 1869 -1331 
Q 1566 -1331 1297 -1286 
Q 1028 -1241 775 -1147 
L 775 -588 
Q 1028 -725 1275 -790 
Q 1522 -856 1778 -856 
Q 2344 -856 2625 -561 
Q 2906 -266 2906 331 
L 2906 616 
Q 2728 306 2450 153 
Q 2172 0 1784 0 
Q 1141 0 747 490 
Q 353 981 353 1791 
Q 353 2603 747 3093 
Q 1141 3584 1784 3584 
Q 2172 3584 2450 3431 
Q 2728 3278 2906 2969 
L 2906 3500 
L 3481 3500 
L 3481 434 
z
" transform="scale(0.015625)"/>
      <path id="DejaVuSans-5b" d="M 550 4863 
L 1875 4863 
L 1875 4416 
L 1125 4416 
L 1125 -397 
L 1875 -397 
L 1875 -844 
L 550 -844 
L 550 4863 
z
" transform="scale(0.015625)"/>
      <path id="DejaVuSans-72" d="M 2631 2963 
Q 2534 3019 2420 3045 
Q 2306 3072 2169 3072 
Q 1681 3072 1420 2755 
Q 1159 2438 1159 1844 
L 1159 0 
L 581 0 
L 581 3500 
L 1159 3500 
L 1159 2956 
Q 1341 3275 1631 3429 
Q 1922 3584 2338 3584 
Q 2397 3584 2469 3576 
Q 2541 3569 2628 3553 
L 2631 2963 
z
" transform="scale(0.015625)"/>
      <path id="DejaVuSans-64" d="M 2906 2969 
L 2906 4863 
L 3481 4863 
L 3481 0 
L 2906 0 
L 2906 525 
Q 2725 213 2448 61 
Q 2172 -91 1784 -91 
Q 1150 -91 751 415 
Q 353 922 353 1747 
Q 353 2572 751 3078 
Q 1150 3584 1784 3584 
Q 2172 3584 2448 3432 
Q 2725 3281 2906 2969 
z
M 947 1747 
Q 947 1113 1208 752 
Q 1469 391 1925 391 
Q 2381 391 2643 752 
Q 2906 1113 2906 1747 
Q 2906 2381 2643 2742 
Q 2381 3103 1925 3103 
Q 1469 3103 1208 2742 
Q 947 2381 947 1747 
z
" transform="scale(0.015625)"/>
      <path id="DejaVuSans-5d" d="M 1947 4863 
L 1947 -844 
L 622 -844 
L 622 -397 
L 1369 -397 
L 1369 4416 
L 622 4416 
L 622 4863 
L 1947 4863 
z
" transform="scale(0.015625)"/>
      <path id="DejaVuSans-3a" d="M 750 794 
L 1409 794 
L 1409 0 
L 750 0 
L 750 794 
z
M 750 3309 
L 1409 3309 
L 1409 2516 
L 750 2516 
L 750 3309 
z
" transform="scale(0.015625)"/>
     </defs>
     <use xlink:href="#DejaVuSans-4a"/>
     <use xlink:href="#DejaVuSans-6f" x="29.492188"/>
     <use xlink:href="#DejaVuSans-69" x="90.673828"/>
     <use xlink:href="#DejaVuSans-6e" x="118.457031"/>
     <use xlink:href="#DejaVuSans-74" x="181.835938"/>
     <use xlink:href="#DejaVuSans-20" x="221.044922"/>
     <use xlink:href="#DejaVuSans-61" x="252.832031"/>
     <use xlink:href="#DejaVuSans-6e" x="314.111328"/>
     <use xlink:href="#DejaVuSans-67" x="377.490234"/>
     <use xlink:href="#DejaVuSans-6c" x="440.966797"/>
     <use xlink:href="#DejaVuSans-65" x="468.75"/>
     <use xlink:href="#DejaVuSans-20" x="530.273438"/>
     <use xlink:href="#DejaVuSans-5b" x="562.060547"/>
     <use xlink:href="#DejaVuSans-72" x="601.074219"/>
     <use xlink:href="#DejaVuSans-61" x="642.1875"/>
     <use xlink:href="#DejaVuSans-64" x="703.466797"/>
     <use xlink:href="#DejaVuSans-5d" x="766.943359"/>
     <use xlink:href="#DejaVuSans-3a" x="805.957031"/>
     <use xlink:href="#DejaVuSans-20" x="839.648438"/>
    </g>
   </g>
   <g id="text_24">
    <!-- $\mathdefault{1.220}$ -->
    <g transform="translate(373.248 336.263375) scale(0.1 -0.1)">
     <use xlink:href="#DejaVuSans-31" transform="translate(0 0.78125)"/>
     <use xlink:href="#DejaVuSans-2e" transform="translate(63.623047 0.78125)"/>
     <use xlink:href="#DejaVuSans-32" transform="translate(89.910156 0.78125)"/>
     <use xlink:href="#DejaVuSans-32" transform="translate(153.533203 0.78125)"/>
     <use xlink:href="#DejaVuSans-30" transform="translate(217.15625 0.78125)"/>
    </g>
   </g>
  </g>
  <g id="axes_3">
   <g id="patch_9">
    <path d="M 138.24 326.592 
L 207.36 326.592 
L 207.36 309.312 
L 138.24 309.312 
z
" style="fill: #f2f2f2"/>
   </g>
   <g id="matplotlib.axis_1"/>
   <g id="matplotlib.axis_2"/>
   <g id="patch_10">
    <path d="M 138.24 326.592 
L 138.24 309.312 
" style="fill: none; stroke: #000000; stroke-width: 0.8; stroke-linejoin: miter; stroke-linecap: square"/>
   </g>
   <g id="patch_11">
    <path d="M 207.36 326.592 
L 207.36 309.312 
" style="fill: none; stroke: #000000; stroke-width: 0.8; stroke-linejoin: miter; stroke-linecap: square"/>
   </g>
   <g id="patch_12">
    <path d="M 138.24 326.592 
L 207.36 326.592 
" style="fill: none; stroke: #000000; stroke-width: 0.8; stroke-linejoin: miter; stroke-linecap: square"/>
   </g>
   <g id="patch_13">
    <path d="M 138.24 309.312 
L 207.36 309.312 
" style="fill: none; stroke: #000000; stroke-width: 0.8; stroke-linejoin: miter; stroke-linecap: square"/>
   </g>
   <g id="text_25">
    <!-- Set angle [rad]:  -->
    <g transform="translate(56.087862 320.711375) scale(0.1 -0.1)">
     <defs>
      <path id="DejaVuSans-53" d="M 3425 4513 
L 3425 3897 
Q 3066 4069 2747 4153 
Q 2428 4238 2131 4238 
Q 1616 4238 1336 4038 
Q 1056 3838 1056 3469 
Q 1056 3159 1242 3001 
Q 1428 2844 1947 2747 
L 2328 2669 
Q 3034 2534 3370 2195 
Q 3706 1856 3706 1288 
Q 3706 609 3251 259 
Q 2797 -91 1919 -91 
Q 1588 -91 1214 -16 
Q 841 59 441 206 
L 441 856 
Q 825 641 1194 531 
Q 1563 422 1919 422 
Q 2459 422 2753 634 
Q 3047 847 3047 1241 
Q 3047 1584 2836 1778 
Q 2625 1972 2144 2069 
L 1759 2144 
Q 1053 2284 737 2584 
Q 422 2884 422 3419 
Q 422 4038 858 4394 
Q 1294 4750 2059 4750 
Q 2388 4750 2728 4690 
Q 3069 4631 3425 4513 
z
" transform="scale(0.015625)"/>
     </defs>
     <use xlink:href="#DejaVuSans-53"/>
     <use xlink:href="#DejaVuSans-65" x="63.476562"/>
     <use xlink:href="#DejaVuSans-74" x="125"/>
     <use xlink:href="#DejaVuSans-20" x="164.208984"/>
     <use xlink:href="#DejaVuSans-61" x="195.996094"/>
     <use xlink:href="#DejaVuSans-6e" x="257.275391"/>
     <use xlink:href="#DejaVuSans-67" x="320.654297"/>
     <use xlink:href="#DejaVuSans-6c" x="384.130859"/>
     <use xlink:href="#DejaVuSans-65" x="411.914062"/>
     <use xlink:href="#DejaVuSans-20" x="473.4375"/>
     <use xlink:href="#DejaVuSans-5b" x="505.224609"/>
     <use xlink:href="#DejaVuSans-72" x="544.238281"/>
     <use xlink:href="#DejaVuSans-61" x="585.351562"/>
     <use xlink:href="#DejaVuSans-64" x="646.630859"/>
     <use xlink:href="#DejaVuSans-5d" x="710.107422"/>
     <use xlink:href="#DejaVuSans-3a" x="749.121094"/>
     <use xlink:href="#DejaVuSans-20" x="782.8125"/>
    </g>
   </g>
  </g>
  <g id="axes_4">
   <g id="patch_14">
    <path d="M 138.24 307.584 
L 207.36 307.584 
L 207.36 290.304 
L 138.24 290.304 
z
" style="fill: #f2f2f2"/>
   </g>
   <g id="matplotlib.axis_3"/>
   <g id="matplotlib.axis_4"/>
   <g id="patch_15">
    <path d="M 138.24 307.584 
L 138.24 290.304 
" style="fill: none; stroke: #000000; stroke-width: 0.8; stroke-linejoin: miter; stroke-linecap: square"/>
   </g>
   <g id="patch_16">
    <path d="M 207.36 307.584 
L 207.36 290.304 
" style="fill: none; stroke: #000000; stroke-width: 0.8; stroke-linejoin: miter; stroke-linecap: square"/>
   </g>
   <g id="patch_17">
    <path d="M 138.24 307.584 
L 207.36 307.584 
" style="fill: none; stroke: #000000; stroke-width: 0.8; stroke-linejoin: miter; stroke-linecap: square"/>
   </g>
   <g id="patch_18">
    <path d="M 138.24 290.304 
L 207.36 290.304 
" style="fill: none; stroke: #000000; stroke-width: 0.8; stroke-linejoin: miter; stroke-linecap: square"/>
   </g>
   <g id="text_26">
    <!-- Set param t [-]:  -->
    <g transform="translate(57.258175 301.703375) scale(0.1 -0.1)">
     <defs>
      <path id="DejaVuSans-6d" d="M 3328 2828 
Q 3544 3216 3844 3400 
Q 4144 3584 4550 3584 
Q 5097 3584 5394 3201 
Q 5691 2819 5691 2113 
L 5691 0 
L 5113 0 
L 5113 2094 
Q 5113 2597 4934 2840 
Q 4756 3084 4391 3084 
Q 3944 3084 3684 2787 
Q 3425 2491 3425 1978 
L 3425 0 
L 2847 0 
L 2847 2094 
Q 2847 2600 2669 2842 
Q 2491 3084 2119 3084 
Q 1678 3084 1418 2786 
Q 1159 2488 1159 1978 
L 1159 0 
L 581 0 
L 581 3500 
L 1159 3500 
L 1159 2956 
Q 1356 3278 1631 3431 
Q 1906 3584 2284 3584 
Q 2666 3584 2933 3390 
Q 3200 3197 3328 2828 
z
" transform="scale(0.015625)"/>
     </defs>
     <use xlink:href="#DejaVuSans-53"/>
     <use xlink:href="#DejaVuSans-65" x="63.476562"/>
     <use xlink:href="#DejaVuSans-74" x="125"/>
     <use xlink:href="#DejaVuSans-20" x="164.208984"/>
     <use xlink:href="#DejaVuSans-70" x="195.996094"/>
     <use xlink:href="#DejaVuSans-61" x="259.472656"/>
     <use xlink:href="#DejaVuSans-72" x="320.751953"/>
     <use xlink:href="#DejaVuSans-61" x="361.865234"/>
     <use xlink:href="#DejaVuSans-6d" x="423.144531"/>
     <use xlink:href="#DejaVuSans-20" x="520.556641"/>
     <use xlink:href="#DejaVuSans-74" x="552.34375"/>
     <use xlink:href="#DejaVuSans-20" x="591.552734"/>
     <use xlink:href="#DejaVuSans-5b" x="623.339844"/>
     <use xlink:href="#DejaVuSans-2d" x="662.353516"/>
     <use xlink:href="#DejaVuSans-5d" x="698.4375"/>
     <use xlink:href="#DejaVuSans-3a" x="737.451172"/>
     <use xlink:href="#DejaVuSans-20" x="771.142578"/>
    </g>
   </g>
  </g>
  <g id="axes_5">
   <g id="patch_19">
    <path d="M 138.24 288.576 
L 207.36 288.576 
L 207.36 271.296 
L 138.24 271.296 
z
" style="fill: #f2f2f2"/>
   </g>
   <g id="matplotlib.axis_5"/>
   <g id="matplotlib.axis_6"/>
   <g id="patch_20">
    <path d="M 138.24 288.576 
L 138.24 271.296 
" style="fill: none; stroke: #000000; stroke-width: 0.8; stroke-linejoin: miter; stroke-linecap: square"/>
   </g>
   <g id="patch_21">
    <path d="M 207.36 288.576 
L 207.36 271.296 
" style="fill: none; stroke: #000000; stroke-width: 0.8; stroke-linejoin: miter; stroke-linecap: square"/>
   </g>
   <g id="patch_22">
    <path d="M 138.24 288.576 
L 207.36 288.576 
" style="fill: none; stroke: #000000; stroke-width: 0.8; stroke-linejoin: miter; stroke-linecap: square"/>
   </g>
   <g id="patch_23">
    <path d="M 138.24 271.296 
L 207.36 271.296 
" style="fill: none; stroke: #000000; stroke-width: 0.8; stroke-linejoin: miter; stroke-linecap: square"/>
   </g>
   <g id="text_27">
    <!-- Save with filename:  -->
    <g transform="translate(35.294112 282.695375) scale(0.1 -0.1)">
     <defs>
      <path id="DejaVuSans-76" d="M 191 3500 
L 800 3500 
L 1894 563 
L 2988 3500 
L 3597 3500 
L 2284 0 
L 1503 0 
L 191 3500 
z
" transform="scale(0.015625)"/>
      <path id="DejaVuSans-77" d="M 269 3500 
L 844 3500 
L 1563 769 
L 2278 3500 
L 2956 3500 
L 3675 769 
L 4391 3500 
L 4966 3500 
L 4050 0 
L 3372 0 
L 2619 2869 
L 1863 0 
L 1184 0 
L 269 3500 
z
" transform="scale(0.015625)"/>
      <path id="DejaVuSans-66" d="M 2375 4863 
L 2375 4384 
L 1825 4384 
Q 1516 4384 1395 4259 
Q 1275 4134 1275 3809 
L 1275 3500 
L 2222 3500 
L 2222 3053 
L 1275 3053 
L 1275 0 
L 697 0 
L 697 3053 
L 147 3053 
L 147 3500 
L 697 3500 
L 697 3744 
Q 697 4328 969 4595 
Q 1241 4863 1831 4863 
L 2375 4863 
z
" transform="scale(0.015625)"/>
     </defs>
     <use xlink:href="#DejaVuSans-53"/>
     <use xlink:href="#DejaVuSans-61" x="63.476562"/>
     <use xlink:href="#DejaVuSans-76" x="124.755859"/>
     <use xlink:href="#DejaVuSans-65" x="183.935547"/>
     <use xlink:href="#DejaVuSans-20" x="245.458984"/>
     <use xlink:href="#DejaVuSans-77" x="277.246094"/>
     <use xlink:href="#DejaVuSans-69" x="359.033203"/>
     <use xlink:href="#DejaVuSans-74" x="386.816406"/>
     <use xlink:href="#DejaVuSans-68" x="426.025391"/>
     <use xlink:href="#DejaVuSans-20" x="489.404297"/>
     <use xlink:href="#DejaVuSans-66" x="521.191406"/>
     <use xlink:href="#DejaVuSans-69" x="556.396484"/>
     <use xlink:href="#DejaVuSans-6c" x="584.179688"/>
     <use xlink:href="#DejaVuSans-65" x="611.962891"/>
     <use xlink:href="#DejaVuSans-6e" x="673.486328"/>
     <use xlink:href="#DejaVuSans-61" x="736.865234"/>
     <use xlink:href="#DejaVuSans-6d" x="798.144531"/>
     <use xlink:href="#DejaVuSans-65" x="895.556641"/>
     <use xlink:href="#DejaVuSans-3a" x="957.080078"/>
     <use xlink:href="#DejaVuSans-20" x="990.771484"/>
    </g>
   </g>
  </g>
  <g id="axes_6">
   <g id="patch_24">
    <path d="M 16.416 259.2 
L 21.6 259.2 
L 21.6 41.472 
L 16.416 41.472 
z
" clip-path="url(#pc3818f1f4e)" style="fill: #d3d3d3"/>
   </g>
   <g id="patch_25">
    <path d="M 16.416 259.2 
L 16.416 150.336 
L 21.6 150.336 
L 21.6 259.2 
z
" clip-path="url(#pc3818f1f4e)" style="fill: #1f77b4"/>
   </g>
   <g id="line2d_35">
    <path d="M 13.824 150.336 
L 24.192 150.336 
" clip-path="url(#p8dec73be0c)" style="fill: none; stroke: #ff0000; stroke-linecap: square"/>
   </g>
   <g id="line2d_36">
    <g>
     <use xlink:href="#mad959d8fb5" x="19.008" y="150.336" style="fill: #ffffff; stroke: #bfbfbf"/>
    </g>
   </g>
   <g id="text_28">
    <!-- j0 -->
    <g transform="translate(14.437687 35.037753) scale(0.1 -0.1)">
     <defs>
      <path id="DejaVuSans-6a" d="M 603 3500 
L 1178 3500 
L 1178 -63 
Q 1178 -731 923 -1031 
Q 669 -1331 103 -1331 
L -116 -1331 
L -116 -844 
L 38 -844 
Q 366 -844 484 -692 
Q 603 -541 603 -63 
L 603 3500 
z
M 603 4863 
L 1178 4863 
L 1178 4134 
L 603 4134 
L 603 4863 
z
" transform="scale(0.015625)"/>
     </defs>
     <use xlink:href="#DejaVuSans-6a"/>
     <use xlink:href="#DejaVuSans-30" x="27.783203"/>
    </g>
   </g>
   <g id="text_29">
    <!-- $\mathdefault{0}$ -->
    <g transform="translate(15.808 271.152997) scale(0.1 -0.1)">
     <use xlink:href="#DejaVuSans-30" transform="translate(0 0.78125)"/>
    </g>
   </g>
  </g>
  <g id="axes_7">
   <g id="patch_26">
    <path d="M 23.328 259.2 
L 28.512 259.2 
L 28.512 41.472 
L 23.328 41.472 
z
" clip-path="url(#pc108668a5e)" style="fill: #d3d3d3"/>
   </g>
   <g id="patch_27">
    <path d="M 23.328 259.2 
L 23.328 150.325114 
L 28.512 150.325114 
L 28.512 259.2 
z
" clip-path="url(#pc108668a5e)" style="fill: #1f77b4"/>
   </g>
   <g id="line2d_37">
    <path d="M 20.736 150.336 
L 31.104 150.336 
" clip-path="url(#pb8a4bb7502)" style="fill: none; stroke: #ff0000; stroke-linecap: square"/>
   </g>
   <g id="line2d_38">
    <g>
     <use xlink:href="#mad959d8fb5" x="25.92" y="150.325114" style="fill: #ffffff; stroke: #bfbfbf"/>
    </g>
   </g>
   <g id="text_30">
    <!-- $\mathdefault{0}$ -->
    <g transform="translate(22.72 271.152997) scale(0.1 -0.1)">
     <use xlink:href="#DejaVuSans-30" transform="translate(0 0.78125)"/>
    </g>
   </g>
  </g>
  <g id="axes_8">
   <g id="patch_28">
    <path d="M 34.848 259.2 
L 40.032 259.2 
L 40.032 41.472 
L 34.848 41.472 
z
" clip-path="url(#p51bc17060a)" style="fill: #d3d3d3"/>
   </g>
   <g id="patch_29">
    <path d="M 34.848 259.2 
L 34.848 150.336 
L 40.032 150.336 
L 40.032 259.2 
z
" clip-path="url(#p51bc17060a)" style="fill: #1f77b4"/>
   </g>
   <g id="line2d_39">
    <path d="M 32.256 150.336 
L 42.624 150.336 
" clip-path="url(#pb9ebb39abd)" style="fill: none; stroke: #ff0000; stroke-linecap: square"/>
   </g>
   <g id="line2d_40">
    <g>
     <use xlink:href="#mad959d8fb5" x="37.44" y="150.336" style="fill: #ffffff; stroke: #bfbfbf"/>
    </g>
   </g>
   <g id="text_31">
    <!-- j1 -->
    <g transform="translate(32.869688 35.037753) scale(0.1 -0.1)">
     <use xlink:href="#DejaVuSans-6a"/>
     <use xlink:href="#DejaVuSans-31" x="27.783203"/>
    </g>
   </g>
   <g id="text_32">
    <!-- $\mathdefault{0}$ -->
    <g transform="translate(34.24 271.152997) scale(0.1 -0.1)">
     <use xlink:href="#DejaVuSans-30" transform="translate(0 0.78125)"/>
    </g>
   </g>
  </g>
  <g id="axes_9">
   <g id="patch_30">
    <path d="M 41.76 259.2 
L 46.944 259.2 
L 46.944 41.472 
L 41.76 41.472 
z
" clip-path="url(#p416e9e6e3e)" style="fill: #d3d3d3"/>
   </g>
   <g id="patch_31">
    <path d="M 41.76 259.2 
L 41.76 150.325114 
L 46.944 150.325114 
L 46.944 259.2 
z
" clip-path="url(#p416e9e6e3e)" style="fill: #1f77b4"/>
   </g>
   <g id="line2d_41">
    <path d="M 39.168 150.336 
L 49.536 150.336 
" clip-path="url(#pbad901cf1e)" style="fill: none; stroke: #ff0000; stroke-linecap: square"/>
   </g>
   <g id="line2d_42">
    <g>
     <use xlink:href="#mad959d8fb5" x="44.352" y="150.325114" style="fill: #ffffff; stroke: #bfbfbf"/>
    </g>
   </g>
   <g id="text_33">
    <!-- $\mathdefault{0}$ -->
    <g transform="translate(41.152 271.152997) scale(0.1 -0.1)">
     <use xlink:href="#DejaVuSans-30" transform="translate(0 0.78125)"/>
    </g>
   </g>
  </g>
  <g id="axes_10">
   <g id="patch_32">
    <path d="M 53.28 259.2 
L 58.464 259.2 
L 58.464 41.472 
L 53.28 41.472 
z
" clip-path="url(#p86e02bbc7d)" style="fill: #d3d3d3"/>
   </g>
   <g id="patch_33">
    <path d="M 53.28 259.2 
L 53.28 150.336 
L 58.464 150.336 
L 58.464 259.2 
z
" clip-path="url(#p86e02bbc7d)" style="fill: #1f77b4"/>
   </g>
   <g id="line2d_43">
    <path d="M 50.688 150.336 
L 61.056 150.336 
" clip-path="url(#p76bccced2c)" style="fill: none; stroke: #ff0000; stroke-linecap: square"/>
   </g>
   <g id="line2d_44">
    <g>
     <use xlink:href="#mad959d8fb5" x="55.872" y="150.336" style="fill: #ffffff; stroke: #bfbfbf"/>
    </g>
   </g>
   <g id="text_34">
    <!-- j2 -->
    <g transform="translate(51.301687 35.037753) scale(0.1 -0.1)">
     <use xlink:href="#DejaVuSans-6a"/>
     <use xlink:href="#DejaVuSans-32" x="27.783203"/>
    </g>
   </g>
   <g id="text_35">
    <!-- $\mathdefault{0}$ -->
    <g transform="translate(52.672 271.152997) scale(0.1 -0.1)">
     <use xlink:href="#DejaVuSans-30" transform="translate(0 0.78125)"/>
    </g>
   </g>
  </g>
  <g id="axes_11">
   <g id="patch_34">
    <path d="M 60.192 259.2 
L 65.376 259.2 
L 65.376 41.472 
L 60.192 41.472 
z
" clip-path="url(#pdfe163595f)" style="fill: #d3d3d3"/>
   </g>
   <g id="patch_35">
    <path d="M 60.192 259.2 
L 60.192 150.325114 
L 65.376 150.325114 
L 65.376 259.2 
z
" clip-path="url(#pdfe163595f)" style="fill: #1f77b4"/>
   </g>
   <g id="line2d_45">
    <path d="M 57.6 150.336 
L 67.968 150.336 
" clip-path="url(#pbceab8c492)" style="fill: none; stroke: #ff0000; stroke-linecap: square"/>
   </g>
   <g id="line2d_46">
    <g>
     <use xlink:href="#mad959d8fb5" x="62.784" y="150.325114" style="fill: #ffffff; stroke: #bfbfbf"/>
    </g>
   </g>
   <g id="text_36">
    <!-- $\mathdefault{0}$ -->
    <g transform="translate(59.584 271.152997) scale(0.1 -0.1)">
     <use xlink:href="#DejaVuSans-30" transform="translate(0 0.78125)"/>
    </g>
   </g>
  </g>
  <g id="axes_12">
   <g id="patch_36">
    <path d="M 71.712 259.2 
L 76.896 259.2 
L 76.896 41.472 
L 71.712 41.472 
z
" clip-path="url(#p22e0847079)" style="fill: #d3d3d3"/>
   </g>
   <g id="patch_37">
    <path d="M 71.712 259.2 
L 71.712 150.336 
L 76.896 150.336 
L 76.896 259.2 
z
" clip-path="url(#p22e0847079)" style="fill: #1f77b4"/>
   </g>
   <g id="line2d_47">
    <path d="M 69.12 150.336 
L 79.488 150.336 
" clip-path="url(#p7150787203)" style="fill: none; stroke: #ff0000; stroke-linecap: square"/>
   </g>
   <g id="line2d_48">
    <g>
     <use xlink:href="#mad959d8fb5" x="74.304" y="150.336" style="fill: #ffffff; stroke: #bfbfbf"/>
    </g>
   </g>
   <g id="text_37">
    <!-- j3 -->
    <g transform="translate(69.733688 35.037753) scale(0.1 -0.1)">
     <use xlink:href="#DejaVuSans-6a"/>
     <use xlink:href="#DejaVuSans-33" x="27.783203"/>
    </g>
   </g>
   <g id="text_38">
    <!-- $\mathdefault{0}$ -->
    <g transform="translate(71.104 271.152997) scale(0.1 -0.1)">
     <use xlink:href="#DejaVuSans-30" transform="translate(0 0.78125)"/>
    </g>
   </g>
  </g>
  <g id="axes_13">
   <g id="patch_38">
    <path d="M 78.624 259.2 
L 83.808 259.2 
L 83.808 41.472 
L 78.624 41.472 
z
" clip-path="url(#p8b985ce224)" style="fill: #d3d3d3"/>
   </g>
   <g id="patch_39">
    <path d="M 78.624 259.2 
L 78.624 150.325114 
L 83.808 150.325114 
L 83.808 259.2 
z
" clip-path="url(#p8b985ce224)" style="fill: #1f77b4"/>
   </g>
   <g id="line2d_49">
    <path d="M 76.032 150.336 
L 86.4 150.336 
" clip-path="url(#p19925f6c5e)" style="fill: none; stroke: #ff0000; stroke-linecap: square"/>
   </g>
   <g id="line2d_50">
    <g>
     <use xlink:href="#mad959d8fb5" x="81.216" y="150.325114" style="fill: #ffffff; stroke: #bfbfbf"/>
    </g>
   </g>
   <g id="text_39">
    <!-- $\mathdefault{0}$ -->
    <g transform="translate(78.016 271.152997) scale(0.1 -0.1)">
     <use xlink:href="#DejaVuSans-30" transform="translate(0 0.78125)"/>
    </g>
   </g>
  </g>
 </g>
 <defs>
  <clipPath id="p8b39cdf354">
   <rect x="147.456" y="3.456" width="283.392" height="283.392"/>
  </clipPath>
  <clipPath id="pd2fa63eca2">
   <rect x="138.24" y="324.864" width="230.4" height="17.28"/>
  </clipPath>
  <clipPath id="pb223c1b59e">
   <path d="M 138.24 337.824 
L 368.64 337.824 
L 368.64 329.184 
L 138.24 329.184 
z
"/>
  </clipPath>
  <clipPath id="pc3818f1f4e">
   <rect x="13.824" y="41.472" width="10.368" height="217.728"/>
  </clipPath>
  <clipPath id="p8dec73be0c">
   <path d="M 16.416 259.2 
L 21.6 259.2 
L 21.6 41.472 
L 16.416 41.472 
z
"/>
  </clipPath>
  <clipPath id="pc108668a5e">
   <rect x="20.736" y="41.472" width="10.368" height="217.728"/>
  </clipPath>
  <clipPath id="pb8a4bb7502">
   <path d="M 23.328 259.2 
L 28.512 259.2 
L 28.512 41.472 
L 23.328 41.472 
z
"/>
  </clipPath>
  <clipPath id="p51bc17060a">
   <rect x="32.256" y="41.472" width="10.368" height="217.728"/>
  </clipPath>
  <clipPath id="pb9ebb39abd">
   <path d="M 34.848 259.2 
L 40.032 259.2 
L 40.032 41.472 
L 34.848 41.472 
z
"/>
  </clipPath>
  <clipPath id="p416e9e6e3e">
   <rect x="39.168" y="41.472" width="10.368" height="217.728"/>
  </clipPath>
  <clipPath id="pbad901cf1e">
   <path d="M 41.76 259.2 
L 46.944 259.2 
L 46.944 41.472 
L 41.76 41.472 
z
"/>
  </clipPath>
  <clipPath id="p86e02bbc7d">
   <rect x="50.688" y="41.472" width="10.368" height="217.728"/>
  </clipPath>
  <clipPath id="p76bccced2c">
   <path d="M 53.28 259.2 
L 58.464 259.2 
L 58.464 41.472 
L 53.28 41.472 
z
"/>
  </clipPath>
  <clipPath id="pdfe163595f">
   <rect x="57.6" y="41.472" width="10.368" height="217.728"/>
  </clipPath>
  <clipPath id="pbceab8c492">
   <path d="M 60.192 259.2 
L 65.376 259.2 
L 65.376 41.472 
L 60.192 41.472 
z
"/>
  </clipPath>
  <clipPath id="p22e0847079">
   <rect x="69.12" y="41.472" width="10.368" height="217.728"/>
  </clipPath>
  <clipPath id="p7150787203">
   <path d="M 71.712 259.2 
L 76.896 259.2 
L 76.896 41.472 
L 71.712 41.472 
z
"/>
  </clipPath>
  <clipPath id="p8b985ce224">
   <rect x="76.032" y="41.472" width="10.368" height="217.728"/>
  </clipPath>
  <clipPath id="p19925f6c5e">
   <path d="M 78.624 259.2 
L 83.808 259.2 
L 83.808 41.472 
L 78.624 41.472 
z
"/>
  </clipPath>
 </defs>
</svg>
